<svg width="329" height="265" viewBox="0 0 329 265" fill="none" xmlns="http://www.w3.org/2000/svg">
<path d="M0 5C0 2.23857 2.23858 0 5 0H329V270H5C2.23858 270 0 267.761 0 265V5Z" fill="#F2F2F2"/>
<path d="M316.5 220.801H12.4999V220.953H316.5V220.801Z" fill="#EBEBEB"/>
<path d="M286.039 230.584H273.837V230.736H286.039V230.584Z" fill="#EBEBEB"/>
<path d="M249.316 228.456H229.848V228.608H249.316V228.456Z" fill="#EBEBEB"/>
<path d="M201.691 224.942H179.208V225.094H201.691V224.942Z" fill="#EBEBEB"/>
<path d="M84.6392 229.416H58.3796V229.568H84.6392V229.416Z" fill="#EBEBEB"/>
<path d="M52.9623 229.416H49.1136V229.568H52.9623V229.416Z" fill="#EBEBEB"/>
<path d="M115.392 224.862H92.6039V225.014H115.392V224.862Z" fill="#EBEBEB"/>
<path d="M156.596 193.684H39.1972C38.2775 193.683 37.396 193.316 36.7462 192.665C36.0965 192.014 35.7316 191.132 35.7316 190.212V25.183C35.7396 24.2686 36.108 23.3942 36.7569 22.7499C37.4058 22.1056 38.2827 21.7433 39.1972 21.7417H156.596C157.517 21.7417 158.4 22.1075 159.051 22.7585C159.702 23.4096 160.068 24.2926 160.068 25.2134V190.212C160.068 191.133 159.702 192.016 159.051 192.667C158.4 193.318 157.517 193.684 156.596 193.684ZM39.1972 21.8633C38.3178 21.8649 37.475 22.2154 36.8537 22.8378C36.2325 23.4601 35.8836 24.3036 35.8836 25.183V190.212C35.8836 191.092 36.2325 191.935 36.8537 192.558C37.475 193.18 38.3178 193.531 39.1972 193.532H156.596C157.476 193.531 158.319 193.18 158.942 192.558C159.564 191.936 159.914 191.092 159.916 190.212V25.183C159.914 24.303 159.564 23.4596 158.942 22.8374C158.319 22.2152 157.476 21.8649 156.596 21.8633H39.1972Z" fill="#EBEBEB"/>
<path d="M288.113 193.684H170.708C169.787 193.683 168.905 193.316 168.255 192.666C167.604 192.015 167.238 191.133 167.236 190.212V25.183C167.246 24.268 167.615 23.3937 168.265 22.7495C168.915 22.1053 169.793 21.7432 170.708 21.7417H288.113C289.026 21.7449 289.901 22.1079 290.549 22.752C291.196 23.3962 291.564 24.2696 291.572 25.183V190.212C291.572 191.131 291.208 192.012 290.56 192.663C289.911 193.314 289.031 193.681 288.113 193.684ZM170.708 21.8633C169.828 21.8649 168.984 22.2152 168.362 22.8374C167.74 23.4596 167.39 24.303 167.388 25.183V190.212C167.39 191.092 167.74 191.936 168.362 192.558C168.984 193.18 169.828 193.531 170.708 193.532H288.113C288.992 193.531 289.836 193.18 290.458 192.558C291.08 191.936 291.431 191.092 291.432 190.212V25.183C291.431 24.303 291.08 23.4596 290.458 22.8374C289.836 22.2152 288.992 21.8649 288.113 21.8633H170.708Z" fill="#EBEBEB"/>
<path d="M50.9499 95.8143H93.8868L93.8868 37.3916L50.9499 37.3916L50.9499 95.8143Z" fill="#E6E6E6"/>
<path d="M49.1137 95.8143H92.0507L92.0507 37.3916L49.1137 37.3916L49.1137 95.8143Z" fill="#F5F5F5"/>
<path d="M88.7614 92.7744V40.4316H52.409V92.7744H88.7614Z" fill="white"/>
<path d="M53.7892 92.7744V40.4316H52.4029V92.7744H53.7892Z" fill="#E6E6E6"/>
<path d="M50.4756 78.6201H90.6887V74.5404H50.4756V78.6201Z" fill="#F5F5F5"/>
<path d="M112.948 95.8143H155.885V37.3916L112.948 37.3916V95.8143Z" fill="#E6E6E6"/>
<path d="M111.117 95.8143H154.054V37.3916L111.117 37.3916V95.8143Z" fill="#F5F5F5"/>
<path d="M150.765 92.7805V40.4377H114.413V92.7805H150.765Z" fill="white"/>
<path d="M115.793 92.7744V40.4316H114.407V92.7744H115.793Z" fill="#E6E6E6"/>
<path d="M112.479 78.6201H152.693V74.5404H112.479V78.6201Z" fill="#F5F5F5"/>
<path d="M174.945 95.8143H217.882V37.3916L174.945 37.3916V95.8143Z" fill="#E6E6E6"/>
<path d="M173.115 95.8143H216.052V37.3916L173.115 37.3916V95.8143Z" fill="#F5F5F5"/>
<path d="M212.763 92.7744V40.4316H176.411V92.7744H212.763Z" fill="white"/>
<path d="M177.791 92.7805V40.4377H176.405V92.7805H177.791Z" fill="#E6E6E6"/>
<path d="M174.477 78.6201H214.69V74.5404H174.477V78.6201Z" fill="#F5F5F5"/>
<path d="M236.949 95.8143H279.886V37.3916L236.949 37.3916V95.8143Z" fill="#E6E6E6"/>
<path d="M235.113 95.8143H278.05V37.3916L235.113 37.3916V95.8143Z" fill="#F5F5F5"/>
<path d="M274.767 92.7805V40.4377H238.415V92.7805H274.767Z" fill="white"/>
<path d="M239.795 92.7744V40.4316H238.408V92.7744H239.795Z" fill="#E6E6E6"/>
<path d="M236.475 78.6201H276.688V74.5404H236.475V78.6201Z" fill="#F5F5F5"/>
<path d="M242.257 158.341H213.882V220.801H242.257V158.341Z" fill="#E0E0E0"/>
<path d="M153.817 149.732L146.108 220.801H236.548L244.257 149.732H153.817Z" fill="#E6E6E6"/>
<path d="M152.37 149.732L144.661 220.801H235.101L242.81 149.732H152.37Z" fill="#F0F0F0"/>
<path d="M151.258 214.849H229.793L236.214 155.684H157.678L151.258 214.849Z" fill="white"/>
<path d="M172.927 185.671L182.606 196.53C187.47 202.002 196.365 202.002 202.421 196.53L214.453 185.671C214.566 185.571 214.637 185.433 214.654 185.284C214.671 185.135 214.632 184.984 214.545 184.862L204.865 174.003C200.001 168.531 191.106 168.531 185.05 174.003L173.012 184.862C172.9 184.963 172.83 185.101 172.814 185.25C172.799 185.399 172.839 185.549 172.927 185.671ZM213.286 185.263L201.697 195.721C196.134 200.737 187.975 200.737 183.5 195.721L174.179 185.294L185.78 174.812C191.343 169.796 199.509 169.796 203.977 174.812L213.286 185.263Z" fill="#F0F0F0"/>
<path d="M101.766 220.801H116.748L116.748 139.663H101.766L101.766 220.801Z" fill="#E6E6E6"/>
<path d="M101.767 139.663H53.4426V220.801H101.767V139.663Z" fill="#F5F5F5"/>
<path d="M98.3617 220.801V143.068H56.8414L56.8414 220.801H98.3617Z" fill="#E6E6E6"/>
<path d="M98.3617 220.801V143.068H83.6785V220.801H98.3617Z" fill="#E0E0E0"/>
<path d="M73.5675 173.304C74.137 173.305 74.6942 173.138 75.1692 172.824C75.6443 172.51 76.0161 172.062 76.2381 171.538C76.4601 171.014 76.5224 170.435 76.4172 169.875C76.3121 169.316 76.0441 168.799 75.6468 168.391C74.3214 167.042 72.1873 165.959 68.7643 165.959C65.3412 165.959 63.2132 167.054 61.8817 168.391C61.4841 168.8 61.216 169.317 61.111 169.877C61.006 170.437 61.0689 171.016 61.2916 171.541C61.5144 172.066 61.8871 172.513 62.3631 172.826C62.8391 173.14 63.3971 173.306 63.9672 173.304H73.5675Z" fill="#F5F5F5"/>
<path d="M82.4199 172.228C82.7856 172.228 83.1432 172.121 83.4482 171.919C83.7532 171.717 83.992 171.43 84.1347 171.093C84.2774 170.757 84.3177 170.386 84.2506 170.026C84.1836 169.667 84.012 169.335 83.7575 169.072C82.9002 168.209 81.5322 167.504 79.3373 167.504C77.1425 167.504 75.7684 168.209 74.9172 169.072C74.6626 169.335 74.4911 169.667 74.424 170.026C74.3569 170.386 74.3973 170.757 74.54 171.093C74.6827 171.43 74.9215 171.717 75.2265 171.919C75.5314 172.121 75.8891 172.228 76.2548 172.228H82.4199Z" fill="#F5F5F5"/>
<path d="M91.5035 173.213C92.0215 173.214 92.5283 173.062 92.9603 172.776C93.3923 172.49 93.7304 172.083 93.9323 171.606C94.1342 171.129 94.1908 170.603 94.0951 170.094C93.9994 169.585 93.7557 169.115 93.3944 168.744C92.1784 167.528 90.2449 166.513 87.132 166.513C84.019 166.513 82.0734 167.516 80.8696 168.744C80.5083 169.115 80.2645 169.585 80.1688 170.094C80.0732 170.603 80.1298 171.129 80.3316 171.606C80.5335 172.083 80.8716 172.49 81.3037 172.776C81.7357 173.062 82.2424 173.214 82.7604 173.213H91.5035Z" fill="#F5F5F5"/>
<path d="M92.9687 170.823C93.3318 170.825 93.6877 170.924 93.9983 171.113C94.3089 171.301 94.5624 171.57 94.7317 171.891C94.9011 172.212 94.9798 172.573 94.9595 172.936C94.9392 173.298 94.8206 173.648 94.6164 173.948C92.7924 176.684 88.1655 180.235 76.729 180.235C65.2925 180.235 60.6839 176.684 58.8356 173.948C58.6311 173.648 58.5125 173.297 58.4924 172.934C58.4724 172.571 58.5516 172.209 58.7217 171.888C58.8917 171.567 59.1462 171.298 59.4576 171.11C59.7691 170.923 60.1258 170.823 60.4893 170.823H92.9687Z" fill="#F0F0F0"/>
<path d="M98.3617 183.634V180.229H54.9991V183.634H98.3617Z" fill="#F5F5F5"/>
<path d="M92.9323 139.663H103.797L100.575 111.72H92.9323V139.663Z" fill="#E6E6E6"/>
<path d="M74.5889 139.663H98.7569L101.304 106.953H77.1364L74.5889 139.663Z" fill="#E0E0E0"/>
<path d="M72.85 139.663H97.9969L100.55 106.953H75.4036L72.85 139.663Z" fill="#F5F5F5"/>
<path d="M95.6196 137.085L97.7719 109.531H77.7809L75.6285 137.085H95.6196Z" fill="white"/>
<path d="M164.5 248.258C229.606 248.258 282.385 245.177 282.385 241.376C282.385 237.575 229.606 234.493 164.5 234.493C99.3937 234.493 46.6147 237.575 46.6147 241.376C46.6147 245.177 99.3937 248.258 164.5 248.258Z" fill="#F5F5F5"/>
<path d="M105.749 122.311L108.588 122.183L107.305 127.57C106.293 126.876 105.37 126.059 104.557 125.138C104.323 124.862 104.207 124.505 104.234 124.145C104.261 123.784 104.43 123.448 104.703 123.211L105.749 122.311Z" fill="#FFB573"/>
<path d="M111.878 125.09L110.607 129.485L107.305 127.57L108.588 122.183L111.878 125.09Z" fill="#FFB573"/>
<path d="M132.781 91.1936C133.93 93.7411 135.134 96.3555 136.35 98.9031C137.566 101.451 138.782 104.01 140.131 106.448C140.454 107.056 140.8 107.664 141.135 108.272L141.201 108.388C141.201 108.388 141.201 108.388 141.147 108.345C140.971 108.177 140.764 108.042 140.539 107.95C140.426 107.899 140.307 107.86 140.186 107.835C140.049 107.801 139.908 107.783 139.767 107.78C139.505 107.768 139.243 107.805 138.994 107.889C138.764 107.954 138.555 108.078 138.386 108.248C138.301 108.364 138.441 108.248 138.563 108.09C138.714 107.882 138.852 107.665 138.976 107.439C139.262 106.935 139.584 106.345 139.821 105.737C140.891 103.305 141.852 100.539 142.807 97.8755L146.059 98.4835C145.919 101.501 145.479 104.497 144.746 107.427C144.547 108.22 144.3 109 144.004 109.762C143.825 110.196 143.622 110.621 143.396 111.033C143.095 111.603 142.707 112.124 142.247 112.577C141.813 112.993 141.292 113.309 140.721 113.501C140.299 113.638 139.857 113.697 139.414 113.677C139.182 113.666 138.952 113.633 138.727 113.58C138.519 113.53 138.316 113.463 138.119 113.38C137.561 113.134 137.062 112.773 136.654 112.322C136.515 112.171 136.385 112.012 136.264 111.847L136.112 111.635L136.033 111.519C135.608 110.911 135.176 110.26 134.775 109.622C133.158 107.081 131.735 104.491 130.367 101.87C128.999 99.2496 127.783 96.5987 126.628 93.8384L132.781 91.1936Z" fill="#FFB573"/>
<path d="M142.284 96.9452L142.946 94.8051L147.202 96.6291C147.202 96.6291 146.309 98.9699 144.77 99.9244C144.465 100.118 144.095 100.183 143.741 100.104C143.388 100.025 143.08 99.8099 142.886 99.5049C142.401 98.7442 142.189 97.842 142.284 96.9452Z" fill="#FFB573"/>
<path d="M143.828 91.4976L144.509 91.6921C145.322 91.9272 146.033 92.4269 146.53 93.1119C147.026 93.797 147.28 94.6282 147.251 95.4739L147.208 96.6108L142.952 94.7868L143.828 91.4976Z" fill="#FFB573"/>
<path d="M144.916 98.0275L141.165 97.6566C141.114 97.6515 141.064 97.6358 141.019 97.6107C140.974 97.5855 140.934 97.5514 140.903 97.5103C140.871 97.4693 140.849 97.4222 140.836 97.3721C140.824 97.3219 140.822 97.2698 140.831 97.2188L142.047 89.1507C142.064 89.0438 142.122 88.9476 142.208 88.8811C142.293 88.8146 142.401 88.7828 142.509 88.7919L146.254 89.1628C146.306 89.1662 146.357 89.1807 146.403 89.2052C146.45 89.2298 146.49 89.2639 146.523 89.3052C146.555 89.3466 146.578 89.3943 146.59 89.4452C146.602 89.4961 146.604 89.5491 146.594 89.6006L145.378 97.6687C145.359 97.775 145.301 97.8704 145.216 97.9366C145.131 98.0028 145.024 98.0352 144.916 98.0275Z" fill="#263238"/>
<path d="M144.722 98.0093L140.976 97.6384C140.925 97.6332 140.875 97.6176 140.829 97.5925C140.784 97.5674 140.744 97.5334 140.712 97.4924C140.681 97.4515 140.657 97.4046 140.644 97.3544C140.631 97.3042 140.628 97.2519 140.636 97.2006L141.852 89.1325C141.869 89.0249 141.926 88.9279 142.012 88.8611C142.098 88.7944 142.206 88.7632 142.314 88.7738L146.059 89.1446C146.111 89.1498 146.161 89.1654 146.206 89.1905C146.252 89.2156 146.291 89.2497 146.323 89.2906C146.355 89.3315 146.378 89.3785 146.391 89.4286C146.405 89.4788 146.407 89.5311 146.4 89.5824L145.184 97.6506C145.166 97.7574 145.108 97.8537 145.023 97.9201C144.937 97.9866 144.83 98.0184 144.722 98.0093Z" fill="#7E57C2"/>
<path opacity="0.4" d="M145.263 97.1337L140.715 96.6899L141.755 89.8621L146.302 90.312L145.263 97.1337Z" fill="white"/>
<path opacity="0.4" d="M141.609 96.775L141.049 96.7203L143.64 90.0505L144.199 90.1053L141.609 96.775Z" fill="white"/>
<path opacity="0.4" d="M142.819 96.8966L141.943 96.8115L144.533 90.1417L145.415 90.2268L142.819 96.8966Z" fill="white"/>
<path opacity="0.4" d="M144.375 89.5216C144.362 89.5881 144.325 89.6476 144.272 89.6889C144.218 89.7303 144.151 89.7508 144.083 89.7466C144.051 89.7428 144.02 89.7327 143.992 89.7169C143.964 89.7011 143.939 89.6798 143.92 89.6543C143.9 89.6289 143.885 89.5997 143.877 89.5686C143.868 89.5375 143.866 89.5049 143.871 89.473C143.882 89.4054 143.919 89.3445 143.972 89.3019C144.026 89.2593 144.094 89.2379 144.162 89.2419C144.228 89.251 144.287 89.2855 144.326 89.3379C144.366 89.3903 144.384 89.4563 144.375 89.5216Z" fill="#263238"/>
<path d="M145.962 95.4192L145.299 95.6441L144.691 95.0848C144.383 94.7927 144.035 94.545 143.658 94.3491L143.342 94.1849L143.171 94.3977C143.075 94.5134 143.019 94.6576 143.012 94.8081C143.006 94.9586 143.049 95.1071 143.135 95.2307L143.494 95.7475L144.71 98.5139L145.926 98.1795L146.917 96.8966L145.962 95.4192Z" fill="#FFB573"/>
<path d="M108.375 93.3581C107.676 94.5741 106.904 95.8691 106.217 97.1581C105.53 98.447 104.831 99.7603 104.199 101.074C103.566 102.387 102.983 103.712 102.429 105.038C101.9 106.33 101.453 107.654 101.092 109.002L100.873 109.835C100.837 109.999 100.823 110.166 100.83 110.333C100.851 110.85 100.943 111.362 101.104 111.853C101.526 113.116 102.084 114.329 102.77 115.471C103.469 116.687 104.284 117.903 105.135 119.119C105.986 120.335 106.904 121.551 107.798 122.682L105.524 125.102C102.932 123.143 100.593 120.87 98.5624 118.335C97.4599 116.971 96.5345 115.474 95.8081 113.878C95.3889 112.943 95.0985 111.955 94.9448 110.941C94.8609 110.337 94.8466 109.725 94.9022 109.117L94.9569 108.643L95.0116 108.327L95.1271 107.689C95.2609 106.819 95.4798 106.017 95.6744 105.19C95.8689 104.363 96.1304 103.585 96.404 102.812C96.9147 101.244 97.5288 99.7725 98.1732 98.2586C98.8177 96.7446 99.5291 95.3462 100.289 93.9357C100.666 93.2304 101.055 92.5312 101.456 91.8381C101.858 91.1267 102.259 90.4762 102.739 89.7405L108.375 93.3581Z" fill="#FFB573"/>
<path d="M125.983 74.3581C125.868 74.6925 125.947 75.033 126.166 75.1181C126.384 75.2032 126.652 74.9965 126.774 74.6621C126.895 74.3277 126.81 73.9872 126.591 73.9021C126.372 73.817 126.099 74.0298 125.983 74.3581Z" fill="#263238"/>
<path d="M125.916 75.0208C125.963 76.2059 126.167 77.3796 126.524 78.5107C126.238 78.5856 125.938 78.5961 125.647 78.5414C125.356 78.4868 125.08 78.3683 124.84 78.1945L125.916 75.0208Z" fill="#ED893E"/>
<path d="M127.157 72.376C127.115 72.3692 127.077 72.3501 127.047 72.3212C126.841 72.1621 126.601 72.0539 126.345 72.0053C126.089 71.9567 125.826 71.9691 125.576 72.0416C125.549 72.0489 125.522 72.051 125.495 72.0476C125.468 72.0442 125.441 72.0355 125.418 72.0219C125.394 72.0084 125.373 71.9902 125.356 71.9685C125.34 71.9469 125.328 71.9221 125.32 71.8956C125.313 71.8693 125.311 71.8418 125.314 71.8146C125.318 71.7875 125.327 71.7612 125.34 71.7375C125.354 71.7137 125.372 71.6929 125.394 71.6762C125.415 71.6595 125.44 71.6473 125.466 71.6403C125.784 71.5491 126.118 71.5352 126.442 71.5997C126.765 71.6642 127.069 71.8053 127.327 72.0112C127.366 72.0509 127.388 72.1044 127.388 72.1601C127.388 72.2158 127.366 72.2693 127.327 72.3091C127.305 72.3312 127.278 72.3486 127.249 72.3601C127.219 72.3716 127.188 72.377 127.157 72.376Z" fill="#263238"/>
<path d="M113.343 75.3673C113.458 79.0153 114.802 83.3747 112.631 85.527C112.631 85.527 113.641 88.792 119.623 88.792C126.208 88.792 122.663 85.527 122.663 85.527C119.015 84.6697 119.015 82.0006 119.557 79.4956L113.343 75.3673Z" fill="#FFB573"/>
<path d="M111.087 86.6458C110.576 85.6122 110.048 84.0193 111.087 83.6484C112.248 83.241 118.189 82.2074 122.7 83.6484C122.463 84.1509 122.335 84.6977 122.325 85.2531C122.315 85.8084 122.422 86.3597 122.639 86.8708L111.087 86.6458Z" fill="#7E57C2"/>
<path d="M106.479 237.102C106.092 237.101 105.707 237.06 105.329 236.98C105.309 236.975 105.291 236.965 105.277 236.95C105.263 236.934 105.253 236.915 105.25 236.895C105.245 236.875 105.246 236.855 105.254 236.836C105.262 236.817 105.275 236.802 105.293 236.791C105.342 236.755 106.509 235.934 107.166 236.068C107.236 236.082 107.303 236.111 107.362 236.153C107.421 236.195 107.47 236.249 107.506 236.311C107.558 236.384 107.587 236.471 107.587 236.56C107.587 236.65 107.558 236.737 107.506 236.81C107.363 236.924 107.198 237.009 107.022 237.059C106.845 237.109 106.661 237.124 106.479 237.102ZM105.615 236.822C106.278 236.937 107.178 236.931 107.36 236.688C107.36 236.688 107.433 236.591 107.33 236.421C107.307 236.382 107.277 236.349 107.24 236.323C107.203 236.298 107.161 236.281 107.117 236.275C106.574 236.307 106.052 236.497 105.615 236.822Z" fill="#7E57C2"/>
<path d="M105.354 236.974H105.299C105.282 236.964 105.268 236.95 105.258 236.933C105.249 236.916 105.244 236.896 105.244 236.877C105.244 236.822 105.305 235.557 105.798 235.132C105.858 235.08 105.929 235.041 106.005 235.018C106.082 234.995 106.162 234.988 106.241 234.998C106.322 234.997 106.401 235.024 106.463 235.075C106.525 235.126 106.567 235.198 106.582 235.278C106.679 235.77 105.84 236.731 105.402 236.974H105.354ZM106.168 235.186C106.082 235.187 105.999 235.222 105.937 235.284C105.644 235.685 105.481 236.167 105.469 236.664C105.901 236.323 106.436 235.6 106.381 235.308C106.381 235.308 106.381 235.211 106.217 235.192L106.168 235.186Z" fill="#7E57C2"/>
<path d="M129.637 237.102C129.183 237.1 128.729 237.059 128.281 236.98C128.261 236.975 128.243 236.965 128.229 236.95C128.215 236.934 128.205 236.915 128.202 236.895C128.199 236.874 128.202 236.852 128.21 236.833C128.219 236.813 128.233 236.797 128.251 236.785C128.47 236.658 130.428 235.539 130.902 236.311C130.95 236.378 130.976 236.459 130.976 236.542C130.976 236.625 130.95 236.706 130.902 236.773C130.744 237.023 130.203 237.102 129.637 237.102ZM128.616 236.822C129.443 236.937 130.561 236.925 130.75 236.652C130.75 236.652 130.811 236.566 130.719 236.421C130.452 235.983 129.266 236.481 128.628 236.822H128.616Z" fill="#7E57C2"/>
<path d="M128.306 236.974C128.286 236.98 128.265 236.98 128.245 236.974C128.23 236.965 128.218 236.951 128.21 236.935C128.202 236.918 128.2 236.9 128.202 236.883C128.202 236.834 128.275 235.667 128.81 235.186C128.888 235.116 128.98 235.064 129.079 235.032C129.179 235.001 129.284 234.991 129.388 235.004C129.68 235.034 129.765 235.18 129.783 235.302C129.868 235.813 128.871 236.743 128.342 236.986L128.306 236.974ZM129.309 235.186C129.176 235.187 129.049 235.237 128.95 235.326C128.638 235.714 128.455 236.191 128.427 236.688C128.956 236.366 129.643 235.624 129.589 235.32C129.589 235.29 129.589 235.211 129.37 235.192L129.309 235.186Z" fill="#7E57C2"/>
<path d="M123.46 236.877H127.868L127.911 226.674H123.503L123.46 236.877Z" fill="#FFB573"/>
<path d="M100.301 236.877H104.709L106.527 226.674H102.125L100.301 236.877Z" fill="#FFB573"/>
<path d="M105.001 236.366H100.052C99.9656 236.367 99.8821 236.398 99.8157 236.453C99.7493 236.509 99.7039 236.585 99.6872 236.67L98.9698 240.585C98.9547 240.682 98.961 240.781 98.9881 240.875C99.0153 240.97 99.0626 241.057 99.1268 241.131C99.191 241.205 99.2706 241.264 99.3601 241.304C99.4495 241.345 99.5466 241.365 99.6446 241.364C101.371 241.364 102.21 241.236 104.387 241.236C105.725 241.236 108.485 241.376 110.339 241.376C112.194 241.376 112.358 239.552 111.592 239.382C108.169 238.64 106.849 237.612 105.731 236.639C105.528 236.464 105.269 236.367 105.001 236.366Z" fill="#263238"/>
<path d="M127.819 236.366H123.004C122.918 236.366 122.835 236.397 122.769 236.452C122.703 236.508 122.66 236.585 122.645 236.67L121.94 240.585C121.923 240.682 121.927 240.78 121.953 240.875C121.979 240.969 122.025 241.056 122.088 241.131C122.151 241.205 122.23 241.264 122.319 241.305C122.408 241.345 122.505 241.365 122.603 241.364C124.342 241.364 126.859 241.236 129.023 241.236C131.577 241.236 133.784 241.376 136.775 241.376C138.599 241.376 139.013 239.552 138.253 239.382C134.775 238.628 131.96 238.549 128.908 236.712C128.584 236.498 128.207 236.378 127.819 236.366Z" fill="#263238"/>
<path d="M104.223 86.5181C100.131 87.4666 95.8324 98.7267 95.8324 98.7267L104.344 104.405C106.297 101.444 108.009 98.3315 109.464 95.097C111.707 89.9411 108.412 85.5818 104.223 86.5181Z" fill="#7E57C2"/>
<path opacity="0.3" d="M104.223 86.5181C100.131 87.4666 95.8324 98.7267 95.8324 98.7267L104.344 104.405C106.297 101.444 108.009 98.3315 109.464 95.097C111.707 89.9411 108.412 85.5818 104.223 86.5181Z" fill="black"/>
<path opacity="0.2" d="M107.463 93.6986L103.943 104.138L104.344 104.405C104.344 104.405 105.95 102.028 107.658 98.8119L107.463 93.6986Z" fill="black"/>
<path d="M131.704 106.199C131.674 111.118 131.376 117.234 130.647 124.822H107.08C106.776 121.211 108.369 103.542 104.229 86.5181C106.819 86.0159 109.439 85.6828 112.072 85.521C115.407 85.3324 118.751 85.3324 122.086 85.521C124.389 85.7535 126.672 86.16 128.914 86.737C128.914 86.737 130.926 88.9258 131.54 99.1584C131.668 101.183 131.723 103.512 131.704 106.199Z" fill="#7E57C2"/>
<path opacity="0.3" d="M131.704 106.199C131.674 111.118 131.376 117.234 130.647 124.822H107.08C106.776 121.211 108.369 103.542 104.229 86.5181C106.819 86.0159 109.439 85.6828 112.072 85.521C115.407 85.3324 118.751 85.3324 122.086 85.521C124.389 85.7535 126.672 86.16 128.914 86.737C128.914 86.737 130.926 88.9258 131.54 99.1584C131.668 101.183 131.723 103.512 131.704 106.199Z" fill="black"/>
<path opacity="0.2" d="M131.704 106.199C128.154 108.297 125.406 101.11 127.309 95.9664L131.565 99.1645C131.668 101.183 131.723 103.512 131.704 106.199Z" fill="black"/>
<path d="M124.372 90.008C123.278 94.0573 130.89 105.67 130.89 105.67L139.481 100.879C138.101 97.2098 136.287 93.7192 134.076 90.4823C130.415 85.4602 125.588 85.4419 124.372 90.008Z" fill="#7E57C2"/>
<path opacity="0.3" d="M124.372 90.008C123.278 94.0573 130.89 105.67 130.89 105.67L139.481 100.879C138.101 97.2098 136.287 93.7192 134.076 90.4823C130.415 85.4602 125.588 85.4419 124.372 90.008Z" fill="black"/>
<path opacity="0.2" d="M127.91 226.68L127.886 231.934H123.478L123.502 226.68H127.91Z" fill="black"/>
<path opacity="0.2" d="M102.125 226.68H106.527L105.591 231.934H101.183L102.125 226.68Z" fill="black"/>
<path d="M115.191 69.3359C114.012 73.5555 113.106 75.9631 114.425 78.8815C114.839 79.8351 115.506 80.657 116.354 81.2578C117.202 81.8586 118.199 82.2154 119.236 82.2894C120.272 82.3634 121.31 82.1517 122.235 81.6773C123.159 81.203 123.936 80.4842 124.481 79.599C126.64 76.2367 128.208 69.871 124.798 66.6972C124.08 65.986 123.187 65.4765 122.21 65.2202C121.233 64.964 120.205 64.9699 119.231 65.2376C118.257 65.5052 117.37 66.025 116.661 66.7445C115.952 67.4641 115.445 68.3579 115.191 69.3359Z" fill="#FFB573"/>
<path d="M114.449 64.3929C112.388 63.864 110.528 65.2076 110.698 70.3088C110.868 75.4099 112.303 76.9968 113.008 78.3465C113.714 79.6963 113.787 78.5046 116.577 79.3923C118.493 80.0003 120.469 73.7926 122.986 73.7561C125.782 73.7136 123.393 69.0198 123.393 69.0198C124.001 70.023 130.014 70.704 126.5 66.1926C123.387 62.198 112.34 61.4624 114.449 64.3929Z" fill="#263238"/>
<path d="M110.388 70.1142C110.388 70.1142 124.232 68.6915 127.175 66.8432C127.041 63.1161 125.071 60.903 124.348 60.3801C123.624 59.8573 117.422 59.6505 115.975 60.0579C114.528 60.4652 110.564 62.5568 110.102 63.4201C109.64 64.2835 110.388 70.1142 110.388 70.1142Z" fill="#7E57C2"/>
<path d="M124.22 67.9132C122.706 69.0441 116.559 73.9932 108.631 72.9596C100.703 71.926 110.686 69.7858 110.686 69.7858L124.22 67.9132Z" fill="#7E57C2"/>
<path opacity="0.4" d="M124.22 67.9132C122.706 69.0441 116.559 73.9932 108.631 72.9596C100.703 71.926 110.686 69.7858 110.686 69.7858L124.22 67.9132Z" fill="white"/>
<path d="M120.262 72.6738C120.141 73.7721 120.376 74.8802 120.931 75.8354C121.672 77.0879 122.755 76.6502 123.162 75.4098C123.521 74.2972 123.569 72.303 122.554 71.47C121.539 70.637 120.42 71.3666 120.262 72.6738Z" fill="#FFB573"/>
<path d="M122.287 124.822C122.287 124.822 118.584 158.487 116.328 171.103C113.86 184.911 107.603 230.894 107.603 230.894H99.5352C99.5352 230.894 101.967 186.005 103.183 172.331C104.472 157.49 107.105 124.798 107.105 124.798L122.287 124.822Z" fill="#7E57C2"/>
<path d="M108.777 227.945C108.813 227.945 108.065 231.046 108.065 231.046H98.9879L99.0426 228.279L108.777 227.945Z" fill="#263238"/>
<path opacity="0.2" d="M119.587 136.818C113.854 137.949 115.294 159.508 116.419 170.598C117.787 162.761 119.642 147.677 120.894 136.976C120.489 136.775 120.028 136.719 119.587 136.818Z" fill="black"/>
<path d="M130.647 124.822C130.647 124.822 132.525 157.758 132.562 171.194C132.604 185.178 129.491 230.918 129.491 230.918H122.025C122.025 230.918 120.019 185.981 119.155 172.258C118.219 157.302 115.155 124.834 115.155 124.834L130.647 124.822Z" fill="#7E57C2"/>
<path d="M130.811 227.945C130.847 227.945 130.507 231.046 130.507 231.046H121.429L121.077 228.279L130.811 227.945Z" fill="#263238"/>
<path d="M151.957 89.327L167.637 95.9664V89.327H151.957Z" fill="#7E57C2"/>
<path d="M245.838 61.0306H178.034C173.487 61.0306 169.802 64.7164 169.802 69.263V171.76C169.802 176.306 173.487 179.992 178.034 179.992H245.838C250.385 179.992 254.071 176.306 254.071 171.76V69.263C254.071 64.7164 250.385 61.0306 245.838 61.0306Z" fill="#263238"/>
<path d="M243.674 61.0306H175.87C171.323 61.0306 167.637 64.7164 167.637 69.263V171.76C167.637 176.306 171.323 179.992 175.87 179.992H243.674C248.22 179.992 251.906 176.306 251.906 171.76V69.263C251.906 64.7164 248.22 61.0306 243.674 61.0306Z" fill="#7E57C2"/>
<path opacity="0.8" d="M251.906 95.9663H167.637V166.184H251.906V95.9663Z" fill="#FAFAFA"/>
<path d="M179.895 75.6834C179.185 75.6834 178.492 75.4731 177.902 75.0789C177.312 74.6847 176.852 74.1245 176.58 73.469C176.309 72.8135 176.238 72.0923 176.376 71.3964C176.515 70.7006 176.856 70.0614 177.358 69.5597C177.86 69.058 178.499 68.7164 179.195 68.578C179.891 68.4395 180.612 68.5106 181.267 68.7821C181.923 69.0536 182.483 69.5134 182.877 70.1033C183.271 70.6932 183.482 71.3868 183.482 72.0962C183.482 73.0476 183.104 73.96 182.431 74.6328C181.758 75.3055 180.846 75.6834 179.895 75.6834ZM179.895 69.1474C179.31 69.1462 178.738 69.3187 178.251 69.6429C177.764 69.9671 177.384 70.4285 177.16 70.9687C176.935 71.5089 176.876 72.1035 176.99 72.6773C177.104 73.251 177.385 73.7781 177.799 74.1917C178.213 74.6053 178.74 74.8869 179.314 75.0007C179.887 75.1145 180.482 75.0555 181.022 74.8311C181.562 74.6067 182.024 74.227 182.348 73.7402C182.672 73.2533 182.845 72.6812 182.843 72.0962C182.839 71.3173 182.526 70.572 181.973 70.0229C181.421 69.4738 180.674 69.1657 179.895 69.1657V69.1474Z" fill="#FAFAFA"/>
<path d="M190.364 75.6834C189.655 75.6846 188.96 75.4753 188.37 75.0818C187.779 74.6884 187.318 74.1286 187.046 73.4732C186.773 72.8178 186.701 72.0964 186.839 71.4001C186.977 70.7039 187.318 70.0641 187.82 69.5619C188.321 69.0596 188.96 68.7173 189.656 68.5784C190.352 68.4395 191.074 68.5102 191.73 68.7815C192.385 69.0528 192.946 69.5126 193.34 70.1027C193.735 70.6927 193.945 71.3865 193.945 72.0962C193.945 73.0466 193.568 73.9581 192.897 74.6306C192.225 75.3032 191.315 75.6818 190.364 75.6834ZM190.364 69.1474C189.779 69.1462 189.207 69.3187 188.72 69.6429C188.233 69.9671 187.854 70.4285 187.629 70.9687C187.405 71.5089 187.346 72.1035 187.46 72.6773C187.574 73.251 187.855 73.7781 188.269 74.1917C188.682 74.6053 189.209 74.8869 189.783 75.0007C190.357 75.1145 190.952 75.0555 191.492 74.8311C192.032 74.6067 192.493 74.227 192.818 73.7402C193.142 73.2533 193.314 72.6812 193.313 72.0962C193.307 71.3178 192.993 70.5734 192.441 70.0247C191.889 69.4759 191.143 69.1672 190.364 69.1657V69.1474Z" fill="#FAFAFA"/>
<path d="M200.828 75.6834C200.118 75.6834 199.425 75.4731 198.835 75.0789C198.245 74.6847 197.785 74.1245 197.514 73.469C197.242 72.8135 197.171 72.0923 197.31 71.3964C197.448 70.7006 197.79 70.0614 198.291 69.5597C198.793 69.058 199.432 68.7164 200.128 68.578C200.824 68.4395 201.545 68.5106 202.201 68.7821C202.856 69.0536 203.416 69.5134 203.811 70.1033C204.205 70.6932 204.415 71.3868 204.415 72.0962C204.415 73.0476 204.037 73.96 203.364 74.6328C202.692 75.3055 201.779 75.6834 200.828 75.6834ZM200.828 69.1474C200.243 69.1474 199.672 69.3209 199.186 69.6459C198.7 69.9708 198.321 70.4326 198.097 70.9729C197.874 71.5132 197.816 72.1077 197.93 72.681C198.045 73.2544 198.327 73.7809 198.741 74.1939C199.155 74.6069 199.682 74.8878 200.255 75.0012C200.829 75.1145 201.423 75.0551 201.963 74.8305C202.503 74.6059 202.964 74.2263 203.288 73.7395C203.612 73.2528 203.784 72.6809 203.783 72.0962C203.776 71.3168 203.462 70.5714 202.909 70.0225C202.355 69.4736 201.607 69.1656 200.828 69.1657V69.1474Z" fill="#FAFAFA"/>
<path d="M205.947 172.933C205.947 173.276 205.846 173.611 205.655 173.896C205.465 174.181 205.194 174.403 204.878 174.534C204.561 174.665 204.213 174.699 203.876 174.633C203.54 174.566 203.232 174.401 202.989 174.158C202.747 173.916 202.582 173.607 202.515 173.271C202.448 172.935 202.482 172.587 202.614 172.27C202.745 171.953 202.967 171.683 203.252 171.492C203.537 171.302 203.872 171.2 204.214 171.2C204.442 171.2 204.668 171.244 204.879 171.331C205.089 171.417 205.28 171.545 205.442 171.706C205.603 171.867 205.73 172.058 205.817 172.269C205.904 172.48 205.948 172.705 205.947 172.933Z" fill="#FAFAFA"/>
<path d="M211.504 172.933C211.504 173.276 211.403 173.611 211.212 173.896C211.022 174.181 210.751 174.403 210.435 174.534C210.118 174.665 209.77 174.699 209.434 174.633C209.097 174.566 208.789 174.401 208.546 174.158C208.304 173.916 208.139 173.607 208.072 173.271C208.005 172.935 208.04 172.587 208.171 172.27C208.302 171.953 208.524 171.683 208.809 171.492C209.094 171.302 209.429 171.2 209.772 171.2C209.999 171.2 210.225 171.244 210.436 171.331C210.646 171.417 210.838 171.545 210.999 171.706C211.16 171.867 211.287 172.058 211.374 172.269C211.461 172.48 211.505 172.705 211.504 172.933Z" fill="#FAFAFA"/>
<path d="M217.062 172.933C217.062 173.276 216.96 173.611 216.77 173.896C216.579 174.181 216.308 174.403 215.992 174.534C215.675 174.665 215.327 174.699 214.991 174.633C214.655 174.566 214.346 174.401 214.103 174.158C213.861 173.916 213.696 173.607 213.629 173.271C213.562 172.935 213.597 172.587 213.728 172.27C213.859 171.953 214.081 171.683 214.366 171.492C214.651 171.302 214.986 171.2 215.329 171.2C215.788 171.2 216.229 171.383 216.554 171.708C216.879 172.033 217.062 172.474 217.062 172.933Z" fill="#FAFAFA"/>
<path d="M193.848 101.171H175.371C173.974 101.171 172.842 102.303 172.842 103.7V122.177C172.842 123.574 173.974 124.706 175.371 124.706H193.848C195.245 124.706 196.377 123.574 196.377 122.177V103.7C196.377 102.303 195.245 101.171 193.848 101.171Z" fill="#7E57C2"/>
<path opacity="0.3" d="M184.613 114.194C187.178 114.194 189.258 112.114 189.258 109.549C189.258 106.984 187.178 104.904 184.613 104.904C182.047 104.904 179.968 106.984 179.968 109.549C179.968 112.114 182.047 114.194 184.613 114.194Z" fill="white"/>
<path opacity="0.3" d="M184.613 116.146C180.965 116.146 177.882 117.818 176.848 120.122C176.771 120.306 176.739 120.505 176.757 120.704C176.774 120.902 176.84 121.093 176.949 121.26C177.058 121.427 177.206 121.565 177.38 121.661C177.554 121.757 177.75 121.809 177.949 121.812H191.252C191.451 121.809 191.646 121.757 191.821 121.661C191.995 121.565 192.143 121.427 192.252 121.26C192.361 121.093 192.427 120.902 192.444 120.704C192.462 120.505 192.43 120.306 192.352 120.122C191.337 117.806 188.255 116.146 184.613 116.146Z" fill="white"/>
<path opacity="0.7" d="M241.57 158.195H177.973C176.612 158.195 175.307 157.655 174.345 156.692C173.382 155.73 172.842 154.425 172.842 153.064C172.842 151.703 173.382 150.397 174.345 149.435C175.307 148.473 176.612 147.932 177.973 147.932H241.57C242.244 147.932 242.912 148.065 243.535 148.323C244.158 148.582 244.724 148.96 245.201 149.437C245.677 149.914 246.055 150.481 246.313 151.104C246.57 151.727 246.702 152.395 246.702 153.07C246.7 154.43 246.159 155.733 245.196 156.694C244.234 157.655 242.93 158.195 241.57 158.195Z" fill="white"/>
<path opacity="0.2" d="M241.57 143.129H177.973C176.612 143.129 175.307 142.588 174.345 141.626C173.382 140.664 172.842 139.358 172.842 137.997C172.842 136.636 173.382 135.331 174.345 134.369C175.307 133.406 176.612 132.866 177.973 132.866H241.57C242.931 132.866 244.236 133.406 245.199 134.369C246.161 135.331 246.702 136.636 246.702 137.997C246.702 139.358 246.161 140.664 245.199 141.626C244.236 142.588 242.931 143.129 241.57 143.129Z" fill="#7E57C2"/>
<path d="M202.214 108.655H246.55V105.536H202.214V108.655Z" fill="white"/>
<path d="M202.214 114.498H246.55V111.379H202.214V114.498Z" fill="white"/>
<path d="M202.208 120.341H237.655V117.222H202.208V120.341Z" fill="white"/>
</svg>
