<svg width="540" height="402" viewBox="0 0 540 402" fill="none" xmlns="http://www.w3.org/2000/svg">
<path d="M540 353.271H0V353.541H540V353.271Z" fill="#E0E0E0"/>
<path d="M458.039 368.41H446.58V368.68H458.039V368.41Z" fill="#E0E0E0"/>
<path d="M438.653 368.54H392.051V368.81H438.653V368.54Z" fill="#E0E0E0"/>
<path d="M334.443 365.971H255.798V366.241H334.443V365.971Z" fill="#E0E0E0"/>
<path d="M210.557 370.655H185.598V370.925H210.557V370.655Z" fill="#E0E0E0"/>
<path d="M127.386 366.101H93.0205V366.371H127.386V366.101Z" fill="#E0E0E0"/>
<path d="M165.499 366.101H133.38V366.371H165.499V366.101Z" fill="#E0E0E0"/>
<path d="M103.313 361.386H70.5132V361.656H103.313V361.386Z" fill="#E0E0E0"/>
<path d="M255.96 305.147H47.4226C45.7889 305.144 44.2232 304.494 43.069 303.339C41.9148 302.184 41.2666 300.618 41.2666 298.986V6.10726C41.2808 4.48444 41.9353 2.93276 43.088 1.78925C44.2406 0.645749 45.7982 0.00277998 47.4226 0H255.96C257.595 0 259.164 0.649126 260.32 1.80458C261.477 2.96003 262.127 4.52715 262.127 6.16121V298.986C262.127 300.62 261.477 302.187 260.32 303.343C259.164 304.498 257.595 305.147 255.96 305.147ZM47.4226 0.215805C45.8605 0.218663 44.3634 0.840628 43.2599 1.94518C42.1564 3.04973 41.5366 4.54662 41.5366 6.10726V298.986C41.5366 300.547 42.1564 302.043 43.2599 303.148C44.3634 304.253 45.8605 304.874 47.4226 304.877H255.96C257.523 304.874 259.021 304.253 260.126 303.149C261.232 302.044 261.854 300.548 261.857 298.986V6.10726C261.854 4.54562 261.232 3.04877 260.126 1.94452C259.021 0.840277 257.523 0.218657 255.96 0.215805H47.4226Z" fill="#E0E0E0"/>
<path d="M489.575 305.147H281.027C279.392 305.144 277.825 304.494 276.669 303.339C275.513 302.185 274.863 300.619 274.86 298.986V6.10726C274.877 4.48345 275.534 2.93178 276.688 1.78858C277.843 0.645372 279.401 0.00274966 281.027 0H489.575C491.197 0.00561576 492.752 0.649839 493.902 1.79304C495.053 2.93624 495.706 4.4863 495.72 6.10726V298.986C495.72 300.616 495.073 302.18 493.921 303.335C492.769 304.49 491.206 305.141 489.575 305.147ZM281.027 0.215805C279.464 0.218657 277.965 0.840277 276.86 1.94452C275.755 3.04877 275.133 4.54562 275.13 6.10726V298.986C275.133 300.548 275.755 302.044 276.86 303.149C277.965 304.253 279.464 304.874 281.027 304.877H489.575C491.138 304.874 492.636 304.253 493.741 303.149C494.846 302.044 495.469 300.548 495.471 298.986V6.10726C495.469 4.54562 494.846 3.04877 493.741 1.94452C492.636 0.840277 491.138 0.218657 489.575 0.215805H281.027Z" fill="#E0E0E0"/>
<path d="M464.918 22.0875H72.9214C68.436 22.0875 64.7998 25.7204 64.7998 30.2018V324.235C64.7998 328.716 68.436 332.349 72.9214 332.349H464.918C469.404 332.349 473.04 328.716 473.04 324.235V30.2018C473.04 25.7204 469.404 22.0875 464.918 22.0875Z" fill="#E0E0E0"/>
<path d="M467.078 22.0875H75.0816C70.5961 22.0875 66.96 25.7204 66.96 30.2018V324.235C66.96 328.716 70.5961 332.349 75.0816 332.349H467.078C471.564 332.349 475.2 328.716 475.2 324.235V30.2018C475.2 25.7204 471.564 22.0875 467.078 22.0875Z" fill="#EBEBEB"/>
<path d="M66.96 43.0637V324.235C66.9685 326.383 67.8273 328.441 69.3488 329.959C70.8704 331.478 72.9312 332.333 75.0816 332.338H467.122C469.274 332.333 471.336 331.476 472.858 329.956C474.38 328.435 475.237 326.375 475.243 324.224V43.0637H66.96Z" fill="#E0E0E0"/>
<path d="M473.699 53.854H68.4609V321.559H473.699V53.854Z" fill="#FAFAFA"/>
<path d="M459.367 297.065H82.7927C82.7574 297.063 82.7244 297.047 82.7003 297.021C82.6763 296.995 82.663 296.96 82.6631 296.925V71.2154C82.6631 71.1984 82.6664 71.1816 82.6729 71.1659C82.6795 71.1502 82.689 71.1359 82.701 71.1239C82.7131 71.1118 82.7274 71.1023 82.7431 71.0958C82.7588 71.0893 82.7757 71.0859 82.7927 71.0859H459.367C459.401 71.0859 459.434 71.0996 459.459 71.1239C459.483 71.1481 459.497 71.1811 459.497 71.2154V296.925C459.498 296.943 459.496 296.961 459.49 296.978C459.484 296.995 459.475 297.01 459.463 297.024C459.451 297.037 459.436 297.047 459.419 297.055C459.403 297.062 459.385 297.065 459.367 297.065ZM82.9331 296.796H459.227V71.3557H82.9331V296.796Z" fill="#E0E0E0"/>
<path d="M84.7799 37.496C83.8187 37.496 82.8791 37.2112 82.0799 36.6777C81.2806 36.1441 80.6577 35.3858 80.2899 34.4985C79.922 33.6113 79.8258 32.635 80.0133 31.6931C80.2008 30.7512 80.6637 29.886 81.3434 29.207C82.0231 28.5279 82.889 28.0654 83.8318 27.8781C84.7745 27.6907 85.7517 27.7869 86.6398 28.1544C87.5278 28.5219 88.2868 29.1443 88.8209 29.9428C89.3549 30.7413 89.6399 31.68 89.6399 32.6404C89.6371 33.9273 89.1241 35.1607 88.2133 36.0707C87.3025 36.9806 86.068 37.4931 84.7799 37.496ZM84.7799 28.8638C84.0323 28.8638 83.3015 29.0853 82.6799 29.5003C82.0583 29.9153 81.5738 30.5051 81.2877 31.1952C81.0016 31.8852 80.9267 32.6446 81.0726 33.3772C81.2184 34.1097 81.5784 34.7827 82.1071 35.3108C82.6357 35.839 83.3092 36.1987 84.0425 36.3444C84.7757 36.4901 85.5358 36.4153 86.2265 36.1295C86.9172 35.8436 87.5075 35.3596 87.9229 34.7385C88.3382 34.1175 88.5599 33.3873 88.5599 32.6404C88.5599 31.6388 88.1617 30.6782 87.4528 29.9699C86.7439 29.2617 85.7824 28.8638 84.7799 28.8638Z" fill="#FAFAFA"/>
<path d="M100.084 37.496C99.1224 37.496 98.1828 37.2112 97.3836 36.6777C96.5843 36.1441 95.9614 35.3858 95.5936 34.4985C95.2257 33.6113 95.1295 32.635 95.317 31.6931C95.5045 30.7512 95.9674 29.886 96.6471 29.207C97.3268 28.5279 98.1927 28.0654 99.1355 27.8781C100.078 27.6907 101.055 27.7869 101.943 28.1544C102.832 28.5219 103.591 29.1443 104.125 29.9428C104.659 30.7413 104.944 31.68 104.944 32.6404C104.941 33.9273 104.428 35.1607 103.517 36.0707C102.606 36.9806 101.372 37.4931 100.084 37.496ZM100.084 28.8638C99.336 28.8638 98.6052 29.0853 97.9836 29.5003C97.362 29.9153 96.8775 30.5051 96.5914 31.1952C96.3053 31.8852 96.2304 32.6446 96.3763 33.3772C96.5221 34.1097 96.8821 34.7827 97.4108 35.3108C97.9394 35.839 98.6129 36.1987 99.3462 36.3444C100.079 36.4901 100.839 36.4153 101.53 36.1295C102.221 35.8436 102.811 35.3596 103.227 34.7385C103.642 34.1175 103.864 33.3873 103.864 32.6404C103.864 31.6388 103.465 30.6782 102.756 29.9699C102.048 29.2617 101.086 28.8638 100.084 28.8638Z" fill="#FAFAFA"/>
<path d="M115.398 37.496C114.437 37.496 113.497 37.2112 112.698 36.6777C111.899 36.1441 111.276 35.3858 110.908 34.4985C110.54 33.6113 110.444 32.635 110.631 31.6931C110.819 30.7512 111.282 29.886 111.962 29.207C112.641 28.5279 113.507 28.0654 114.45 27.8781C115.393 27.6907 116.37 27.7869 117.258 28.1544C118.146 28.5219 118.905 29.1443 119.439 29.9428C119.973 30.7413 120.258 31.68 120.258 32.6404C120.255 33.9273 119.742 35.1607 118.831 36.0707C117.921 36.9806 116.686 37.4931 115.398 37.496ZM115.398 28.8638C114.65 28.8638 113.92 29.0853 113.298 29.5003C112.676 29.9153 112.192 30.5051 111.906 31.1952C111.62 31.8852 111.545 32.6446 111.691 33.3772C111.837 34.1097 112.197 34.7827 112.725 35.3108C113.254 35.839 113.927 36.1987 114.661 36.3444C115.394 36.4901 116.154 36.4153 116.845 36.1295C117.535 35.8436 118.126 35.3596 118.541 34.7385C118.956 34.1175 119.178 33.3873 119.178 32.6404C119.178 31.6388 118.78 30.6782 118.071 29.9699C117.362 29.2617 116.401 28.8638 115.398 28.8638Z" fill="#FAFAFA"/>
<path d="M475.2 42.5242H66.96V43.6042H475.2V42.5242Z" fill="#E0E0E0"/>
<path d="M290.077 80.4518H103.324V270.618H290.077V80.4518Z" fill="#EBEBEB"/>
<path d="M450.122 80.4518H326.819V142.312H450.122V80.4518Z" fill="#EBEBEB"/>
<path d="M349.92 117.613C357.674 117.613 363.96 111.333 363.96 103.586C363.96 95.8389 357.674 89.5587 349.92 89.5587C342.166 89.5587 335.88 95.8389 335.88 103.586C335.88 111.333 342.166 117.613 349.92 117.613Z" fill="#FAFAFA"/>
<path d="M437.756 89.5587H376.92V95.3099H437.756V89.5587Z" fill="#FAFAFA"/>
<path d="M416.405 100.112H376.92V105.863H416.405V100.112Z" fill="#FAFAFA"/>
<path d="M450.122 165.446H326.819V321.559H450.122V165.446Z" fill="#EBEBEB"/>
<path d="M384.89 177.218H332.294V229.767H384.89V177.218Z" fill="#FAFAFA"/>
<path d="M385.301 236.446H332.705V288.994H385.301V236.446Z" fill="#FAFAFA"/>
<path d="M444.658 177.218H392.062V205.089H444.658V177.218Z" fill="#FAFAFA"/>
<path d="M444.658 211.779H392.062V264.328H444.658V211.779Z" fill="#FAFAFA"/>
<path d="M385.301 295.285H332.705V321.559H385.301V295.285Z" fill="#FAFAFA"/>
<path d="M444.658 270.618H392.062V321.559H444.658V270.618Z" fill="#FAFAFA"/>
<path d="M270 402C385.649 402 479.401 396.531 479.401 389.785C479.401 383.04 385.649 377.571 270 377.571C154.351 377.571 60.5986 383.04 60.5986 389.785C60.5986 396.531 154.351 402 270 402Z" fill="#F5F5F5"/>
<path d="M292.971 328.227H96.5195C91.187 328.227 86.8643 332.546 86.8643 337.874V372.888C86.8643 378.216 91.187 382.534 96.5195 382.534H292.971C298.304 382.534 302.627 378.216 302.627 372.888V337.874C302.627 332.546 298.304 328.227 292.971 328.227Z" fill="#7E57C2"/>
<path d="M295.25 330.504H98.7983C93.4658 330.504 89.1431 334.823 89.1431 340.15V375.165C89.1431 380.492 93.4658 384.811 98.7983 384.811H295.25C300.583 384.811 304.905 380.492 304.905 375.165V340.15C304.905 334.823 300.583 330.504 295.25 330.504Z" fill="#7E57C2"/>
<path opacity="0.6" d="M295.25 330.504H98.7983C93.4658 330.504 89.1431 334.823 89.1431 340.15V375.165C89.1431 380.492 93.4658 384.811 98.7983 384.811H295.25C300.583 384.811 304.905 380.492 304.905 375.165V340.15C304.905 334.823 300.583 330.504 295.25 330.504Z" fill="#FAFAFA"/>
<path d="M297.529 332.781H101.077C95.7446 332.781 91.4219 337.1 91.4219 342.427V377.452C91.4219 382.78 95.7446 387.099 101.077 387.099H297.529C302.861 387.099 307.184 382.78 307.184 377.452V342.427C307.184 337.1 302.861 332.781 297.529 332.781Z" fill="#7E57C2"/>
<path opacity="0.8" d="M297.529 332.781H101.077C95.7446 332.781 91.4219 337.1 91.4219 342.427V377.452C91.4219 382.78 95.7446 387.099 101.077 387.099H297.529C302.861 387.099 307.184 382.78 307.184 377.452V342.427C307.184 337.1 302.861 332.781 297.529 332.781Z" fill="#FAFAFA"/>
<path d="M254.437 341.963H149.558C148.419 341.963 147.496 342.886 147.496 344.024V348.124C147.496 349.263 148.419 350.185 149.558 350.185H254.437C255.576 350.185 256.5 349.263 256.5 348.124V344.024C256.5 342.886 255.576 341.963 254.437 341.963Z" fill="#7E57C2"/>
<path d="M196.538 355.829H149.558C148.419 355.829 147.496 356.751 147.496 357.89V361.99C147.496 363.128 148.419 364.051 149.558 364.051H196.538C197.678 364.051 198.601 363.128 198.601 361.99V357.89C198.601 356.751 197.678 355.829 196.538 355.829Z" fill="#7E57C2"/>
<path d="M241.898 355.829H205.837C204.698 355.829 203.774 356.751 203.774 357.89V361.99C203.774 363.128 204.698 364.051 205.837 364.051H241.898C243.038 364.051 243.961 363.128 243.961 361.99V357.89C243.961 356.751 243.038 355.829 241.898 355.829Z" fill="#7E57C2"/>
<path d="M275.4 369.694H148.619C147.998 369.694 147.496 370.197 147.496 370.816V371.669C147.496 372.288 147.998 372.791 148.619 372.791H275.4C276.02 372.791 276.523 372.288 276.523 371.669V370.816C276.523 370.197 276.02 369.694 275.4 369.694Z" fill="#7E57C2"/>
<path opacity="0.5" d="M275.4 369.694H148.619C147.998 369.694 147.496 370.197 147.496 370.816V371.669C147.496 372.288 147.998 372.791 148.619 372.791H275.4C276.02 372.791 276.523 372.288 276.523 371.669V370.816C276.523 370.197 276.02 369.694 275.4 369.694Z" fill="#FAFAFA"/>
<path d="M136.472 364.439C138.949 354.044 132.522 343.612 122.118 341.138C111.714 338.663 101.273 345.084 98.7959 355.478C96.3192 365.873 102.746 376.305 113.15 378.78C123.553 381.254 133.995 374.834 136.472 364.439Z" fill="#7E57C2"/>
<path d="M133.617 359.94C133.617 363.098 132.68 366.186 130.924 368.812C129.167 371.438 126.671 373.485 123.75 374.694C120.83 375.902 117.616 376.219 114.515 375.602C111.415 374.986 108.566 373.465 106.331 371.232C104.096 368.998 102.573 366.153 101.957 363.055C101.34 359.957 101.656 356.747 102.866 353.828C104.076 350.91 106.125 348.416 108.753 346.662C111.382 344.907 114.472 343.97 117.633 343.97C119.738 343.952 121.825 344.352 123.772 345.148C125.72 345.944 127.49 347.119 128.978 348.606C130.466 350.093 131.642 351.86 132.439 353.806C133.236 355.752 133.636 357.837 133.617 359.94Z" fill="#FAFAFA"/>
<path d="M131.684 367.547C130.311 370.069 128.282 372.175 125.811 373.642C123.34 375.109 120.519 375.884 117.644 375.884C114.77 375.884 111.949 375.109 109.478 373.642C107.007 372.175 104.978 370.069 103.604 367.547C107.763 364.779 112.648 363.303 117.644 363.303C122.641 363.303 127.526 364.779 131.684 367.547Z" fill="#7E57C2"/>
<path opacity="0.7" d="M131.684 367.547C130.311 370.069 128.282 372.175 125.811 373.642C123.34 375.109 120.519 375.884 117.644 375.884C114.77 375.884 111.949 375.109 109.478 373.642C107.007 372.175 104.978 370.069 103.604 367.547C107.763 364.779 112.648 363.303 117.644 363.303C122.641 363.303 127.526 364.779 131.684 367.547Z" fill="#FAFAFA"/>
<path d="M117.633 361.591C121.564 361.591 124.751 358.407 124.751 354.48C124.751 350.553 121.564 347.369 117.633 347.369C113.703 347.369 110.516 350.553 110.516 354.48C110.516 358.407 113.703 361.591 117.633 361.591Z" fill="#7E57C2"/>
<path opacity="0.7" d="M117.633 361.591C121.564 361.591 124.751 358.407 124.751 354.48C124.751 350.553 121.564 347.369 117.633 347.369C113.703 347.369 110.516 350.553 110.516 354.48C110.516 358.407 113.703 361.591 117.633 361.591Z" fill="#FAFAFA"/>
<path d="M292.971 265.385H96.5195C91.187 265.385 86.8643 269.704 86.8643 275.032V310.046C86.8643 315.373 91.187 319.692 96.5195 319.692H292.971C298.304 319.692 302.627 315.373 302.627 310.046V275.032C302.627 269.704 298.304 265.385 292.971 265.385Z" fill="#7E57C2"/>
<path d="M295.25 267.662H98.7983C93.4658 267.662 89.1431 271.981 89.1431 277.308V312.333C89.1431 317.661 93.4658 321.98 98.7983 321.98H295.25C300.583 321.98 304.905 317.661 304.905 312.333V277.308C304.905 271.981 300.583 267.662 295.25 267.662Z" fill="#7E57C2"/>
<path opacity="0.6" d="M295.25 267.662H98.7983C93.4658 267.662 89.1431 271.981 89.1431 277.308V312.333C89.1431 317.661 93.4658 321.98 98.7983 321.98H295.25C300.583 321.98 304.905 317.661 304.905 312.333V277.308C304.905 271.981 300.583 267.662 295.25 267.662Z" fill="#FAFAFA"/>
<path d="M297.529 269.939H101.077C95.7446 269.939 91.4219 274.257 91.4219 279.585V314.599C91.4219 319.927 95.7446 324.246 101.077 324.246H297.529C302.861 324.246 307.184 319.927 307.184 314.599V279.585C307.184 274.257 302.861 269.939 297.529 269.939Z" fill="#7E57C2"/>
<path opacity="0.8" d="M297.529 269.939H101.077C95.7446 269.939 91.4219 274.257 91.4219 279.585V314.599C91.4219 319.927 95.7446 324.246 101.077 324.246H297.529C302.861 324.246 307.184 319.927 307.184 314.599V279.585C307.184 274.257 302.861 269.939 297.529 269.939Z" fill="#FAFAFA"/>
<path d="M180.814 279.121H149.558C148.419 279.121 147.496 280.044 147.496 281.182V285.282C147.496 286.421 148.419 287.343 149.558 287.343H180.814C181.953 287.343 182.876 286.421 182.876 285.282V281.182C182.876 280.044 181.953 279.121 180.814 279.121Z" fill="#7E57C2"/>
<path d="M213.667 279.121H189.529C188.39 279.121 187.466 280.044 187.466 281.182V285.282C187.466 286.421 188.39 287.343 189.529 287.343H213.667C214.806 287.343 215.73 286.421 215.73 285.282V281.182C215.73 280.044 214.806 279.121 213.667 279.121Z" fill="#7E57C2"/>
<path d="M259.297 292.986H149.558C148.419 292.986 147.496 293.909 147.496 295.047V299.148C147.496 300.286 148.419 301.209 149.558 301.209H259.297C260.436 301.209 261.36 300.286 261.36 299.148V295.047C261.36 293.909 260.436 292.986 259.297 292.986Z" fill="#7E57C2"/>
<path d="M225.137 306.852H148.619C147.998 306.852 147.496 307.354 147.496 307.974V308.827C147.496 309.446 147.998 309.949 148.619 309.949H225.137C225.757 309.949 226.26 309.446 226.26 308.827V307.974C226.26 307.354 225.757 306.852 225.137 306.852Z" fill="#7E57C2"/>
<path opacity="0.5" d="M225.137 306.852H148.619C147.998 306.852 147.496 307.354 147.496 307.974V308.827C147.496 309.446 147.998 309.949 148.619 309.949H225.137C225.757 309.949 226.26 309.446 226.26 308.827V307.974C226.26 307.354 225.757 306.852 225.137 306.852Z" fill="#FAFAFA"/>
<path d="M136.475 301.6C138.952 291.205 132.526 280.773 122.122 278.299C111.718 275.824 101.276 282.245 98.7993 292.639C96.3227 303.034 102.749 313.466 113.153 315.941C123.557 318.415 133.999 311.994 136.475 301.6Z" fill="#7E57C2"/>
<path d="M133.617 297.098C133.617 300.256 132.68 303.344 130.924 305.97C129.167 308.596 126.671 310.643 123.75 311.851C120.83 313.06 117.616 313.376 114.515 312.76C111.415 312.144 108.566 310.623 106.331 308.39C104.096 306.156 102.573 303.311 101.957 300.213C101.34 297.115 101.656 293.904 102.866 290.986C104.076 288.068 106.125 285.574 108.753 283.819C111.382 282.065 114.472 281.128 117.633 281.128C119.738 281.109 121.825 281.51 123.772 282.306C125.72 283.101 127.49 284.277 128.978 285.764C130.466 287.25 131.642 289.018 132.439 290.964C133.236 292.91 133.636 294.995 133.617 297.098Z" fill="#FAFAFA"/>
<path d="M131.684 304.705C130.311 307.227 128.282 309.333 125.811 310.8C123.34 312.267 120.519 313.041 117.644 313.041C114.77 313.041 111.949 312.267 109.478 310.8C107.007 309.333 104.978 307.227 103.604 304.705C107.763 301.937 112.648 300.461 117.644 300.461C122.641 300.461 127.526 301.937 131.684 304.705Z" fill="#7E57C2"/>
<path opacity="0.7" d="M131.684 304.705C130.311 307.227 128.282 309.333 125.811 310.8C123.34 312.267 120.519 313.041 117.644 313.041C114.77 313.041 111.949 312.267 109.478 310.8C107.007 309.333 104.978 307.227 103.604 304.705C107.763 301.937 112.648 300.461 117.644 300.461C122.641 300.461 127.526 301.937 131.684 304.705Z" fill="#FAFAFA"/>
<path d="M117.633 298.748C121.564 298.748 124.751 295.565 124.751 291.638C124.751 287.711 121.564 284.527 117.633 284.527C113.703 284.527 110.516 287.711 110.516 291.638C110.516 295.565 113.703 298.748 117.633 298.748Z" fill="#7E57C2"/>
<path opacity="0.7" d="M117.633 298.748C121.564 298.748 124.751 295.565 124.751 291.638C124.751 287.711 121.564 284.527 117.633 284.527C113.703 284.527 110.516 287.711 110.516 291.638C110.516 295.565 113.703 298.748 117.633 298.748Z" fill="#FAFAFA"/>
<path d="M292.971 202.543H96.5195C91.187 202.543 86.8643 206.862 86.8643 212.189V247.214C86.8643 252.542 91.187 256.861 96.5195 256.861H292.971C298.304 256.861 302.627 252.542 302.627 247.214V212.189C302.627 206.862 298.304 202.543 292.971 202.543Z" fill="#7E57C2"/>
<path d="M295.25 204.82H98.7983C93.4658 204.82 89.1431 209.139 89.1431 214.466V249.48C89.1431 254.808 93.4658 259.127 98.7983 259.127H295.25C300.583 259.127 304.905 254.808 304.905 249.48V214.466C304.905 209.139 300.583 204.82 295.25 204.82Z" fill="#7E57C2"/>
<path opacity="0.6" d="M295.25 204.82H98.7983C93.4658 204.82 89.1431 209.139 89.1431 214.466V249.48C89.1431 254.808 93.4658 259.127 98.7983 259.127H295.25C300.583 259.127 304.905 254.808 304.905 249.48V214.466C304.905 209.139 300.583 204.82 295.25 204.82Z" fill="#FAFAFA"/>
<path d="M297.529 207.096H101.077C95.7446 207.096 91.4219 211.415 91.4219 216.743V251.768C91.4219 257.095 95.7446 261.414 101.077 261.414H297.529C302.861 261.414 307.184 257.095 307.184 251.768V216.743C307.184 211.415 302.861 207.096 297.529 207.096Z" fill="#7E57C2"/>
<path opacity="0.8" d="M297.529 207.096H101.077C95.7446 207.096 91.4219 211.415 91.4219 216.743V251.768C91.4219 257.095 95.7446 261.414 101.077 261.414H297.529C302.861 261.414 307.184 257.095 307.184 251.768V216.743C307.184 211.415 302.861 207.096 297.529 207.096Z" fill="#FAFAFA"/>
<path d="M253.66 216.279H149.558C148.419 216.279 147.496 217.202 147.496 218.34V222.44C147.496 223.578 148.419 224.501 149.558 224.501H253.66C254.799 224.501 255.722 223.578 255.722 222.44V218.34C255.722 217.202 254.799 216.279 253.66 216.279Z" fill="#7E57C2"/>
<path d="M218.614 230.144H149.558C148.419 230.144 147.496 231.067 147.496 232.205V236.305C147.496 237.444 148.419 238.366 149.558 238.366H218.614C219.753 238.366 220.676 237.444 220.676 236.305V232.205C220.676 231.067 219.753 230.144 218.614 230.144Z" fill="#7E57C2"/>
<path d="M235.267 230.144H228.852C227.713 230.144 226.789 231.067 226.789 232.205V236.305C226.789 237.444 227.713 238.366 228.852 238.366H235.267C236.406 238.366 237.33 237.444 237.33 236.305V232.205C237.33 231.067 236.406 230.144 235.267 230.144Z" fill="#7E57C2"/>
<path d="M204.314 244.01H148.619C147.998 244.01 147.496 244.512 147.496 245.132V245.984C147.496 246.604 147.998 247.107 148.619 247.107H204.314C204.935 247.107 205.438 246.604 205.438 245.984V245.132C205.438 244.512 204.935 244.01 204.314 244.01Z" fill="#7E57C2"/>
<path opacity="0.5" d="M204.314 244.01H148.619C147.998 244.01 147.496 244.512 147.496 245.132V245.984C147.496 246.604 147.998 247.107 148.619 247.107H204.314C204.935 247.107 205.438 246.604 205.438 245.984V245.132C205.438 244.512 204.935 244.01 204.314 244.01Z" fill="#FAFAFA"/>
<path d="M276.318 244.01H212.457C211.837 244.01 211.334 244.512 211.334 245.132V245.984C211.334 246.604 211.837 247.107 212.457 247.107H276.318C276.938 247.107 277.441 246.604 277.441 245.984V245.132C277.441 244.512 276.938 244.01 276.318 244.01Z" fill="#7E57C2"/>
<path opacity="0.5" d="M276.318 244.01H212.457C211.837 244.01 211.334 244.512 211.334 245.132V245.984C211.334 246.604 211.837 247.107 212.457 247.107H276.318C276.938 247.107 277.441 246.604 277.441 245.984V245.132C277.441 244.512 276.938 244.01 276.318 244.01Z" fill="#FAFAFA"/>
<path d="M131.328 247.931C138.89 240.376 138.89 228.126 131.328 220.57C123.766 213.015 111.505 213.015 103.943 220.57C96.3804 228.126 96.3804 240.376 103.943 247.931C111.505 255.486 123.766 255.486 131.328 247.931Z" fill="#7E57C2"/>
<path d="M133.617 234.255C133.617 237.414 132.68 240.501 130.924 243.128C129.167 245.754 126.671 247.801 123.75 249.009C120.83 250.218 117.616 250.534 114.515 249.918C111.415 249.302 108.566 247.781 106.331 245.548C104.096 243.314 102.573 240.469 101.957 237.371C101.34 234.273 101.656 231.062 102.866 228.144C104.076 225.226 106.125 222.732 108.753 220.977C111.382 219.223 114.472 218.286 117.633 218.286C119.738 218.267 121.825 218.668 123.772 219.463C125.72 220.259 127.49 221.435 128.978 222.922C130.466 224.408 131.642 226.176 132.439 228.122C133.236 230.068 133.636 232.153 133.617 234.255Z" fill="#FAFAFA"/>
<path d="M131.684 241.862C130.311 244.385 128.282 246.491 125.811 247.958C123.34 249.425 120.519 250.199 117.644 250.199C114.77 250.199 111.949 249.425 109.478 247.958C107.007 246.491 104.978 244.385 103.604 241.862C107.763 239.095 112.648 237.618 117.644 237.618C122.641 237.618 127.526 239.095 131.684 241.862Z" fill="#7E57C2"/>
<path opacity="0.7" d="M131.684 241.862C130.311 244.385 128.282 246.491 125.811 247.958C123.34 249.425 120.519 250.199 117.644 250.199C114.77 250.199 111.949 249.425 109.478 247.958C107.007 246.491 104.978 244.385 103.604 241.862C107.763 239.095 112.648 237.618 117.644 237.618C122.641 237.618 127.526 239.095 131.684 241.862Z" fill="#FAFAFA"/>
<path d="M124.751 228.752C124.748 230.158 124.329 231.532 123.546 232.7C122.762 233.868 121.65 234.778 120.349 235.314C119.049 235.851 117.618 235.99 116.238 235.714C114.858 235.439 113.591 234.761 112.597 233.766C111.603 232.771 110.926 231.504 110.652 230.125C110.378 228.746 110.52 227.317 111.059 226.018C111.598 224.719 112.51 223.609 113.68 222.828C114.851 222.048 116.226 221.631 117.633 221.631C118.569 221.631 119.495 221.815 120.359 222.173C121.224 222.531 122.009 223.056 122.67 223.717C123.331 224.379 123.855 225.164 124.212 226.028C124.569 226.892 124.752 227.818 124.751 228.752Z" fill="#7E57C2"/>
<path opacity="0.7" d="M124.751 228.752C124.748 230.158 124.329 231.532 123.546 232.7C122.762 233.868 121.65 234.778 120.349 235.314C119.049 235.851 117.618 235.99 116.238 235.714C114.858 235.439 113.591 234.761 112.597 233.766C111.603 232.771 110.926 231.504 110.652 230.125C110.378 228.746 110.52 227.317 111.059 226.018C111.598 224.719 112.51 223.609 113.68 222.828C114.851 222.048 116.226 221.631 117.633 221.631C118.569 221.631 119.495 221.815 120.359 222.173C121.224 222.531 122.009 223.056 122.67 223.717C123.331 224.379 123.855 225.164 124.212 226.028C124.569 226.892 124.752 227.818 124.751 228.752Z" fill="#FAFAFA"/>
<path d="M140.767 73.082H135.842V74.162H140.767V73.082Z" fill="#7E57C2"/>
<path d="M128.045 73.082H116.402V74.162H128.045V73.082Z" fill="#7E57C2"/>
<path d="M292.971 76.8586H96.5195C91.187 76.8586 86.8643 81.1775 86.8643 86.5051V121.53C86.8643 126.858 91.187 131.177 96.5195 131.177H292.971C298.304 131.177 302.627 126.858 302.627 121.53V86.5051C302.627 81.1775 298.304 76.8586 292.971 76.8586Z" fill="#7E57C2"/>
<path d="M295.25 79.1354H98.7983C93.4658 79.1354 89.1431 83.4542 89.1431 88.7818V123.807C89.1431 129.134 93.4658 133.453 98.7983 133.453H295.25C300.583 133.453 304.905 129.134 304.905 123.807V88.7818C304.905 83.4542 300.583 79.1354 295.25 79.1354Z" fill="#7E57C2"/>
<path opacity="0.6" d="M295.25 79.1354H98.7983C93.4658 79.1354 89.1431 83.4542 89.1431 88.7818V123.807C89.1431 129.134 93.4658 133.453 98.7983 133.453H295.25C300.583 133.453 304.905 129.134 304.905 123.807V88.7818C304.905 83.4542 300.583 79.1354 295.25 79.1354Z" fill="#FAFAFA"/>
<path d="M297.529 81.4121H101.077C95.7446 81.4121 91.4219 85.731 91.4219 91.0586V126.084C91.4219 131.411 95.7446 135.73 101.077 135.73H297.529C302.861 135.73 307.184 131.411 307.184 126.084V91.0586C307.184 85.731 302.861 81.4121 297.529 81.4121Z" fill="#7E57C2"/>
<path opacity="0.8" d="M297.529 81.4121H101.077C95.7446 81.4121 91.4219 85.731 91.4219 91.0586V126.084C91.4219 131.411 95.7446 135.73 101.077 135.73H297.529C302.861 135.73 307.184 131.411 307.184 126.084V91.0586C307.184 85.731 302.861 81.4121 297.529 81.4121Z" fill="#FAFAFA"/>
<path d="M245.074 90.5946H149.558C148.419 90.5946 147.496 91.5173 147.496 92.6555V96.7558C147.496 97.894 148.419 98.8167 149.558 98.8167H245.074C246.213 98.8167 247.136 97.894 247.136 96.7558V92.6555C247.136 91.5173 246.213 90.5946 245.074 90.5946Z" fill="#7E57C2"/>
<path d="M278.014 104.46H149.558C148.419 104.46 147.496 105.383 147.496 106.521V110.621C147.496 111.759 148.419 112.682 149.558 112.682H278.014C279.153 112.682 280.076 111.759 280.076 110.621V106.521C280.076 105.383 279.153 104.46 278.014 104.46Z" fill="#7E57C2"/>
<path d="M183.676 118.325H148.619C147.998 118.325 147.496 118.828 147.496 119.448V120.3C147.496 120.92 147.998 121.422 148.619 121.422H183.676C184.296 121.422 184.799 120.92 184.799 120.3V119.448C184.799 118.828 184.296 118.325 183.676 118.325Z" fill="#7E57C2"/>
<path opacity="0.5" d="M183.676 118.325H148.619C147.998 118.325 147.496 118.828 147.496 119.448V120.3C147.496 120.92 147.998 121.422 148.619 121.422H183.676C184.296 121.422 184.799 120.92 184.799 120.3V119.448C184.799 118.828 184.296 118.325 183.676 118.325Z" fill="#FAFAFA"/>
<path d="M136.475 113.061C138.951 102.667 132.525 92.2342 122.121 89.7598C111.717 87.2854 101.275 93.706 98.7988 104.1C96.3222 114.495 102.749 124.927 113.152 127.402C123.556 129.876 133.998 123.456 136.475 113.061Z" fill="#7E57C2"/>
<path d="M133.617 108.571C133.617 111.73 132.68 114.817 130.924 117.443C129.167 120.069 126.671 122.116 123.75 123.325C120.83 124.534 117.616 124.85 114.515 124.234C111.415 123.618 108.566 122.097 106.331 119.863C104.096 117.63 102.573 114.784 101.957 111.687C101.34 108.589 101.656 105.378 102.866 102.46C104.076 99.5418 106.125 97.0477 108.753 95.293C111.382 93.5382 114.472 92.6016 117.633 92.6016C119.735 92.5916 121.818 92.9978 123.762 93.7968C125.706 94.5958 127.472 95.7718 128.958 97.2567C130.444 98.7416 131.621 100.506 132.421 102.448C133.221 104.39 133.627 106.471 133.617 108.571Z" fill="#FAFAFA"/>
<path d="M131.684 116.178C130.311 118.701 128.282 120.806 125.811 122.273C123.34 123.74 120.519 124.515 117.644 124.515C114.77 124.515 111.949 123.74 109.478 122.273C107.007 120.806 104.978 118.701 103.604 116.178C107.763 113.411 112.648 111.934 117.644 111.934C122.641 111.934 127.526 113.411 131.684 116.178Z" fill="#7E57C2"/>
<path opacity="0.7" d="M131.684 116.178C130.311 118.701 128.282 120.806 125.811 122.273C123.34 123.74 120.519 124.515 117.644 124.515C114.77 124.515 111.949 123.74 109.478 122.273C107.007 120.806 104.978 118.701 103.604 116.178C107.763 113.411 112.648 111.934 117.644 111.934C122.641 111.934 127.526 113.411 131.684 116.178Z" fill="#FAFAFA"/>
<path d="M117.633 110.211C121.564 110.211 124.751 107.028 124.751 103.1C124.751 99.1732 121.564 95.9896 117.633 95.9896C113.703 95.9896 110.516 99.1732 110.516 103.1C110.516 107.028 113.703 110.211 117.633 110.211Z" fill="#7E57C2"/>
<path opacity="0.7" d="M117.633 110.211C121.564 110.211 124.751 107.028 124.751 103.1C124.751 99.1732 121.564 95.9896 117.633 95.9896C113.703 95.9896 110.516 99.1732 110.516 103.1C110.516 107.028 113.703 110.211 117.633 110.211Z" fill="#FAFAFA"/>
<path d="M431.06 222.397L423.976 226.076L431.914 232.238C431.914 232.238 437.249 227.771 435.154 224.685L431.06 222.397Z" fill="#E4897B"/>
<path d="M419.926 233.576L426.697 238.28L431.914 232.238L423.976 226.076L419.926 233.576Z" fill="#E4897B"/>
<path d="M433.804 161.206C434.776 162.479 435.607 163.623 436.45 164.864C437.292 166.104 438.091 167.302 438.89 168.532C440.467 171.014 441.968 173.56 443.351 176.172C444.769 178.81 446.052 181.518 447.196 184.286L448.049 186.444L448.816 188.602C449.086 189.314 449.291 190.069 449.518 190.814L449.852 191.893L449.928 192.174L450.058 192.638C450.14 192.972 450.205 193.311 450.252 193.652C450.503 195.696 450.356 197.77 449.82 199.759C449.421 201.353 448.912 202.918 448.297 204.442C447.156 207.236 445.828 209.95 444.323 212.567C441.439 217.632 438.156 222.459 434.506 227.004L429.538 223.767C431.924 218.793 434.257 213.668 436.298 208.661C437.298 206.216 438.167 203.72 438.901 201.183C439.24 200.045 439.496 198.884 439.668 197.709C439.809 196.946 439.809 196.163 439.668 195.4C439.668 195.4 439.668 195.465 439.668 195.4L439.582 195.184L439.225 194.288C438.998 193.695 438.782 193.112 438.502 192.519L437.724 190.749L436.871 188.969C435.69 186.617 434.423 184.279 433.069 181.955C431.698 179.646 430.283 177.337 428.749 175.071C427.216 172.805 425.693 170.507 424.246 168.424L433.804 161.206Z" fill="#E4897B"/>
<path d="M448.556 177.769L430.769 190.231C430.769 190.231 429.689 187.901 428.188 184.502C426.967 181.793 425.444 178.416 423.932 175.006C423.317 173.625 422.712 172.244 422.118 170.895C418.003 161.529 422.809 154.785 431.255 156.037C438.696 157.149 448.556 177.769 448.556 177.769Z" fill="#222222"/>
<path d="M429.041 164.799C429.387 168.144 429.419 178.492 428.188 184.502C426.967 181.793 425.445 178.416 423.933 175.006L429.041 164.799Z" fill="#7E57C2"/>
<path opacity="0.8" d="M429.041 164.799C429.387 168.144 429.419 178.492 428.188 184.502C426.967 181.793 425.445 178.416 423.933 175.006L429.041 164.799Z" fill="#7E57C2"/>
<g opacity="0.8">
<path opacity="0.8" d="M429.041 164.799C429.387 168.144 429.419 178.492 428.188 184.502C426.967 181.793 425.445 178.416 423.933 175.006L429.041 164.799Z" fill="#222222"/>
<path opacity="0.8" d="M429.041 164.799C429.387 168.144 429.419 178.492 428.188 184.502C426.967 181.793 425.445 178.416 423.933 175.006L429.041 164.799Z" fill="#222222"/>
</g>
<path d="M455.652 249.653L265.81 199.198C263.344 198.525 261.243 196.909 259.962 194.699C258.68 192.49 258.321 189.865 258.962 187.394L267.97 153.555C268.65 151.098 270.271 149.007 272.481 147.733C274.692 146.459 277.315 146.105 279.785 146.747L469.627 197.191C472.095 197.864 474.198 199.482 475.48 201.694C476.761 203.905 477.119 206.533 476.474 209.006L467.467 242.78C466.8 245.249 465.186 247.356 462.974 248.643C460.761 249.929 458.13 250.293 455.652 249.653Z" fill="#7E57C2"/>
<path opacity="0.8" d="M455.652 249.653L265.81 199.198C263.344 198.525 261.243 196.909 259.962 194.699C258.68 192.49 258.321 189.865 258.962 187.394L267.97 153.555C268.65 151.098 270.271 149.007 272.481 147.733C274.692 146.459 277.315 146.105 279.785 146.747L469.627 197.191C472.095 197.864 474.198 199.482 475.48 201.694C476.761 203.905 477.119 206.533 476.474 209.006L467.467 242.78C466.8 245.249 465.186 247.356 462.974 248.643C460.761 249.929 458.13 250.293 455.652 249.653Z" fill="#FAFAFA"/>
<path d="M457.261 252.491L267.429 201.982C264.962 201.311 262.858 199.696 261.575 197.486C260.291 195.277 259.931 192.651 260.571 190.177L269.589 156.35C270.261 153.885 271.877 151.783 274.089 150.501C276.301 149.218 278.929 148.858 281.405 149.498L471.236 199.953C473.704 200.624 475.807 202.239 477.091 204.449C478.375 206.658 478.735 209.284 478.094 211.758L469.087 245.596C468.425 248.071 466.811 250.185 464.595 251.477C462.38 252.768 459.744 253.133 457.261 252.491Z" fill="#7E57C2"/>
<path opacity="0.4" d="M457.261 252.491L267.429 201.982C264.962 201.311 262.858 199.696 261.575 197.486C260.291 195.277 259.931 192.651 260.571 190.177L269.589 156.35C270.261 153.885 271.877 151.783 274.089 150.501C276.301 149.218 278.929 148.858 281.405 149.498L471.236 199.953C473.704 200.624 475.807 202.239 477.091 204.449C478.375 206.658 478.735 209.284 478.094 211.758L469.087 245.596C468.425 248.071 466.811 250.185 464.595 251.477C462.38 252.768 459.744 253.133 457.261 252.491Z" fill="#FAFAFA"/>
<path d="M458.881 255.232L269.05 204.776C266.582 204.106 264.479 202.491 263.195 200.281C261.911 198.071 261.551 195.445 262.192 192.972L271.199 159.134C271.872 156.668 273.492 154.567 275.705 153.287C277.919 152.006 280.549 151.649 283.025 152.293L472.856 202.737C475.338 203.407 477.453 205.032 478.739 207.257C480.024 209.481 480.375 212.124 479.714 214.606L470.696 248.434C470.014 250.889 468.392 252.978 466.182 254.249C463.972 255.521 461.349 255.874 458.881 255.232Z" fill="#7E57C2"/>
<path opacity="0.2" d="M458.881 255.232L269.05 204.776C266.582 204.106 264.479 202.491 263.195 200.281C261.911 198.071 261.551 195.445 262.192 192.972L271.199 159.134C271.872 156.668 273.492 154.567 275.705 153.287C277.919 152.006 280.549 151.649 283.025 152.293L472.856 202.737C475.338 203.407 477.453 205.032 478.739 207.257C480.024 209.481 480.375 212.124 479.714 214.606L470.696 248.434C470.014 250.889 468.392 252.978 466.182 254.249C463.972 255.521 461.349 255.874 458.881 255.232Z" fill="#222222"/>
<path d="M448.187 205.723L327.485 173.636C326.384 173.343 325.254 173.997 324.961 175.097L323.906 179.06C323.613 180.16 324.268 181.289 325.369 181.581L446.071 213.669C447.172 213.961 448.302 213.307 448.595 212.207L449.65 208.245C449.943 207.145 449.288 206.016 448.187 205.723Z" fill="#7E57C2"/>
<path opacity="0.7" d="M448.187 205.723L327.485 173.636C326.384 173.343 325.254 173.997 324.961 175.097L323.906 179.06C323.613 180.16 324.268 181.289 325.369 181.581L446.071 213.669C447.172 213.961 448.302 213.307 448.595 212.207L449.65 208.245C449.943 207.145 449.288 206.016 448.187 205.723Z" fill="#FAFAFA"/>
<path d="M400.165 207.295L323.924 187.027C322.823 186.734 321.693 187.389 321.4 188.489L320.344 192.451C320.052 193.551 320.707 194.68 321.808 194.973L398.049 215.241C399.15 215.533 400.28 214.879 400.573 213.779L401.628 209.816C401.921 208.716 401.266 207.588 400.165 207.295Z" fill="#7E57C2"/>
<path opacity="0.7" d="M400.165 207.295L323.924 187.027C322.823 186.734 321.693 187.389 321.4 188.489L320.344 192.451C320.052 193.551 320.707 194.68 321.808 194.973L398.049 215.241C399.15 215.533 400.28 214.879 400.573 213.779L401.628 209.816C401.921 208.716 401.266 207.588 400.165 207.295Z" fill="#FAFAFA"/>
<path d="M430.693 229.752L319.447 200.178C318.847 200.019 318.232 200.375 318.073 200.974L317.853 201.798C317.694 202.397 318.05 203.012 318.65 203.171L429.896 232.745C430.496 232.904 431.111 232.548 431.27 231.949L431.49 231.125C431.649 230.526 431.293 229.911 430.693 229.752Z" fill="#FAFAFA"/>
<path d="M307.161 193.037C313.257 184.275 311.09 172.235 302.32 166.145C293.55 160.054 281.499 162.22 275.403 170.981C269.307 179.743 271.475 191.783 280.245 197.874C289.014 203.964 301.065 201.799 307.161 193.037Z" fill="#7E57C2"/>
<path d="M307.476 186.886C306.663 189.938 304.962 192.681 302.589 194.767C300.216 196.854 297.277 198.19 294.144 198.608C291.011 199.026 287.824 198.506 284.986 197.114C282.148 195.722 279.788 193.521 278.202 190.789C276.616 188.057 275.877 184.916 276.078 181.764C276.279 178.612 277.411 175.591 279.33 173.081C281.25 170.572 283.871 168.688 286.863 167.667C289.854 166.646 293.081 166.534 296.136 167.345C298.172 167.873 300.083 168.799 301.758 170.069C303.432 171.34 304.838 172.931 305.893 174.748C306.948 176.566 307.631 178.575 307.903 180.659C308.175 182.742 308.03 184.859 307.476 186.886Z" fill="#FAFAFA"/>
<path d="M303.653 193.738C301.679 195.836 299.173 197.362 296.401 198.152C293.63 198.943 290.696 198.97 287.91 198.23C285.125 197.49 282.592 196.011 280.579 193.949C278.567 191.887 277.15 189.32 276.48 186.52C281.215 184.911 286.321 184.739 291.154 186.023C295.987 187.308 300.332 189.992 303.642 193.738H303.653Z" fill="#7E57C2"/>
<path opacity="0.7" d="M303.653 193.738C301.679 195.836 299.173 197.362 296.401 198.152C293.63 198.943 290.696 198.97 287.91 198.23C285.125 197.49 282.592 196.011 280.579 193.949C278.567 191.887 277.15 189.32 276.48 186.52C281.215 184.911 286.321 184.739 291.154 186.023C295.987 187.308 300.332 189.992 303.642 193.738H303.653Z" fill="#FAFAFA"/>
<path d="M300.315 179.333C299.953 180.691 299.195 181.912 298.138 182.84C297.081 183.768 295.773 184.362 294.378 184.548C292.983 184.733 291.565 184.502 290.302 183.882C289.039 183.262 287.988 182.283 287.282 181.067C286.576 179.85 286.247 178.453 286.336 177.05C286.425 175.647 286.928 174.302 287.782 173.184C288.636 172.067 289.802 171.227 291.133 170.772C292.464 170.317 293.901 170.266 295.261 170.626C296.166 170.865 297.014 171.28 297.758 171.847C298.502 172.415 299.126 173.123 299.596 173.932C300.065 174.741 300.37 175.634 300.494 176.561C300.617 177.488 300.557 178.43 300.315 179.333Z" fill="#7E57C2"/>
<path opacity="0.7" d="M300.315 179.333C299.953 180.691 299.195 181.912 298.138 182.84C297.081 183.768 295.773 184.362 294.378 184.548C292.983 184.733 291.565 184.502 290.302 183.882C289.039 183.262 287.988 182.283 287.282 181.067C286.576 179.85 286.247 178.453 286.336 177.05C286.425 175.647 286.928 174.302 287.782 173.184C288.636 172.067 289.802 171.227 291.133 170.772C292.464 170.317 293.901 170.266 295.261 170.626C296.166 170.865 297.014 171.28 297.758 171.847C298.502 172.415 299.126 173.123 299.596 173.932C300.065 174.741 300.37 175.634 300.494 176.561C300.617 177.488 300.557 178.43 300.315 179.333Z" fill="#FAFAFA"/>
<path d="M420.055 132.849C418.036 138.352 415.249 148.581 418.619 153.005C418.619 153.005 416.146 158.519 405.583 156.825C393.963 154.958 400.95 150.178 400.95 150.178C407.538 149.682 408.121 144.956 407.733 140.359L420.055 132.849Z" fill="#E4897B"/>
<path d="M398.52 152.012C399.114 151.009 398.585 147.092 398.585 147.092C398.585 147.092 415.39 145.851 421.265 148.333C424.408 149.66 421.265 155.249 421.265 155.249L398.52 152.012Z" fill="#7E57C2"/>
<path opacity="0.1" d="M398.52 152.012C399.114 151.009 398.585 147.092 398.585 147.092C398.585 147.092 415.39 145.851 421.265 148.333C424.408 149.66 421.265 155.249 421.265 155.249L398.52 152.012Z" fill="#222222"/>
<path d="M400.68 123.181C400.572 123.807 400.162 124.26 399.751 124.195C399.341 124.131 399.092 123.569 399.19 122.944C399.287 122.318 399.708 121.865 400.118 121.929C400.529 121.994 400.745 122.555 400.68 123.181Z" fill="#222222"/>
<path d="M400.605 123.494C399.552 125.287 398.254 126.925 396.749 128.36C397.124 128.742 397.579 129.037 398.081 129.223C398.583 129.41 399.12 129.483 399.654 129.439L400.605 123.494Z" fill="#DE5753"/>
<path d="M403.207 121.239C403.139 121.242 403.07 121.225 403.011 121.191C402.952 121.157 402.904 121.106 402.872 121.045C402.666 120.624 402.363 120.259 401.987 119.98C401.611 119.7 401.174 119.514 400.712 119.437C400.624 119.416 400.546 119.364 400.493 119.291C400.44 119.217 400.415 119.127 400.423 119.037C400.431 118.946 400.471 118.862 400.536 118.799C400.601 118.735 400.687 118.698 400.777 118.692C401.362 118.782 401.917 119.01 402.396 119.357C402.875 119.704 403.264 120.161 403.531 120.688C403.578 120.776 403.588 120.878 403.559 120.973C403.531 121.068 403.467 121.148 403.38 121.196C403.327 121.225 403.268 121.24 403.207 121.239Z" fill="#222222"/>
<path d="M351.637 371.431L343.839 370.385L344.207 352.063L352.004 353.11L351.637 371.431Z" fill="#E4897B"/>
<path d="M409.849 380.042H401.976L395.853 361.828H403.715L409.849 380.042Z" fill="#E4897B"/>
<path d="M400.929 379.125H410.53C410.685 379.128 410.836 379.182 410.957 379.28C411.078 379.378 411.163 379.513 411.199 379.664L412.754 386.656C412.79 386.826 412.787 387.002 412.745 387.171C412.704 387.34 412.624 387.497 412.513 387.631C412.402 387.765 412.262 387.872 412.104 387.944C411.945 388.016 411.773 388.052 411.599 388.048C408.51 387.994 406.264 387.822 402.376 387.822C399.978 387.822 395.053 388.07 391.749 388.07C388.444 388.07 388.012 384.833 389.362 384.509C395.431 383.182 397.71 381.358 399.654 379.61C400.005 379.297 400.458 379.124 400.929 379.125Z" fill="#222222"/>
<path d="M343.569 368.604L352.091 369.748C352.245 369.77 352.387 369.844 352.493 369.958C352.599 370.072 352.663 370.219 352.674 370.374L353.279 377.506C353.293 377.678 353.269 377.851 353.208 378.012C353.146 378.174 353.049 378.319 352.923 378.437C352.797 378.555 352.646 378.644 352.482 378.696C352.317 378.747 352.143 378.761 351.972 378.736C348.905 378.261 344.498 377.485 340.632 376.967C336.117 376.352 333.072 376.017 327.812 375.305C324.572 374.873 324.162 371.518 325.544 371.399C331.819 370.892 335.901 371.485 341.604 368.95C342.214 368.655 342.895 368.536 343.569 368.604Z" fill="#222222"/>
<path d="M344.207 352.063L344.012 361.515L351.821 362.562L352.004 353.12L344.207 352.063Z" fill="#CE6F64"/>
<path d="M403.726 361.839H395.853L399.017 371.226H406.89L403.726 361.839Z" fill="#CE6F64"/>
<path d="M388.8 150.966C388.8 150.966 376.412 173.248 379.242 218.243L420.941 223.864C422.096 217.509 422.291 185.764 432.54 156.458C428.049 154.943 423.464 153.725 418.813 152.811C412.957 151.668 407.04 150.868 401.09 150.415C396.985 150.278 392.876 150.462 388.8 150.966Z" fill="#222222"/>
<path d="M393.595 162.317C391.867 165.306 390.031 168.198 388.195 171.133L382.611 179.765C380.754 182.657 378.81 185.505 376.855 188.397C375.883 189.821 374.878 191.235 373.874 192.648L372.351 194.806C371.79 195.572 371.131 196.446 370.504 197.169C368.045 199.978 365.333 202.557 362.404 204.874C359.586 207.118 356.724 209.19 353.764 211.132C347.923 214.995 341.829 218.463 335.523 221.512L332.64 216.387C338.04 212.427 343.44 208.251 348.58 204.01C351.14 201.852 353.646 199.694 355.989 197.439C358.274 195.309 360.376 192.992 362.275 190.512C362.728 189.918 363.074 189.433 363.484 188.753L364.813 186.595L367.459 182.279L372.751 173.571L378.043 164.831C379.846 161.939 381.607 159.004 383.443 156.145L393.595 162.317Z" fill="#E4897B"/>
<path d="M397.44 160.537C396.436 167.982 383.4 185.699 383.4 185.699L365.245 170.388C365.245 170.388 374.738 159.781 382.525 153.728C390.312 147.675 398.52 152.358 397.44 160.537Z" fill="#222222"/>
<path d="M336.55 214.142L329.756 216.451L336.56 223.541C336.56 223.541 340.708 223.044 340.33 217.326L336.55 214.142Z" fill="#E4897B"/>
<path d="M325.253 221.847L333.018 225.656L336.561 223.541L329.757 216.452L325.253 221.847Z" fill="#E4897B"/>
<path d="M422.107 124.411C420.401 132.029 419.785 136.572 415.271 139.895C408.467 144.891 399.535 139.895 398.931 131.878C398.38 124.702 401.263 113.459 409.299 111.603C411.066 111.186 412.911 111.228 414.658 111.724C416.404 112.22 417.995 113.154 419.279 114.438C420.562 115.721 421.496 117.311 421.991 119.057C422.486 120.803 422.526 122.646 422.107 124.411Z" fill="#E4897B"/>
<path d="M432.659 124.152C432.558 123.566 432.333 123.008 432 122.515C431.667 122.022 431.232 121.605 430.726 121.293C434.419 119.674 432.572 117.797 429.419 115.056C425.347 111.42 423.652 104.061 423.835 102.485C422.55 104.438 422.896 107.319 423.986 109.909C422.627 108.414 421.532 106.699 420.746 104.838C417.593 96.9284 410.778 103.845 404.201 104.072C393.152 104.449 401.9 98.6764 410.011 98.8491C397.926 95.148 385.873 99.7339 387.839 107.805C389.804 115.876 403.326 105.647 403.25 113.092C403.25 114.603 404.903 116.092 407.354 117.268C403.952 124.26 412.247 138.309 417.074 138.762C421.902 139.215 430.358 130.82 430.715 123.548C431.395 123.624 432.055 123.829 432.659 124.152Z" fill="#222222"/>
<path d="M411.134 126.148C410.653 128.049 409.443 129.685 407.765 130.702C405.518 132.018 403.736 130.184 403.79 127.713C403.844 125.501 405.086 122.134 407.603 121.821C408.154 121.763 408.712 121.843 409.225 122.054C409.738 122.265 410.19 122.6 410.541 123.03C410.891 123.459 411.129 123.97 411.233 124.514C411.336 125.058 411.302 125.62 411.134 126.148Z" fill="#E4897B"/>
<path d="M409.73 369.403H395.28C395.28 369.403 376.25 320.922 374.231 295.77C373.799 290.375 374.663 283.264 376.261 275.614C378.983 262.536 383.821 247.786 387.709 236.769C391.198 227.058 393.995 220.206 393.995 220.206L420.919 223.843C418.273 243.362 396.911 274.406 396.662 301.101C396.457 325.724 409.73 369.403 409.73 369.403Z" fill="#7E57C2"/>
<path opacity="0.1" d="M409.73 369.403H395.28C395.28 369.403 376.25 320.922 374.231 295.77C373.799 290.375 374.663 283.264 376.261 275.614C378.983 262.536 383.821 247.786 387.709 236.769C391.198 227.058 393.995 220.206 393.995 220.206L420.919 223.843C418.273 243.362 396.911 274.406 396.662 301.101C396.457 325.724 409.73 369.403 409.73 369.403Z" fill="#222222"/>
<path d="M394.556 242.898C393.617 255.944 383.573 269.82 376.293 275.614C379.015 262.537 383.853 247.786 387.741 236.77C389.783 236.521 393.012 240.546 394.556 242.898Z" fill="#7E57C2"/>
<path opacity="0.2" d="M394.556 242.898C393.617 255.944 383.573 269.82 376.293 275.614C379.015 262.537 383.853 247.786 387.741 236.77C389.783 236.521 393.012 240.546 394.556 242.898Z" fill="#222222"/>
<path d="M379.242 218.243C379.242 218.243 342.219 267.5 339.854 291.336C337.392 316.153 341.334 359.314 341.334 359.314L354.542 361.094C354.542 361.094 358.527 320.566 362.405 296.353C366.617 269.982 406.685 242.715 409.482 222.3L379.242 218.243Z" fill="#7E57C2"/>
<path opacity="0.1" d="M379.242 218.243C379.242 218.243 342.219 267.5 339.854 291.336C337.392 316.153 341.334 359.314 341.334 359.314L354.542 361.094C354.542 361.094 358.527 320.566 362.405 296.353C366.617 269.982 406.685 242.715 409.482 222.3L379.242 218.243Z" fill="#222222"/>
<path d="M392.764 369.716H411.61V364.644L390.55 364.321L392.764 369.716Z" fill="#7E57C2"/>
<path opacity="0.4" d="M392.764 369.716H411.61V364.644L390.55 364.321L392.764 369.716Z" fill="#FAFAFA"/>
<path d="M338.666 359.228L357.015 361.742L357.696 356.67L337.187 353.584L338.666 359.228Z" fill="#7E57C2"/>
<path opacity="0.4" d="M338.666 359.228L357.015 361.742L357.696 356.67L337.187 353.584L338.666 359.228Z" fill="#FAFAFA"/>
<path d="M398.326 380.506C397.79 380.545 397.256 380.4 396.814 380.096C396.67 379.979 396.559 379.828 396.491 379.656C396.423 379.484 396.4 379.297 396.425 379.114C396.425 379.005 396.455 378.897 396.512 378.804C396.569 378.711 396.651 378.635 396.749 378.585C397.613 378.154 400.162 379.664 400.442 379.88C400.472 379.9 400.496 379.927 400.511 379.96C400.527 379.992 400.533 380.028 400.529 380.063C400.525 380.1 400.509 380.135 400.484 380.162C400.458 380.189 400.425 380.208 400.388 380.215C399.715 380.393 399.022 380.491 398.326 380.506ZM397.159 378.877C397.081 378.858 397 378.858 396.922 378.877C396.922 378.877 396.814 378.952 396.803 379.092C396.785 379.217 396.798 379.345 396.842 379.463C396.885 379.582 396.957 379.688 397.051 379.772C397.932 380.171 398.932 380.221 399.848 379.912C399.027 379.398 398.114 379.046 397.159 378.877Z" fill="#7E57C2"/>
<path d="M400.345 380.225H400.259C399.438 379.783 397.872 378.067 398.034 377.183C398.062 377.045 398.136 376.922 398.244 376.834C398.352 376.745 398.488 376.697 398.628 376.697C398.769 376.676 398.913 376.687 399.049 376.728C399.185 376.769 399.311 376.84 399.417 376.934C400.335 377.679 400.497 379.945 400.497 380.042C400.503 380.076 400.497 380.111 400.482 380.143C400.466 380.174 400.441 380.199 400.41 380.215L400.345 380.225ZM398.758 376.988H398.671C398.434 376.988 398.412 377.129 398.401 377.172C398.304 377.69 399.309 378.995 400.119 379.61C400.059 378.717 399.736 377.861 399.19 377.15C399.064 377.061 398.911 377.018 398.758 377.031V376.988Z" fill="#7E57C2"/>
<path d="M341.582 369.618C340.351 369.618 338.882 369.457 338.342 368.798C338.233 368.669 338.155 368.516 338.115 368.351C338.076 368.186 338.076 368.014 338.116 367.849C338.138 367.749 338.184 367.656 338.25 367.577C338.316 367.498 338.399 367.436 338.494 367.396C339.509 367.007 342.425 369.014 342.76 369.241C342.791 369.263 342.816 369.295 342.829 369.332C342.843 369.368 342.845 369.408 342.835 369.446C342.824 369.483 342.801 369.515 342.77 369.539C342.739 369.562 342.701 369.575 342.662 369.575C342.36 369.597 341.971 369.618 341.582 369.618ZM338.796 367.719C338.729 367.703 338.658 367.703 338.591 367.719C338.553 367.732 338.52 367.754 338.495 367.785C338.47 367.816 338.455 367.853 338.45 367.892C338.422 368 338.42 368.113 338.445 368.222C338.469 368.331 338.519 368.432 338.591 368.518C339.012 369.003 340.297 369.262 342.047 369.198C341.073 368.493 339.968 367.99 338.796 367.719Z" fill="#7E57C2"/>
<path d="M342.619 369.586H342.522C341.636 369.036 340.006 367.104 340.265 366.241C340.319 366.047 340.492 365.81 340.967 365.81H341.021C341.207 365.818 341.39 365.864 341.559 365.943C341.727 366.023 341.879 366.135 342.004 366.274C342.597 367.217 342.877 368.323 342.803 369.435C342.804 369.469 342.796 369.502 342.778 369.53C342.761 369.559 342.736 369.582 342.706 369.597L342.619 369.586ZM340.967 366.155C340.664 366.155 340.632 366.274 340.621 366.317C340.459 366.835 341.55 368.324 342.436 369.036C342.465 368.134 342.216 367.245 341.723 366.489C341.634 366.387 341.525 366.304 341.402 366.247C341.279 366.189 341.146 366.158 341.01 366.155H340.967Z" fill="#7E57C2"/>
</svg>
