<svg width="526" height="272" viewBox="0 0 526 272" fill="none" xmlns="http://www.w3.org/2000/svg">
<path d="M0 5C0 2.23858 2.23858 0 5 0H521C523.761 0 526 2.23858 526 5V272H0V5Z" fill="#F2F2F2"/>
<path d="M415 221.801H111V221.953H415V221.801Z" fill="#E6E6E6"/>
<path d="M395.787 227.164H384.375V227.316H395.787V227.164Z" fill="#E6E6E6"/>
<path d="M343.11 231.334H337.827V231.486H343.11V231.334Z" fill="#E6E6E6"/>
<path d="M292.987 229.237H281.216V229.389H292.987V229.237Z" fill="#E6E6E6"/>
<path d="M186.465 229.158H160.206V229.31H186.465V229.158Z" fill="#E6E6E6"/>
<path d="M154.794 229.158H150.946V229.31H154.794V229.158Z" fill="#E6E6E6"/>
<path d="M283.052 225.558H226.094V225.71H283.052V225.558Z" fill="#E6E6E6"/>
<path d="M255.096 194.684H137.697C136.777 194.683 135.896 194.316 135.246 193.665C134.596 193.014 134.231 192.132 134.231 191.213V26.183C134.239 25.2686 134.608 24.3943 135.257 23.7499C135.906 23.1056 136.783 22.7433 137.697 22.7418H255.096C256.017 22.7418 256.9 23.1075 257.551 23.7586C258.202 24.4097 258.567 25.2927 258.567 26.2134V191.213C258.567 192.133 258.202 193.016 257.551 193.667C256.9 194.318 256.017 194.684 255.096 194.684ZM137.697 22.8634C136.818 22.865 135.975 23.2154 135.354 23.8378C134.732 24.4602 134.383 25.3037 134.383 26.183V191.213C134.383 192.092 134.732 192.935 135.354 193.558C135.975 194.18 136.818 194.531 137.697 194.532H255.096C255.976 194.531 256.819 194.18 257.441 193.558C258.064 192.936 258.414 192.092 258.415 191.213V26.183C258.414 25.3031 258.064 24.4597 257.441 23.8374C256.819 23.2152 255.976 22.865 255.096 22.8634H137.697Z" fill="#E6E6E6"/>
<path d="M386.612 194.684H269.208C268.287 194.683 267.405 194.316 266.754 193.666C266.104 193.015 265.737 192.133 265.736 191.213V26.183C265.745 25.2681 266.115 24.3937 266.765 23.7496C267.415 23.1054 268.292 22.7433 269.208 22.7418H386.612C387.526 22.7449 388.401 23.1079 389.049 23.7521C389.696 24.3962 390.064 25.2697 390.072 26.183V191.213C390.072 192.131 389.708 193.012 389.059 193.663C388.411 194.314 387.531 194.681 386.612 194.684ZM269.208 22.8634C268.328 22.865 267.484 23.2152 266.862 23.8374C266.24 24.4597 265.889 25.3031 265.888 26.183V191.213C265.889 192.092 266.24 192.936 266.862 193.558C267.484 194.18 268.328 194.531 269.208 194.532H386.612C387.492 194.531 388.336 194.18 388.958 193.558C389.58 192.936 389.93 192.092 389.932 191.213V26.183C389.93 25.3031 389.58 24.4597 388.958 23.8374C388.336 23.2152 387.492 22.865 386.612 22.8634H269.208Z" fill="#E6E6E6"/>
<path d="M269.664 34.0992H146.696V121.73H269.664V34.0992Z" fill="#FAFAFA"/>
<path d="M271.938 34.0992H147.76V121.73H271.938V34.0992Z" fill="#F5F5F5"/>
<path d="M268.751 118.149V37.6742L150.945 37.6742V118.149L268.751 118.149Z" fill="#FAFAFA"/>
<path d="M172.396 118.149L191.086 37.6742H215.588L196.898 118.149H172.396Z" fill="white"/>
<path d="M200.862 118.149L219.558 37.6742H230.624L211.928 118.149H200.862Z" fill="white"/>
<path d="M268.751 118.149V37.6742H268.344V118.149H268.751Z" fill="#FAFAFA"/>
<path d="M144.306 33.9533V68.6822H153.493C153.493 68.6822 169.976 57.9146 173.752 35.7651C173.843 35.2346 173.817 34.6906 173.676 34.1711C173.534 33.6517 173.281 33.1696 172.933 32.7587C172.586 32.3478 172.152 32.018 171.663 31.7927C171.174 31.5674 170.642 31.4519 170.104 31.4544H146.805C146.142 31.4544 145.507 31.7177 145.038 32.1863C144.569 32.6549 144.306 33.2905 144.306 33.9533Z" fill="#E0E0E0"/>
<path d="M144.306 132.449V71.4851H153.493C153.493 71.4851 172.14 107.388 174.299 132.449H144.306Z" fill="#E0E0E0"/>
<path d="M153.226 68.6822H144.641C144.134 68.6822 143.723 69.0933 143.723 69.6003V70.567C143.723 71.0741 144.134 71.4851 144.641 71.4851H153.226C153.733 71.4851 154.144 71.0741 154.144 70.567V69.6003C154.144 69.0933 153.733 68.6822 153.226 68.6822Z" fill="#F5F5F5"/>
<path d="M274.552 33.9533V68.6822H265.347C265.347 68.6822 248.839 57.9146 245.088 35.7651C244.998 35.2348 245.024 34.6911 245.166 34.1722C245.308 33.6532 245.562 33.1715 245.909 32.7609C246.257 32.3502 246.69 32.0205 247.178 31.7948C247.666 31.5691 248.198 31.4529 248.736 31.4544H272.059C272.72 31.4576 273.353 31.7221 273.82 32.1902C274.287 32.6583 274.55 33.2921 274.552 33.9533Z" fill="#E0E0E0"/>
<path d="M274.552 132.449V71.4851H265.347C265.347 71.4851 246.705 107.388 244.541 132.449H274.552Z" fill="#E0E0E0"/>
<path d="M265.614 71.479H274.199C274.706 71.479 275.117 71.068 275.117 70.561V69.5942C275.117 69.0872 274.706 68.6762 274.199 68.6762H265.614C265.107 68.6762 264.696 69.0872 264.696 69.5942V70.561C264.696 71.068 265.107 71.479 265.614 71.479Z" fill="#F5F5F5"/>
<path d="M271.774 143.527H251.57V221.801H271.774V143.527Z" fill="#FAFAFA"/>
<path d="M266.38 221.801H271.773V212.76H260.726L266.38 221.801Z" fill="#F4F8FF"/>
<path d="M175.114 143.527H154.91V221.801H175.114V143.527Z" fill="#E0E0E0"/>
<path d="M271.773 143.527H170.408V218.688H271.773V143.527Z" fill="#FAFAFA"/>
<path d="M200.862 130.236C200.862 137.532 207.891 143.527 216.488 143.527H224.246C232.837 143.527 239.866 137.544 239.866 130.236H200.862Z" fill="#EBEBEB"/>
<path d="M196.363 113.534H210.955C210.955 113.534 208.42 120.222 208.42 124.162C208.42 128.102 219.522 143.527 203.659 143.527C187.796 143.527 198.898 128.096 198.898 124.162C198.898 120.228 196.363 113.534 196.363 113.534Z" fill="#E0E0E0"/>
<path d="M267.59 148.105H174.591V167.057H267.59V148.105Z" fill="#EBEBEB"/>
<path d="M175.801 221.801H170.408V212.76H181.461L175.801 221.801Z" fill="#FAFAFA"/>
<path d="M218.233 157.578C218.233 158.143 218.401 158.696 218.715 159.166C219.029 159.635 219.475 160.002 219.997 160.218C220.519 160.434 221.094 160.491 221.648 160.381C222.202 160.27 222.711 159.998 223.111 159.599C223.511 159.199 223.783 158.69 223.893 158.135C224.003 157.581 223.947 157.007 223.731 156.484C223.514 155.962 223.148 155.516 222.678 155.202C222.208 154.888 221.656 154.72 221.091 154.72C220.333 154.72 219.606 155.021 219.07 155.557C218.534 156.093 218.233 156.82 218.233 157.578Z" fill="#FAFAFA"/>
<path d="M267.59 171.635H174.591V190.586H267.59V171.635Z" fill="#EBEBEB"/>
<path d="M218.233 181.108C218.233 181.673 218.401 182.225 218.715 182.695C219.029 183.165 219.475 183.531 219.997 183.748C220.519 183.964 221.094 184.02 221.648 183.91C222.202 183.8 222.711 183.528 223.111 183.128C223.511 182.728 223.783 182.219 223.893 181.665C224.003 181.111 223.947 180.536 223.731 180.014C223.514 179.492 223.148 179.046 222.678 178.732C222.208 178.418 221.656 178.25 221.091 178.25C220.333 178.25 219.606 178.551 219.07 179.087C218.534 179.623 218.233 180.35 218.233 181.108Z" fill="#FAFAFA"/>
<path d="M267.59 195.158H174.591V214.11H267.59V195.158Z" fill="#EBEBEB"/>
<path d="M221.091 207.495C222.669 207.495 223.948 206.215 223.948 204.637C223.948 203.059 222.669 201.78 221.091 201.78C219.512 201.78 218.233 203.059 218.233 204.637C218.233 206.215 219.512 207.495 221.091 207.495Z" fill="#FAFAFA"/>
<path d="M335.887 33.0413H290.755V65.168H335.887V33.0413Z" fill="#E0E0E0"/>
<path d="M339.571 33.0413H293.321V65.168H339.571V33.0413Z" fill="#F5F5F5"/>
<path d="M336.623 62.2192V35.9901H296.27V62.2192H336.623Z" fill="white"/>
<path d="M329.521 54.5766V43.6265H303.371V54.5766H329.521Z" fill="#F5F5F5"/>
<path d="M372.501 49.1046H345.031V77.9117H372.501V49.1046Z" fill="#E0E0E0"/>
<path d="M376.197 49.1046H347.603V77.9117H376.197V49.1046Z" fill="#F5F5F5"/>
<path d="M373.249 74.9629V52.0534H350.552V74.9629H373.249Z" fill="white"/>
<path d="M357.653 63.5082C357.653 62.4966 358.055 61.5263 358.77 60.8104C359.484 60.0945 360.454 59.6915 361.465 59.6899H362.329C363.34 59.6915 364.31 60.0945 365.025 60.8104C365.74 61.5263 366.141 62.4966 366.141 63.5082C366.141 64.5192 365.739 65.4888 365.024 66.2038C364.31 66.9187 363.34 67.3203 362.329 67.3203H361.496C360.993 67.3243 360.494 67.2287 360.028 67.0389C359.562 66.8491 359.138 66.569 358.781 66.2146C358.423 65.8602 358.14 65.4386 357.946 64.9741C357.753 64.5096 357.653 64.0113 357.653 63.5082Z" fill="#F5F5F5"/>
<path d="M415 87.7066H342.465H329.278V104.469H316.09V121.232H302.903V137.994H289.715V154.757H276.528V171.513H263.34V188.276H250.153V205.038H236.965V221.801H250.153H415V87.7066Z" fill="#FAFAFA"/>
<path d="M310.776 205.038H235.609V210.067H310.776V205.038Z" fill="#EBEBEB"/>
<path d="M323.964 188.276H248.797V193.304H323.964V188.276Z" fill="#EBEBEB"/>
<path d="M337.152 171.513H261.985V176.541H337.152V171.513Z" fill="#EBEBEB"/>
<path d="M350.339 154.751H275.172V159.779H350.339V154.751Z" fill="#EBEBEB"/>
<path d="M363.527 137.994H288.36V143.022H363.527V137.994Z" fill="#EBEBEB"/>
<path d="M376.714 121.232H301.547V126.26H376.714V121.232Z" fill="#EBEBEB"/>
<path d="M389.902 104.469H314.735V109.497H389.902V104.469Z" fill="#EBEBEB"/>
<path d="M403.089 87.7066H327.922V92.7347H403.089V87.7066Z" fill="#EBEBEB"/>
<path d="M401.813 87.7066V104.469H388.625V121.232H375.438V137.994H362.25V154.757H349.063V171.513H335.875V188.276H322.688V205.038H309.5V221.801H322.688H415V104.469V87.7066H401.813Z" fill="white"/>
<path d="M263 249.258C328.106 249.258 380.885 246.177 380.885 242.376C380.885 238.575 328.106 235.493 263 235.493C197.894 235.493 145.115 238.575 145.115 242.376C145.115 246.177 197.894 249.258 263 249.258Z" fill="#F5F5F5"/>
<path d="M333.011 87.7978C333.862 90.6493 338.252 95.9875 338.599 99.8726C338.945 103.758 331.461 109.972 331.461 109.972C331.461 109.972 325.867 91.2694 329.369 89.0867C332.871 86.904 333.011 87.7978 333.011 87.7978Z" fill="#222222"/>
<path d="M317.641 108.002C316.315 109.108 315.014 110.038 313.658 110.993C312.303 111.948 310.904 112.817 309.481 113.632C308.053 114.477 306.582 115.246 305.073 115.936C304.307 116.283 303.547 116.623 302.757 116.921C302.368 117.079 301.973 117.231 301.571 117.365L300.355 117.79C299.316 118.081 298.228 118.16 297.157 118.021C296.262 117.917 295.376 117.746 294.506 117.511C292.885 117.062 291.298 116.497 289.758 115.82C286.768 114.515 283.884 112.98 281.13 111.23L282.267 109.114C283.702 109.722 285.174 110.33 286.633 110.859C288.092 111.388 289.563 111.948 291.035 112.404C292.469 112.874 293.931 113.255 295.412 113.547C296.092 113.68 296.781 113.763 297.473 113.796C297.989 113.836 298.509 113.782 299.006 113.638C300.393 113.107 301.749 112.498 303.067 111.814C303.742 111.461 304.411 111.102 305.067 110.713C305.724 110.324 306.393 109.947 307.043 109.546C308.351 108.737 309.627 107.88 310.892 106.998C312.157 106.117 313.415 105.174 314.54 104.281L317.641 108.002Z" fill="#E58A7B"/>
<path d="M320.851 101.526C319.343 100.347 313.105 104.208 311.214 105.819L312.595 114.167C312.595 114.167 321.563 110.409 322.098 107.844C322.663 105.162 321.976 102.426 320.851 101.526Z" fill="#7E57C2"/>
<path opacity="0.2" d="M320.851 101.526C319.343 100.347 313.105 104.208 311.214 105.819L312.595 114.167C312.595 114.167 321.563 110.409 322.098 107.844C322.663 105.162 321.976 102.426 320.851 101.526Z" fill="#222222"/>
<path d="M341.833 126.789L322.9 130.479C313.117 103.989 315.245 103.119 315.245 103.119C316.621 102.363 318.043 101.693 319.501 101.113L319.757 101.016C320.973 100.572 321.216 100.505 322.833 100.031C325.618 99.368 328.214 98.8147 331.43 98.3587L332.038 98.2736C332.646 98.2006 333.2 98.1398 333.759 98.0851C334.136 98.0426 334.513 98.0182 334.872 97.9939L336.088 97.927C338.167 97.8237 339.657 97.8541 339.657 97.8541C339.079 114.398 340.015 119.146 341.833 126.789Z" fill="#7E57C2"/>
<path opacity="0.2" d="M341.833 126.789L322.9 130.479C313.117 103.989 315.245 103.119 315.245 103.119C316.621 102.363 318.043 101.693 319.501 101.113L319.757 101.016C320.973 100.572 321.216 100.505 322.833 100.031C325.618 99.368 328.214 98.8147 331.43 98.3587L332.038 98.2736C332.646 98.2006 333.2 98.1398 333.759 98.0851C334.136 98.0426 334.513 98.0182 334.872 97.9939L336.088 97.927C338.167 97.8237 339.657 97.8541 339.657 97.8541C339.079 114.398 340.015 119.146 341.833 126.789Z" fill="#222222"/>
<path d="M327.004 89.7008C325.788 91.7133 330.196 92.6435 332.804 90.5824C334.89 88.9286 334.397 85.1104 332.61 84.2227C330.822 83.335 327.004 89.7008 327.004 89.7008Z" fill="#7E57C2"/>
<path opacity="0.4" d="M327.004 89.7008C325.788 91.7133 330.196 92.6435 332.804 90.5824C334.89 88.9286 334.397 85.1104 332.61 84.2227C330.822 83.335 327.004 89.7008 327.004 89.7008Z" fill="#222222"/>
<path d="M345.432 236.436L340.696 236.788L338.963 225.887L343.7 225.534L345.432 236.436Z" fill="#E58A7B"/>
<path d="M378.933 221.199L374.914 223.728L367.758 215.241L371.777 212.705L378.933 221.199Z" fill="#E58A7B"/>
<path d="M338.963 225.887L339.924 231.942L344.593 231.158L343.706 225.54L338.963 225.887Z" fill="#CF6F64"/>
<path d="M371.783 212.711L367.758 215.241L370.725 218.755L374.835 216.329L371.783 212.711Z" fill="#CF6F64"/>
<path d="M323.192 130.479C323.192 130.479 323.125 168.066 326.196 182.22C329.394 196.946 338.799 230.447 338.799 230.447L345.621 229.565C345.621 229.565 340.289 195.724 338.015 181.089C335.54 165.141 337.06 127.78 337.06 127.78L323.192 130.479Z" fill="#7E57C2"/>
<path opacity="0.7" d="M323.192 130.479C323.192 130.479 323.125 168.066 326.196 182.22C329.394 196.946 338.799 230.447 338.799 230.447L345.621 229.565C345.621 229.565 340.289 195.724 338.015 181.089C335.54 165.141 337.06 127.78 337.06 127.78L323.192 130.479Z" fill="#222222"/>
<path opacity="0.5" d="M336.635 144.439L333.291 141.107C333.418 155.547 334.227 162.679 337.005 170.449C336.568 162.235 336.531 152.519 336.635 144.439Z" fill="#222222"/>
<path d="M327.898 129.507C327.898 129.507 338.094 160.569 343.153 178.463C348.491 197.341 368.956 218.22 368.956 218.22L374.829 214.827C374.829 214.827 360.845 195.006 355.702 177.393C345.244 141.636 349.543 134.06 341.827 126.789L327.898 129.507Z" fill="#7E57C2"/>
<path opacity="0.7" d="M327.898 129.507C327.898 129.507 338.094 160.569 343.153 178.463C348.491 197.341 368.956 218.22 368.956 218.22L374.829 214.827C374.829 214.827 360.845 195.006 355.702 177.393C345.244 141.636 349.543 134.06 341.827 126.789L327.898 129.507Z" fill="#222222"/>
<path d="M319.884 78.7325C322.596 79.6384 325.058 86.369 325.162 89.0198C325.265 91.6707 317.306 95.3248 317.306 95.3248C317.306 95.3248 313.798 86.8128 314.777 81.3408C315.203 78.9635 319.884 78.7325 319.884 78.7325Z" fill="#222222"/>
<path d="M282.669 109.339L279.452 105.837L278.4 110.227C278.4 110.227 280.686 112.245 282.535 111.552L282.669 109.339Z" fill="#E58A7B"/>
<path d="M276.193 104.834L273.944 106.621L278.4 110.227L279.452 105.837L276.193 104.834Z" fill="#E58A7B"/>
<path d="M373.656 222.822L377.413 219.035C377.478 218.97 377.564 218.93 377.656 218.924C377.747 218.917 377.838 218.943 377.912 218.998L381.335 221.54C381.419 221.606 381.489 221.69 381.539 221.785C381.589 221.881 381.618 221.985 381.624 222.093C381.631 222.2 381.614 222.308 381.576 222.409C381.537 222.509 381.478 222.601 381.402 222.676C380.064 223.972 379.359 224.531 377.705 226.197C376.69 227.224 375.309 228.823 373.905 230.24C372.5 231.657 371.023 230.337 371.473 229.632C373.522 226.428 373.157 225.23 373.297 223.601C373.318 223.306 373.446 223.03 373.656 222.822Z" fill="#222222"/>
<path d="M340.38 236.107H345.718C345.812 236.107 345.903 236.14 345.975 236.2C346.048 236.26 346.097 236.343 346.114 236.436L346.953 240.655C346.971 240.759 346.967 240.866 346.94 240.967C346.913 241.069 346.863 241.164 346.796 241.245C346.728 241.325 346.643 241.39 346.547 241.434C346.451 241.478 346.347 241.501 346.241 241.5C344.375 241.47 343.475 241.36 341.128 241.36C339.687 241.36 336.708 241.506 334.714 241.506C332.719 241.506 332.507 239.536 333.327 239.36C336.975 238.557 338.404 237.457 339.602 236.399C339.819 236.213 340.095 236.11 340.38 236.107Z" fill="#222222"/>
<g style="mix-blend-mode:multiply" opacity="0.27">
<path d="M340.27 107.442L337.352 109.181L340.72 121.846C339.985 118.009 340.313 113.796 340.27 107.442Z" fill="#7E57C2"/>
</g>
<path d="M323.685 87.6701C325.758 89.4029 328.767 91.9261 332.312 88.9773C335.352 86.4358 337.48 79.7661 332.026 79.5229C329.175 79.3952 323.685 87.6701 323.685 87.6701Z" fill="#222222"/>
<path d="M328.694 88.8557C328.694 91.7254 329.138 96.8995 331.43 98.3709C331.43 98.3709 331.223 101.326 326.08 102.323C320.431 103.423 322.833 100.043 322.833 100.043C325.776 98.7053 325.265 96.4314 324.292 94.3885L328.694 88.8557Z" fill="#E58A7B"/>
<path d="M326.901 91.1114L324.298 94.3885C324.526 94.8621 324.713 95.3544 324.858 95.8598C326.001 95.4586 327.369 93.8534 327.253 92.5949C327.228 92.0828 327.109 91.5799 326.901 91.1114Z" fill="#CF6F64"/>
<path d="M328.968 82.265C329.576 86.9405 329.947 88.9043 328.074 91.7315C325.259 95.9875 319.386 95.7139 317.385 91.3181C315.561 87.36 314.88 80.3741 319.039 77.6685C319.954 77.0631 321.008 76.7019 322.101 76.619C323.195 76.5362 324.291 76.7346 325.286 77.1953C326.282 77.656 327.142 78.3638 327.787 79.2511C328.431 80.1385 328.838 81.176 328.968 82.265Z" fill="#E58A7B"/>
<path d="M320.845 74.0752C317.683 76.3187 324.025 76.9814 324.031 80.2342C324.031 81.5779 326.238 85.84 329.375 85.5968L332.415 80.1978C335.613 75.0298 328.056 68.9497 320.845 74.0752Z" fill="#222222"/>
<path d="M320.845 74.0752C315.282 73.7834 312.856 78.2096 313.494 82.1859C317.375 81.2183 321.39 80.8998 325.375 81.2435C332.999 82.0218 320.845 74.0752 320.845 74.0752Z" fill="#222222"/>
<path d="M330.488 86.296C330.565 87.2036 330.278 88.1046 329.691 88.801C328.907 89.719 327.867 89.1779 327.503 88.0896C327.193 87.1046 327.229 85.4448 328.287 84.9219C328.521 84.8138 328.778 84.7656 329.035 84.7817C329.292 84.7977 329.54 84.8776 329.759 85.0139C329.977 85.1503 330.158 85.3389 330.286 85.5627C330.413 85.7866 330.482 86.0386 330.488 86.296Z" fill="#E58A7B"/>
<path d="M322.213 84.9219C322.286 85.2989 322.146 85.6394 321.903 85.688C321.66 85.7366 321.398 85.4691 321.326 85.08C321.253 84.6909 321.392 84.3565 321.636 84.3078C321.879 84.2592 322.14 84.545 322.213 84.9219Z" fill="#222222"/>
<path d="M317.963 85.7488C318.036 86.1258 317.896 86.4723 317.653 86.5209C317.41 86.5696 317.148 86.3021 317.076 85.9129C317.003 85.5238 317.142 85.1894 317.386 85.1469C317.629 85.1043 317.89 85.3658 317.963 85.7488Z" fill="#222222"/>
<path d="M317.501 85.153L316.546 85.0739C316.546 85.0739 317.148 85.688 317.501 85.153Z" fill="#222222"/>
<path d="M319.215 86.1805C319.045 87.1015 318.75 87.9953 318.34 88.8374C318.558 88.9391 318.795 88.9917 319.036 88.9917C319.277 88.9917 319.514 88.9391 319.732 88.8374L319.215 86.1805Z" fill="#DF5753"/>
<path d="M321.319 90.0534C321.293 90.0538 321.268 90.0448 321.248 90.0281C321.228 90.0114 321.214 89.988 321.21 89.9622C321.207 89.9478 321.207 89.9331 321.211 89.9188C321.214 89.9045 321.22 89.891 321.228 89.8791C321.237 89.8672 321.248 89.8572 321.26 89.8495C321.273 89.8418 321.287 89.8368 321.301 89.8346C321.771 89.7528 322.215 89.5616 322.597 89.2764C322.98 88.9912 323.29 88.6201 323.502 88.193C323.508 88.1794 323.516 88.167 323.526 88.1566C323.536 88.1462 323.549 88.138 323.562 88.1323C323.576 88.1267 323.59 88.1238 323.605 88.1237C323.62 88.1237 323.634 88.1266 323.648 88.1322C323.661 88.1378 323.674 88.146 323.684 88.1563C323.695 88.1667 323.703 88.179 323.708 88.1925C323.714 88.2061 323.717 88.2206 323.717 88.2353C323.717 88.25 323.714 88.2645 323.709 88.2781C323.486 88.7422 323.155 89.1459 322.743 89.4549C322.331 89.764 321.851 89.9693 321.344 90.0534H321.319Z" fill="#222222"/>
<path d="M323.192 83.3046C323.136 83.3053 323.082 83.2859 323.04 83.2499C322.835 83.0555 322.588 82.9123 322.317 82.832C322.047 82.7517 321.761 82.7365 321.483 82.7878C321.422 82.8032 321.357 82.7935 321.303 82.761C321.249 82.7285 321.21 82.6758 321.195 82.6146C321.179 82.5533 321.189 82.4884 321.221 82.4343C321.254 82.3801 321.307 82.3411 321.368 82.3258C321.719 82.2568 322.08 82.272 322.424 82.3703C322.768 82.4687 323.083 82.6472 323.344 82.8912C323.385 82.9333 323.409 82.9901 323.409 83.0493C323.409 83.1085 323.385 83.1653 323.344 83.2074C323.327 83.2334 323.305 83.2556 323.278 83.2724C323.252 83.2892 323.223 83.3002 323.192 83.3046Z" fill="#222222"/>
<path d="M315.61 84.1498C315.582 84.156 315.553 84.156 315.525 84.1498C315.497 84.1385 315.472 84.1217 315.451 84.1005C315.43 84.0794 315.413 84.0542 315.401 84.0264C315.39 83.9986 315.384 83.9689 315.385 83.9389C315.385 83.9089 315.391 83.8793 315.403 83.8518C315.533 83.5193 315.74 83.2227 316.008 82.9868C316.275 82.7509 316.595 82.5826 316.942 82.496C316.971 82.4899 317.001 82.4898 317.03 82.4958C317.06 82.5017 317.087 82.5136 317.112 82.5307C317.136 82.5478 317.157 82.5697 317.173 82.5951C317.188 82.6205 317.199 82.6489 317.203 82.6784C317.209 82.7072 317.209 82.7369 317.204 82.7658C317.198 82.7947 317.187 82.8222 317.17 82.8466C317.154 82.871 317.133 82.8919 317.108 82.9079C317.083 82.9239 317.056 82.9348 317.027 82.9398C316.753 83.0144 316.501 83.1515 316.29 83.3404C316.079 83.5293 315.915 83.7648 315.811 84.0282C315.791 84.0645 315.762 84.0949 315.727 84.1163C315.692 84.1377 315.651 84.1493 315.61 84.1498Z" fill="#222222"/>
<path d="M372.245 225.029C372.141 225.027 372.039 224.999 371.948 224.948C371.857 224.897 371.78 224.825 371.723 224.738C371.679 224.686 371.65 224.624 371.639 224.558C371.627 224.492 371.633 224.424 371.656 224.361C371.869 223.789 373.547 223.424 373.735 223.382C373.757 223.378 373.78 223.38 373.8 223.389C373.821 223.398 373.838 223.412 373.851 223.43C373.863 223.448 373.87 223.469 373.87 223.491C373.87 223.513 373.863 223.534 373.851 223.552C373.522 224.093 372.878 224.999 372.276 225.029H372.245ZM373.516 223.661C372.853 223.832 371.978 224.136 371.869 224.44C371.858 224.468 371.856 224.498 371.862 224.527C371.868 224.556 371.883 224.583 371.905 224.604C371.943 224.667 371.996 224.718 372.06 224.753C372.124 224.789 372.197 224.806 372.27 224.804C372.592 224.786 373.048 224.367 373.516 223.661Z" fill="#7E57C2"/>
<path d="M373.243 223.661C372.635 223.661 371.875 223.509 371.65 223.181C371.6 223.106 371.577 223.017 371.584 222.927C371.592 222.838 371.63 222.754 371.692 222.689C371.746 222.621 371.813 222.565 371.889 222.525C371.966 222.486 372.05 222.462 372.136 222.458H372.185C372.866 222.458 373.802 223.376 373.838 223.412C373.853 223.426 373.864 223.443 373.869 223.463C373.874 223.482 373.874 223.502 373.869 223.522C373.863 223.54 373.853 223.557 373.84 223.571C373.826 223.585 373.809 223.595 373.79 223.601C373.611 223.644 373.427 223.664 373.243 223.661ZM372.185 222.683H372.148C372.094 222.684 372.04 222.698 371.992 222.724C371.943 222.749 371.901 222.785 371.869 222.828C371.783 222.944 371.808 223.011 371.838 223.053C372.021 223.333 372.951 223.491 373.522 223.424C373.158 223.053 372.693 222.795 372.185 222.683Z" fill="#7E57C2"/>
<path d="M338.635 236.94C338.226 236.976 337.817 236.874 337.474 236.648C337.393 236.585 337.329 236.502 337.289 236.408C337.248 236.313 337.232 236.21 337.243 236.107C337.242 236.046 337.258 235.986 337.288 235.933C337.318 235.879 337.361 235.835 337.413 235.803C337.972 235.475 339.93 236.448 340.149 236.557C340.17 236.568 340.187 236.585 340.197 236.605C340.208 236.626 340.213 236.649 340.21 236.673C340.207 236.695 340.197 236.717 340.182 236.734C340.167 236.752 340.147 236.764 340.125 236.77C339.635 236.873 339.136 236.93 338.635 236.94ZM337.735 235.955C337.664 235.951 337.593 235.965 337.529 235.998C337.508 236.009 337.491 236.026 337.48 236.046C337.47 236.067 337.465 236.09 337.468 236.113C337.462 236.182 337.472 236.251 337.499 236.314C337.525 236.378 337.567 236.434 337.62 236.478C337.924 236.74 338.708 236.782 339.742 236.612C339.114 236.283 338.436 236.061 337.735 235.955Z" fill="#7E57C2"/>
<path d="M340.1 236.758H340.058C339.45 236.496 338.276 235.463 338.361 234.934C338.361 234.812 338.471 234.654 338.775 234.624H338.866C339.924 234.624 340.197 236.557 340.21 236.642C340.212 236.663 340.21 236.683 340.202 236.702C340.195 236.722 340.183 236.739 340.167 236.752C340.146 236.76 340.123 236.762 340.1 236.758ZM338.884 234.836H338.817C338.623 234.836 338.611 234.928 338.611 234.952C338.562 235.274 339.365 236.083 339.973 236.442C339.851 235.967 339.541 234.849 338.86 234.849L338.884 234.836Z" fill="#7E57C2"/>
<path d="M321.751 84.3261L320.796 84.241C320.796 84.241 321.398 84.8611 321.751 84.3261Z" fill="#222222"/>
<path d="M325.928 106.366C315.756 108.634 318.899 102.481 319.507 101.125L319.763 101.028C320.979 100.584 321.222 100.517 322.839 100.043C325.661 99.2811 328.534 98.7223 331.436 98.3709L332.044 98.2858C332.652 98.2067 333.206 98.1459 333.765 98.0973C334.142 98.0547 334.519 98.0304 334.878 98.0061L336.094 97.9331C336.3 98.8816 336.805 103.952 325.928 106.366Z" fill="#E58A7B"/>
<path d="M341.894 125.621L343.08 127.154C343.171 127.269 343.043 127.433 342.824 127.476L322.967 131.343C322.797 131.379 322.639 131.343 322.608 131.215L322.104 129.555C322.104 129.44 322.201 129.312 322.383 129.276L341.56 125.542C341.617 125.525 341.679 125.524 341.737 125.538C341.796 125.551 341.85 125.58 341.894 125.621Z" fill="#26395A"/>
<path d="M339.735 128.266L340.252 128.169C340.356 128.169 340.422 128.084 340.404 128.017L339.735 125.865C339.735 125.798 339.614 125.767 339.51 125.786L339 125.883C338.896 125.883 338.829 125.974 338.848 126.035L339.517 128.193C339.535 128.254 339.638 128.291 339.735 128.266Z" fill="#7E57C2"/>
<path d="M328.105 135.441L324.146 133.969L324.754 137.733C324.754 137.733 327.624 138.766 329.09 137.441L328.105 135.441Z" fill="#E58A7B"/>
<path d="M320.377 134.966L319.435 137.435L324.755 137.733L324.147 133.969L320.377 134.966Z" fill="#E58A7B"/>
<path d="M324.444 131.245L324.961 131.148C325.059 131.148 325.131 131.063 325.107 130.996L324.438 128.844C324.438 128.777 324.323 128.747 324.219 128.765L323.703 128.862C323.599 128.862 323.532 128.953 323.557 129.014L324.226 131.172C324.244 131.233 324.341 131.27 324.444 131.245Z" fill="#7E57C2"/>
<path d="M332.093 129.75L332.604 129.652C332.707 129.652 332.774 129.567 332.756 129.5L332.087 127.348C332.087 127.281 331.965 127.251 331.862 127.269L331.351 127.366C331.248 127.366 331.181 127.458 331.199 127.518L331.868 129.677C331.892 129.712 331.928 129.738 331.968 129.751C332.009 129.765 332.053 129.764 332.093 129.75Z" fill="#7E57C2"/>
<path d="M329.929 95.9571C330.36 95.793 330.902 97.313 330.768 97.5075C330.458 97.9514 324.779 99.5018 324.524 98.6323C324.508 98.161 324.58 97.6909 324.736 97.2461C324.901 96.9542 326.159 97.4893 329.929 95.9571Z" fill="#7E57C2"/>
<path d="M328.968 95.9936C329.187 95.489 329.813 94.6803 330.36 95.1424C330.907 95.6045 331.138 96.6016 330.78 96.7658C330.421 96.9299 328.591 96.8387 328.968 95.9936Z" fill="#7E57C2"/>
<path d="M330.129 96.255C330.506 95.8538 331.345 95.3005 331.728 95.9206C332.111 96.5408 331.971 97.5562 331.582 97.5866C331.193 97.617 329.491 96.9178 330.129 96.255Z" fill="#7E57C2"/>
<path d="M330.336 96.1638C330.305 95.8406 330.368 95.5154 330.518 95.2273C330.668 94.9393 330.898 94.7008 331.181 94.5405C331.874 94.0906 332.549 93.7987 332.816 93.3245C332.932 93.7691 332.954 94.2326 332.883 94.6864C332.743 95.337 330.585 95.8355 330.731 96.401L330.336 96.1638Z" fill="#7E57C2"/>
<path d="M330.244 96.1334C330.043 95.8783 329.92 95.5703 329.89 95.2466C329.859 94.923 329.924 94.5975 330.074 94.3094C330.403 93.5555 330.816 92.9475 330.792 92.4125C331.129 92.7235 331.4 93.1 331.588 93.519C331.819 94.127 330.281 95.7261 330.713 96.1274L330.244 96.1334Z" fill="#7E57C2"/>
<path d="M372.531 214.906C372.519 214.906 372.507 214.902 372.496 214.896C372.485 214.89 372.477 214.881 372.47 214.87C372.331 214.675 358.432 194.842 353.337 177.417C350.012 166.239 347.456 154.847 345.688 143.32C344.636 136.827 343.998 132.905 341.906 129.689C341.892 129.674 341.884 129.655 341.884 129.634C341.884 129.614 341.892 129.594 341.906 129.58C341.921 129.567 341.939 129.56 341.958 129.56C341.977 129.56 341.995 129.567 342.01 129.58C344.125 132.826 344.764 136.76 345.816 143.272C347.592 154.782 350.152 166.158 353.477 177.32C358.565 194.721 372.452 214.529 372.592 214.73C372.603 214.745 372.61 214.763 372.61 214.782C372.61 214.8 372.603 214.818 372.592 214.833C372.591 214.85 372.585 214.867 372.574 214.88C372.563 214.893 372.548 214.902 372.531 214.906Z" fill="#7E57C2"/>
<path opacity="0.4" d="M372.531 214.906C372.519 214.906 372.507 214.902 372.496 214.896C372.485 214.89 372.477 214.881 372.47 214.87C372.331 214.675 358.432 194.842 353.337 177.417C350.012 166.239 347.456 154.847 345.688 143.32C344.636 136.827 343.998 132.905 341.906 129.689C341.892 129.674 341.884 129.655 341.884 129.634C341.884 129.614 341.892 129.594 341.906 129.58C341.921 129.567 341.939 129.56 341.958 129.56C341.977 129.56 341.995 129.567 342.01 129.58C344.125 132.826 344.764 136.76 345.816 143.272C347.592 154.782 350.152 166.158 353.477 177.32C358.565 194.721 372.452 214.529 372.592 214.73C372.603 214.745 372.61 214.763 372.61 214.782C372.61 214.8 372.603 214.818 372.592 214.833C372.591 214.85 372.585 214.867 372.574 214.88C372.563 214.893 372.548 214.902 372.531 214.906Z" fill="#222222"/>
<path d="M346.843 229.541L337.553 230.745L336.945 228.155L346.618 226.106L346.843 229.541Z" fill="#7E57C2"/>
<path d="M375.322 214.62L368.47 218.579L366.159 216.603L373.656 211.532L375.322 214.62Z" fill="#7E57C2"/>
<path d="M343.165 104.293C343.493 105.983 343.682 107.576 343.864 109.224C344.046 110.871 344.113 112.501 344.162 114.148C344.21 115.809 344.174 117.471 344.052 119.128C343.986 119.961 343.913 120.794 343.797 121.633C343.748 122.046 343.694 122.466 343.615 122.885L343.39 124.174C343.14 125.225 342.684 126.215 342.046 127.087C341.523 127.82 340.946 128.513 340.319 129.16C339.146 130.365 337.886 131.483 336.55 132.504C333.964 134.495 331.228 136.281 328.366 137.848L327.065 135.83C328.281 134.863 329.497 133.866 330.713 132.851C331.929 131.835 333.084 130.808 334.197 129.738C335.296 128.708 336.334 127.613 337.304 126.46C337.749 125.927 338.156 125.362 338.52 124.77C338.807 124.339 339.013 123.859 339.128 123.354C339.325 121.878 339.441 120.392 339.474 118.903C339.474 118.143 339.474 117.383 339.474 116.623C339.474 115.863 339.444 115.091 339.407 114.325C339.334 112.793 339.195 111.285 339.03 109.728C338.866 108.172 338.653 106.634 338.422 105.193L343.165 104.293Z" fill="#E58A7B"/>
<path d="M342.429 99.1248C345.025 101.228 344.405 107.479 344.405 107.479L335.65 110.361C335.65 110.361 336.051 103.156 336.489 100.566C337 97.4832 339.869 97.0515 342.429 99.1248Z" fill="#7E57C2"/>
<path opacity="0.2" d="M342.429 99.1248C345.025 101.228 344.405 107.479 344.405 107.479L335.65 110.361C335.65 110.361 336.051 103.156 336.489 100.566C337 97.4832 339.869 97.0515 342.429 99.1248Z" fill="#222222"/>
<path d="M226.769 125.208C226.429 123.734 225.6 122.418 224.416 121.476C223.232 120.534 221.764 120.022 220.251 120.022H171.611C169.838 120.022 168.136 120.726 166.882 121.981C165.628 123.235 164.923 124.936 164.923 126.71V234.824C164.923 236.598 165.628 238.299 166.882 239.553C168.136 240.808 169.838 241.512 171.611 241.512H326.043C327.817 241.512 329.518 240.808 330.772 239.553C332.027 238.299 332.731 236.598 332.731 234.824V144.007C332.731 142.234 332.027 140.532 330.772 139.278C329.518 138.024 327.817 137.319 326.043 137.319H241.987C238.455 137.32 235.026 136.123 232.262 133.923C229.498 131.723 227.561 128.651 226.769 125.208Z" fill="#7E57C2"/>
<path opacity="0.6" d="M226.769 125.208C226.429 123.734 225.6 122.418 224.416 121.476C223.232 120.534 221.764 120.022 220.251 120.022H171.611C169.838 120.022 168.136 120.726 166.882 121.981C165.628 123.235 164.923 124.936 164.923 126.71V234.824C164.923 236.598 165.628 238.299 166.882 239.553C168.136 240.808 169.838 241.512 171.611 241.512H326.043C327.817 241.512 329.518 240.808 330.772 239.553C332.027 238.299 332.731 236.598 332.731 234.824V144.007C332.731 142.234 332.027 140.532 330.772 139.278C329.518 138.024 327.817 137.319 326.043 137.319H241.987C238.455 137.32 235.026 136.123 232.262 133.923C229.498 131.723 227.561 128.651 226.769 125.208Z" fill="#222222"/>
<path opacity="0.22" d="M209.599 91.537L213.934 105.576C214.488 107.362 215.727 108.856 217.382 109.73C219.036 110.603 220.969 110.784 222.756 110.233L236.789 105.898L209.599 91.537Z" fill="#7E57C2"/>
<path d="M209.599 91.537L159.439 107.035C158.554 107.307 157.731 107.751 157.017 108.341C156.303 108.932 155.713 109.657 155.28 110.476C154.847 111.295 154.579 112.191 154.493 113.113C154.406 114.036 154.502 114.966 154.776 115.851L183.413 208.559C183.686 209.444 184.131 210.267 184.722 210.98C185.314 211.693 186.04 212.282 186.859 212.715C187.678 213.147 188.575 213.414 189.497 213.5C190.419 213.586 191.35 213.49 192.235 213.216L256.433 193.383C257.318 193.11 258.141 192.666 258.854 192.075C259.567 191.485 260.157 190.759 260.589 189.94C261.022 189.122 261.289 188.226 261.375 187.304C261.461 186.382 261.364 185.452 261.091 184.567L236.771 105.898L209.599 91.537Z" fill="#7E57C2"/>
<path opacity="0.8" d="M209.599 91.537L159.439 107.035C158.554 107.307 157.731 107.751 157.017 108.341C156.303 108.932 155.713 109.657 155.28 110.476C154.847 111.295 154.579 112.191 154.493 113.113C154.406 114.036 154.502 114.966 154.776 115.851L183.413 208.559C183.686 209.444 184.131 210.267 184.722 210.98C185.314 211.693 186.04 212.282 186.859 212.715C187.678 213.147 188.575 213.414 189.497 213.5C190.419 213.586 191.35 213.49 192.235 213.216L256.433 193.383C257.318 193.11 258.141 192.666 258.854 192.075C259.567 191.485 260.157 190.759 260.589 189.94C261.022 189.122 261.289 188.226 261.375 187.304C261.461 186.382 261.364 185.452 261.091 184.567L236.771 105.898L209.599 91.537Z" fill="white"/>
<g opacity="0.28">
<path opacity="0.28" d="M236.588 189.334L194.855 202.223C194.075 202.463 193.231 202.384 192.509 202.003C191.787 201.623 191.244 200.972 191.001 200.193C190.763 199.412 190.844 198.569 191.225 197.848C191.607 197.127 192.258 196.586 193.037 196.344L234.771 183.448C235.552 183.209 236.396 183.289 237.119 183.671C237.841 184.052 238.383 184.705 238.625 185.485C238.863 186.266 238.782 187.108 238.4 187.829C238.019 188.55 237.367 189.091 236.588 189.334Z" fill="#7E57C2"/>
</g>
<g opacity="0.28">
<path opacity="0.28" d="M191.675 113.686L169.605 120.502C168.825 120.74 167.982 120.66 167.26 120.28C166.538 119.9 165.995 119.25 165.75 118.471C165.513 117.69 165.593 116.847 165.975 116.124C166.356 115.402 167.008 114.86 167.787 114.617L189.858 107.801C190.638 107.56 191.482 107.638 192.205 108.019C192.928 108.399 193.47 109.051 193.712 109.832C193.95 110.613 193.869 111.457 193.488 112.179C193.106 112.901 192.455 113.443 191.675 113.686Z" fill="#7E57C2"/>
</g>
<g opacity="0.28">
<path opacity="0.28" d="M209.684 120.916L173.204 132.182C172.426 132.416 171.586 132.333 170.868 131.952C170.149 131.57 169.61 130.921 169.368 130.145C169.128 129.365 169.208 128.523 169.588 127.801C169.969 127.08 170.62 126.539 171.399 126.296L207.879 115.03C208.659 114.79 209.503 114.869 210.225 115.25C210.947 115.631 211.49 116.282 211.733 117.061C211.969 117.844 211.886 118.688 211.502 119.41C211.118 120.132 210.465 120.673 209.684 120.916Z" fill="#7E57C2"/>
</g>
<g opacity="0.28">
<path opacity="0.28" d="M230.052 127.415L176.816 143.831C176.036 144.071 175.193 143.991 174.472 143.611C173.751 143.23 173.209 142.579 172.967 141.8C172.729 141.02 172.809 140.177 173.189 139.455C173.57 138.733 174.22 138.191 174.998 137.946L228.234 121.53C229.014 121.292 229.856 121.372 230.577 121.752C231.298 122.133 231.839 122.782 232.083 123.56C232.323 124.341 232.244 125.184 231.863 125.907C231.483 126.629 230.832 127.171 230.052 127.415Z" fill="#7E57C2"/>
</g>
<g opacity="0.28">
<path opacity="0.28" d="M233.658 139.089L202.711 148.652C201.93 148.89 201.087 148.809 200.366 148.428C199.645 148.046 199.104 147.395 198.862 146.616C198.624 145.836 198.704 144.994 199.084 144.273C199.465 143.552 200.115 143.011 200.893 142.767L231.84 133.203C232.621 132.967 233.464 133.048 234.186 133.43C234.907 133.811 235.449 134.462 235.695 135.24C235.932 136.02 235.851 136.863 235.47 137.584C235.088 138.305 234.437 138.846 233.658 139.089Z" fill="#7E57C2"/>
</g>
<g opacity="0.28">
<path opacity="0.28" d="M188.52 153.036L180.427 155.535C179.647 155.775 178.803 155.696 178.081 155.315C177.359 154.935 176.816 154.284 176.573 153.504C176.333 152.723 176.413 151.879 176.795 151.156C177.177 150.434 177.829 149.892 178.609 149.65L186.702 147.151C187.482 146.913 188.325 146.992 189.047 147.373C189.769 147.753 190.312 148.403 190.557 149.181C190.793 149.963 190.711 150.806 190.33 151.527C189.949 152.249 189.298 152.791 188.52 153.036Z" fill="#7E57C2"/>
</g>
<g opacity="0.28">
<path opacity="0.28" d="M237.269 150.768L184.033 167.215C183.252 167.452 182.41 167.372 181.689 166.99C180.968 166.608 180.427 165.957 180.184 165.178C179.945 164.398 180.024 163.555 180.405 162.834C180.785 162.113 181.436 161.572 182.215 161.329L235.451 144.883C236.231 144.645 237.073 144.725 237.794 145.105C238.515 145.486 239.056 146.136 239.3 146.914C239.54 147.694 239.461 148.538 239.08 149.26C238.7 149.982 238.049 150.525 237.269 150.768Z" fill="#7E57C2"/>
</g>
<g opacity="0.28">
<path opacity="0.28" d="M220.33 168.789L187.638 178.888C186.858 179.126 186.016 179.046 185.295 178.666C184.574 178.285 184.033 177.635 183.789 176.858C183.551 176.077 183.631 175.234 184.011 174.512C184.392 173.79 185.042 173.248 185.82 173.003L218.512 162.904C219.294 162.666 220.137 162.747 220.859 163.128C221.581 163.51 222.123 164.161 222.367 164.941C222.606 165.721 222.526 166.565 222.144 167.286C221.763 168.008 221.11 168.548 220.33 168.789Z" fill="#7E57C2"/>
</g>
<g opacity="0.28">
<path opacity="0.28" d="M240.875 162.448L232.15 165.141C231.368 165.379 230.525 165.299 229.803 164.917C229.081 164.536 228.539 163.884 228.295 163.105C228.057 162.324 228.138 161.481 228.52 160.76C228.901 160.039 229.553 159.498 230.332 159.256L239.057 156.563C239.836 156.323 240.679 156.402 241.4 156.783C242.122 157.163 242.663 157.815 242.905 158.593C243.145 159.374 243.066 160.217 242.685 160.94C242.305 161.662 241.654 162.204 240.875 162.448Z" fill="#7E57C2"/>
</g>
<g opacity="0.28">
<path opacity="0.28" d="M244.48 174.134L191.256 190.55C190.474 190.789 189.63 190.709 188.908 190.328C188.185 189.946 187.643 189.293 187.401 188.513C187.162 187.733 187.242 186.889 187.624 186.168C188.005 185.446 188.658 184.905 189.438 184.664L242.668 168.218C243.449 167.982 244.292 168.063 245.014 168.445C245.736 168.826 246.278 169.476 246.523 170.255C246.645 170.644 246.689 171.053 246.652 171.459C246.616 171.864 246.499 172.259 246.309 172.62C246.119 172.98 245.86 173.3 245.546 173.559C245.232 173.819 244.87 174.015 244.48 174.134Z" fill="#7E57C2"/>
</g>
<path d="M245.623 56.6742L261.541 92.145C261.954 93.0709 261.984 94.1228 261.624 95.0707C261.264 96.0185 260.543 96.7854 259.619 97.2035L192.095 127.512C191.169 127.927 190.117 127.958 189.168 127.598C188.22 127.238 187.453 126.516 187.036 125.591L171.113 90.1203C170.696 89.1939 170.664 88.1399 171.024 87.1901C171.385 86.2403 172.108 85.4725 173.034 85.0557L240.558 54.7469C241.486 54.3338 242.539 54.3046 243.488 54.6658C244.437 55.0269 245.205 55.749 245.623 56.6742Z" fill="#7E57C2"/>
<path opacity="0.3" d="M245.623 56.6742L261.541 92.145C261.954 93.0709 261.984 94.1228 261.624 95.0707C261.264 96.0185 260.543 96.7854 259.619 97.2035L192.095 127.512C191.169 127.927 190.117 127.958 189.168 127.598C188.22 127.238 187.453 126.516 187.036 125.591L171.113 90.1203C170.696 89.1939 170.664 88.1399 171.024 87.1901C171.385 86.2403 172.108 85.4725 173.034 85.0557L240.558 54.7469C241.486 54.3338 242.539 54.3046 243.488 54.6658C244.437 55.0269 245.205 55.749 245.623 56.6742Z" fill="#222222"/>
<path d="M234.981 54.9215L232.823 55.8895L233.072 56.4443L235.23 55.4763L234.981 54.9215Z" fill="#7E57C2"/>
<path d="M229.801 57.2423L223.072 60.2608L223.321 60.8156L230.05 57.7971L229.801 57.2423Z" fill="#7E57C2"/>
<path d="M171.053 93.6951L170.498 93.9442L172.341 98.0486L172.896 97.7996L171.053 93.6951Z" fill="#7E57C2"/>
<path opacity="0.6" d="M243.361 54.6192L225.948 88.728C224.332 91.8894 221.686 94.4049 218.447 95.8587C215.208 97.3124 211.57 97.6174 208.134 96.7232L171.076 87.0621C171.456 86.1729 172.154 85.4575 173.034 85.0557L240.558 54.7469C241.443 54.3513 242.444 54.3057 243.361 54.6192Z" fill="#7E57C2"/>
<path d="M267.298 98.2736L214.901 101.508C213.975 101.563 213.07 101.8 212.236 102.206C211.402 102.611 210.656 103.177 210.041 103.871C209.426 104.565 208.954 105.374 208.652 106.25C208.349 107.127 208.223 108.055 208.28 108.98L214.256 205.823C214.312 206.749 214.55 207.655 214.957 208.489C215.363 209.323 215.931 210.069 216.626 210.684C217.321 211.298 218.131 211.769 219.009 212.07C219.886 212.371 220.815 212.496 221.741 212.438L288.803 208.297C289.728 208.242 290.633 208.004 291.465 207.598C292.298 207.192 293.042 206.626 293.656 205.931C294.269 205.237 294.739 204.429 295.04 203.553C295.34 202.676 295.465 201.749 295.406 200.825L290.36 118.642L267.298 98.2736Z" fill="#7E57C2"/>
<path opacity="0.8" d="M267.298 98.2736L214.901 101.508C213.975 101.563 213.07 101.8 212.236 102.206C211.402 102.611 210.656 103.177 210.041 103.871C209.426 104.565 208.954 105.374 208.652 106.25C208.349 107.127 208.223 108.055 208.28 108.98L214.256 205.823C214.312 206.749 214.55 207.655 214.957 208.489C215.363 209.323 215.931 210.069 216.626 210.684C217.321 211.298 218.131 211.769 219.009 212.07C219.886 212.371 220.815 212.496 221.741 212.438L288.803 208.297C289.728 208.242 290.633 208.004 291.465 207.598C292.298 207.192 293.042 206.626 293.656 205.931C294.269 205.237 294.739 204.429 295.04 203.553C295.34 202.676 295.465 201.749 295.406 200.825L290.36 118.642L267.298 98.2736Z" fill="white"/>
<g opacity="0.22">
<path opacity="0.22" d="M270.466 199.67L226.867 202.363C226.052 202.41 225.252 202.132 224.642 201.591C224.031 201.05 223.659 200.289 223.608 199.475C223.561 198.661 223.837 197.861 224.377 197.25C224.917 196.639 225.676 196.265 226.49 196.21L270.089 193.523C270.904 193.475 271.704 193.751 272.316 194.291C272.928 194.83 273.301 195.591 273.354 196.405C273.402 197.22 273.126 198.022 272.584 198.634C272.043 199.246 271.281 199.618 270.466 199.67Z" fill="#7E57C2"/>
</g>
<g opacity="0.22">
<path opacity="0.22" d="M244.663 115.571L221.601 116.982C220.787 117.028 219.987 116.752 219.376 116.212C218.765 115.673 218.391 114.913 218.336 114.1C218.289 113.285 218.567 112.484 219.108 111.873C219.649 111.261 220.409 110.888 221.224 110.835L244.286 109.412C245.099 109.364 245.899 109.64 246.51 110.18C247.121 110.72 247.493 111.48 247.544 112.294C247.596 113.111 247.322 113.914 246.781 114.529C246.241 115.143 245.479 115.518 244.663 115.571Z" fill="#7E57C2"/>
</g>
<g opacity="0.22">
<path opacity="0.22" d="M260.459 126.844L222.355 129.19C221.54 129.24 220.739 128.965 220.127 128.425C219.515 127.884 219.142 127.123 219.09 126.308C219.042 125.493 219.319 124.692 219.86 124.08C220.401 123.468 221.163 123.095 221.978 123.044L260.076 120.697C260.891 120.647 261.692 120.922 262.304 121.462C262.916 122.003 263.289 122.764 263.341 123.579C263.389 124.393 263.113 125.194 262.573 125.805C262.033 126.417 261.273 126.79 260.459 126.844Z" fill="#7E57C2"/>
</g>
<g opacity="0.22">
<path opacity="0.22" d="M278.717 137.964L223.109 141.393C222.292 141.443 221.488 141.167 220.874 140.626C220.26 140.085 219.885 139.322 219.832 138.505C219.784 137.691 220.06 136.891 220.6 136.28C221.14 135.67 221.9 135.298 222.714 135.246L278.328 131.811C279.142 131.764 279.942 132.042 280.553 132.583C281.163 133.124 281.535 133.885 281.587 134.699C281.635 135.511 281.361 136.31 280.823 136.922C280.286 137.533 279.529 137.908 278.717 137.964Z" fill="#7E57C2"/>
</g>
<g opacity="0.22">
<path opacity="0.22" d="M279.471 150.16L247.143 152.155C246.329 152.203 245.528 151.927 244.916 151.387C244.305 150.847 243.932 150.087 243.878 149.273C243.828 148.458 244.104 147.656 244.644 147.044C245.184 146.432 245.945 146.059 246.76 146.008L279.088 144.013C279.903 143.964 280.704 144.239 281.316 144.779C281.928 145.319 282.301 146.081 282.353 146.895C282.401 147.71 282.125 148.51 281.585 149.122C281.045 149.734 280.285 150.107 279.471 150.16Z" fill="#7E57C2"/>
</g>
<g opacity="0.22">
<path opacity="0.22" d="M232.314 153.067L223.857 153.589C223.043 153.638 222.243 153.362 221.633 152.821C221.022 152.281 220.65 151.521 220.598 150.708C220.55 149.893 220.826 149.092 221.366 148.481C221.906 147.869 222.666 147.496 223.48 147.443L231.937 146.92C232.753 146.873 233.553 147.15 234.165 147.691C234.776 148.232 235.149 148.993 235.202 149.808C235.249 150.622 234.971 151.422 234.43 152.033C233.889 152.643 233.129 153.015 232.314 153.067Z" fill="#7E57C2"/>
</g>
<g opacity="0.22">
<path opacity="0.22" d="M280.225 162.357L224.611 165.786C223.796 165.834 222.996 165.558 222.384 165.018C221.772 164.478 221.399 163.718 221.346 162.904C221.299 162.089 221.577 161.288 222.118 160.677C222.658 160.065 223.419 159.692 224.234 159.639L279.842 156.21C280.657 156.162 281.458 156.438 282.07 156.98C282.682 157.521 283.055 158.283 283.107 159.098C283.155 159.912 282.879 160.712 282.339 161.322C281.798 161.933 281.038 162.305 280.225 162.357Z" fill="#7E57C2"/>
</g>
<g opacity="0.22">
<path opacity="0.22" d="M259.516 175.879L225.365 177.988C224.55 178.035 223.749 177.758 223.138 177.217C222.526 176.676 222.153 175.915 222.1 175.1C222.053 174.286 222.331 173.486 222.872 172.876C223.413 172.265 224.174 171.893 224.988 171.842L259.139 169.732C259.954 169.685 260.753 169.963 261.364 170.504C261.975 171.045 262.346 171.806 262.398 172.62C262.448 173.434 262.172 174.235 261.632 174.846C261.091 175.457 260.33 175.829 259.516 175.879Z" fill="#7E57C2"/>
</g>
<g opacity="0.22">
<path opacity="0.22" d="M280.973 174.559L271.853 175.119C271.039 175.167 270.239 174.891 269.628 174.351C269.017 173.811 268.645 173.051 268.594 172.237C268.544 171.422 268.819 170.62 269.359 170.008C269.9 169.396 270.661 169.023 271.476 168.972L280.596 168.412C281.411 168.363 282.212 168.638 282.824 169.178C283.436 169.719 283.809 170.48 283.861 171.294C283.907 172.11 283.63 172.91 283.089 173.522C282.548 174.133 281.787 174.506 280.973 174.559Z" fill="#7E57C2"/>
</g>
<g opacity="0.22">
<path opacity="0.22" d="M281.726 186.756L226.119 190.185C225.304 190.233 224.503 189.957 223.892 189.417C223.28 188.877 222.907 188.117 222.854 187.303C222.805 186.489 223.081 185.688 223.621 185.076C224.161 184.464 224.921 184.091 225.735 184.038L281.349 180.609C282.163 180.561 282.963 180.837 283.574 181.377C284.185 181.917 284.556 182.677 284.608 183.491C284.658 184.306 284.383 185.107 283.842 185.719C283.302 186.331 282.541 186.704 281.726 186.756Z" fill="#7E57C2"/>
</g>
<path opacity="0.22" d="M267.298 98.2736L268.204 112.939C268.261 113.863 268.499 114.768 268.905 115.6C269.311 116.433 269.877 117.177 270.571 117.791C271.265 118.405 272.073 118.876 272.949 119.177C273.825 119.478 274.752 119.604 275.677 119.548L290.36 118.642L267.298 98.2736Z" fill="#7E57C2"/>
<path opacity="0.5" d="M250.141 134.857C250.131 134.154 249.981 133.46 249.7 132.817C249.418 132.173 249.01 131.592 248.5 131.108C247.99 130.625 247.388 130.249 246.73 130.002C246.072 129.755 245.371 129.642 244.669 129.671H195.968C192.277 129.671 188.672 132.668 187.979 136.359L168.76 234.824C168.042 238.515 170.45 241.512 174.141 241.512H328.573C332.263 241.512 335.838 238.521 336.562 234.824L352.412 153.656C353.13 149.96 350.722 146.968 347.031 146.968H263C255.704 146.968 250.39 141.946 250.141 134.857Z" fill="#7E57C2"/>
</svg>
