<svg width="24" height="19" viewBox="0 0 24 19" fill="none" xmlns="http://www.w3.org/2000/svg">
<path d="M23.1014 3.23788C23.0068 3.1114 22.8748 3.018 22.724 2.97098C22.5733 2.92396 22.4115 2.92573 22.2619 2.97603C21.3419 3.2854 20.3858 3.47492 19.4174 3.53991C18.8706 2.77019 18.0956 2.19194 17.202 1.887C16.3085 1.58206 15.3417 1.56588 14.4384 1.84075C13.5351 2.11562 12.7412 2.66761 12.169 3.4186C11.5968 4.16958 11.2752 5.08152 11.2499 6.02533C9.78648 5.72823 8.39708 5.14201 7.16314 4.30102C5.92919 3.46004 4.87552 2.38121 4.06389 1.12777C3.98513 1.00676 3.87312 0.911052 3.7413 0.85214C3.60949 0.793228 3.46347 0.773616 3.32078 0.795656C3.17809 0.817697 3.0448 0.880454 2.9369 0.976394C2.82901 1.07233 2.75109 1.19738 2.71252 1.33651C2.05341 3.71897 2.09996 6.24151 2.84653 8.59803C3.59309 10.9545 5.00758 13.0437 6.91832 14.612C5.31052 15.4969 3.5099 15.9731 1.67487 15.9988C1.50954 16.0013 1.34967 16.0583 1.22007 16.1609C1.09047 16.2636 0.998397 16.4062 0.958139 16.5666C0.917881 16.7269 0.931694 16.8961 0.997434 17.0478C1.06317 17.1995 1.17716 17.3253 1.3217 17.4056C3.20146 18.4462 5.31366 18.995 7.46223 19.001C9.61079 19.0071 11.7261 18.4702 13.6116 17.4402C15.4972 16.4102 17.092 14.9205 18.2479 13.1093C19.4039 11.2982 20.0835 9.22438 20.2236 7.08039C21.3429 6.25728 22.3197 5.25626 23.1151 4.11715C23.2057 3.98781 23.2531 3.83317 23.2506 3.67529C23.2482 3.5174 23.1959 3.36433 23.1014 3.23788Z" fill="#222222"/>
</svg>
