<svg width="526" height="272" viewBox="0 0 526 272" fill="none" xmlns="http://www.w3.org/2000/svg">
<path d="M0 5C0 2.23858 2.23858 0 5 0H521C523.761 0 526 2.23858 526 5V272H0V5Z" fill="#F2F2F2"/>
<path d="M155.519 233.772C214.877 264.743 311.123 264.743 370.481 233.772C429.84 202.802 429.84 152.588 370.481 121.61C311.123 90.6332 214.904 90.64 155.519 121.61C96.1332 152.581 96.1875 202.802 155.519 233.772Z" fill="#F5F5F5"/>
<path d="M138.972 182.982L119.677 171.858V130.524L138.972 141.654V182.982Z" fill="#E0E0E0"/>
<path d="M138.972 141.654L166.54 125.759V167.086L138.972 182.982V141.654Z" fill="#EBEBEB"/>
<path d="M166.54 125.759L138.972 141.654L119.677 130.524L147.245 114.629L166.54 125.759Z" fill="#F5F5F5"/>
<path d="M141.733 143.24L163.784 130.524L164.293 130.815V146.128L142.236 158.844L141.727 158.553L141.733 143.24Z" fill="#E0E0E0"/>
<path d="M142.236 143.538L164.294 130.815V146.128L142.236 158.844V143.538Z" fill="#F5F5F5"/>
<path d="M150.882 141.146L154.635 138.983C155.117 138.699 155.511 138.827 155.511 139.268C155.476 139.538 155.379 139.796 155.227 140.022C155.075 140.248 154.872 140.435 154.635 140.57L150.882 142.732C150.394 143.017 150 142.888 150 142.447C150.035 142.176 150.133 141.918 150.287 141.692C150.44 141.466 150.644 141.279 150.882 141.146Z" fill="#E0E0E0"/>
<path d="M141.225 162.613L163.275 149.897V165.209L163.784 165.5L141.727 178.217L141.225 177.925V162.613Z" fill="#E0E0E0"/>
<path d="M141.727 162.904L163.784 150.188V165.5L141.727 178.217V162.904Z" fill="#F5F5F5"/>
<path d="M150.374 160.518L154.161 158.363C154.65 158.078 155.043 158.207 155.043 158.647C155.008 158.918 154.91 159.177 154.757 159.403C154.603 159.629 154.399 159.816 154.161 159.949L150.408 162.111C149.919 162.396 149.525 162.267 149.525 161.826C149.556 161.558 149.648 161.3 149.796 161.073C149.943 160.846 150.141 160.656 150.374 160.518Z" fill="#E0E0E0"/>
<path d="M138.972 139.268L119.677 128.138V86.8102L138.972 97.9335V139.268Z" fill="#E0E0E0"/>
<path d="M138.972 97.9335L166.54 82.0382V123.373L138.972 139.268V97.9335Z" fill="#EBEBEB"/>
<path d="M166.541 82.0383L138.972 97.9336L119.677 86.8102L147.246 70.915L166.541 82.0383Z" fill="#F5F5F5"/>
<path d="M141.727 99.5264L163.784 86.8102L164.293 87.1017V102.414L142.236 115.13L141.727 114.832V99.5264Z" fill="#E0E0E0"/>
<path d="M150.882 97.4251L154.629 95.2628C155.117 94.9849 155.511 95.1137 155.511 95.5543C155.475 95.8246 155.376 96.0829 155.223 96.3087C155.07 96.5345 154.867 96.7218 154.629 96.8557L150.882 99.018C150.394 99.296 150 99.1739 150 98.7334C150.036 98.462 150.134 98.2026 150.287 97.9756C150.44 97.7486 150.644 97.5602 150.882 97.4251Z" fill="#E0E0E0"/>
<path d="M141.225 118.899L163.275 106.183V121.488L163.784 121.78L141.727 134.496L141.225 134.205V118.899Z" fill="#E0E0E0"/>
<path d="M141.727 119.19L163.784 106.474V121.78L141.727 134.496V119.19Z" fill="#F5F5F5"/>
<path d="M150.374 116.798L154.161 114.635C154.642 114.358 155.043 114.486 155.043 114.927C155.005 115.197 154.905 115.454 154.752 115.68C154.6 115.905 154.397 116.093 154.161 116.228L150.374 118.37C149.885 118.648 149.491 118.519 149.491 118.086C149.53 117.818 149.63 117.563 149.783 117.339C149.935 117.116 150.138 116.931 150.374 116.798Z" fill="#E0E0E0"/>
<path d="M141.727 99.5264L163.784 86.8102V102.116L141.727 114.832V99.5264Z" fill="#E0E0E0"/>
<path d="M174.814 94.3749L162.74 87.4135V100.902L174.814 107.857V94.3749Z" fill="#E0E0E0"/>
<path d="M150 117.015V97.9335L154.73 95.1951L155.511 96.3474L169.295 88.3964V105.885L150 117.015Z" fill="#EBEBEB"/>
<path d="M150 117.015L151.378 100.319L170.673 89.1962L169.295 105.885L150 117.015Z" fill="#F5F5F5"/>
<path d="M152.756 107.091L142.236 101.024V114.513L152.756 120.573V107.091Z" fill="#EBEBEB"/>
<path d="M152.756 105.885L174.813 93.1683V108.474L152.756 121.19V105.885Z" fill="#F5F5F5"/>
<path d="M161.403 103.492L165.149 101.329C165.638 101.052 166.031 101.18 166.031 101.621C165.995 101.891 165.896 102.149 165.743 102.375C165.59 102.601 165.387 102.788 165.149 102.922L161.403 105.085C160.914 105.363 160.521 105.234 160.521 104.8C160.556 104.529 160.655 104.269 160.808 104.042C160.961 103.815 161.164 103.627 161.403 103.492Z" fill="#E0E0E0"/>
<path d="M152.756 105.885L152.022 105.464V120.77L152.756 121.19V105.885Z" fill="#E0E0E0"/>
<path d="M152.022 105.464L174.073 92.7413L174.813 93.1683L152.755 105.885L152.022 105.464Z" fill="#EBEBEB"/>
<path d="M366.931 157.943L347.629 146.812V105.485L366.931 116.608V157.943Z" fill="#E0E0E0"/>
<path d="M366.932 116.608L394.5 100.713V142.047L366.932 157.943V116.608Z" fill="#EBEBEB"/>
<path d="M394.499 100.713L366.931 116.608L347.629 105.485L375.204 89.5826L394.499 100.713Z" fill="#F5F5F5"/>
<path d="M369.688 118.201L391.745 105.485L392.254 105.776L392.247 121.082L370.197 133.798L369.688 133.506V118.201Z" fill="#E0E0E0"/>
<path d="M370.195 118.492L392.253 105.776L392.246 121.082L370.195 133.798V118.492Z" fill="#F5F5F5"/>
<path d="M378.841 116.1L382.588 113.937C383.076 113.659 383.47 113.788 383.47 114.222C383.434 114.493 383.336 114.753 383.183 114.98C383.03 115.207 382.826 115.395 382.588 115.53L378.841 117.692C378.353 117.97 377.959 117.842 377.959 117.408C377.995 117.136 378.093 116.877 378.246 116.65C378.399 116.423 378.603 116.235 378.841 116.1Z" fill="#E0E0E0"/>
<path d="M369.176 137.573L391.233 124.85V140.163L391.742 140.454L369.685 153.17L369.176 152.879V137.573Z" fill="#E0E0E0"/>
<path d="M369.688 137.865L391.745 125.149V140.454L369.688 153.171V137.865Z" fill="#F5F5F5"/>
<path d="M378.332 135.472L382.085 133.31C382.567 133.032 382.96 133.161 382.96 133.595C382.924 133.865 382.827 134.124 382.675 134.35C382.523 134.577 382.321 134.766 382.085 134.903L378.332 137.065C377.843 137.343 377.449 137.214 377.449 136.774C377.486 136.503 377.585 136.245 377.738 136.02C377.891 135.794 378.094 135.607 378.332 135.472Z" fill="#E0E0E0"/>
<path d="M183.345 201.141C183.345 201.141 183.42 190.39 176.633 182.331C170.626 175.193 167.43 170.665 169.323 168.578C171.217 166.49 175.289 165.988 180.78 171.764C186.27 177.539 186.698 193.536 185.938 197.155L183.345 201.141Z" fill="#7E57C2"/>
<path opacity="0.2" d="M183.345 201.141C183.345 201.141 183.42 190.39 176.633 182.331C170.626 175.193 167.43 170.665 169.323 168.578C171.217 166.49 175.289 165.988 180.78 171.764C186.27 177.539 186.698 193.536 185.938 197.155L183.345 201.141Z" fill="#222222"/>
<path d="M184.486 189.584C184.408 189.584 184.333 189.558 184.273 189.51C184.212 189.462 184.17 189.395 184.153 189.32C181.778 178.223 175.683 172.089 172.255 169.418C172.185 169.363 172.138 169.283 172.127 169.194C172.115 169.105 172.14 169.015 172.194 168.944C172.251 168.872 172.333 168.826 172.423 168.815C172.513 168.803 172.604 168.828 172.676 168.883C176.172 171.594 182.395 177.871 184.818 189.177C184.828 189.22 184.829 189.265 184.822 189.309C184.814 189.353 184.798 189.394 184.774 189.431C184.75 189.469 184.718 189.501 184.682 189.526C184.645 189.551 184.604 189.568 184.56 189.577L184.486 189.584Z" fill="white"/>
<path d="M183.087 205.134L180.325 206.726C180.03 205.922 179.533 205.207 178.882 204.651C178.231 204.094 177.447 203.714 176.606 203.547C173.586 202.87 170.45 202.985 168.332 200.368C166.215 197.752 168.794 194.905 168.332 192.98C167.871 191.055 167.572 190.499 163.785 188.574C159.998 186.649 158.505 183.456 161.356 181.294C164.206 179.132 168.821 180.718 171.617 182.65C174.101 184.344 176.463 184.792 179.239 185.137C182.015 185.483 186.535 187.022 185.843 193.461C185.389 197.447 184.464 201.365 183.087 205.134Z" fill="#7E57C2"/>
<path d="M172.486 196.674C172.413 196.673 172.343 196.65 172.285 196.608C172.226 196.565 172.183 196.505 172.16 196.437C172.134 196.351 172.143 196.258 172.185 196.178C172.227 196.098 172.298 196.038 172.384 196.01C172.628 195.935 178.492 194.078 180.983 196.071C181.045 196.129 181.082 196.208 181.088 196.293C181.094 196.378 181.068 196.462 181.016 196.528C180.963 196.595 180.887 196.639 180.803 196.652C180.719 196.665 180.633 196.647 180.562 196.6C178.363 194.837 172.649 196.64 172.587 196.661L172.486 196.674Z" fill="white"/>
<path d="M183.394 204.618C183.311 204.619 183.231 204.588 183.17 204.533C183.108 204.478 183.07 204.402 183.061 204.32C181.548 190.045 164.329 183.273 164.16 183.205C164.117 183.19 164.079 183.166 164.046 183.135C164.013 183.104 163.987 183.067 163.969 183.026C163.951 182.985 163.941 182.941 163.94 182.896C163.938 182.851 163.946 182.807 163.963 182.765C163.996 182.683 164.06 182.617 164.141 182.58C164.221 182.543 164.313 182.539 164.397 182.568C164.58 182.643 182.179 189.557 183.733 204.259C183.743 204.348 183.717 204.437 183.661 204.507C183.605 204.577 183.523 204.622 183.434 204.632L183.394 204.618Z" fill="white"/>
<path d="M352.205 195.759C352.28 195.522 355.191 180.555 352.205 169.94C349.49 160.206 345.947 156.614 340.898 155.821C335.849 155.028 333.656 158.661 336.337 163.582C339.018 168.503 345.472 175.031 347.054 186.025C347.732 190.553 348.248 194.485 348.248 194.485L352.205 195.759Z" fill="#7E57C2"/>
<path opacity="0.2" d="M352.205 195.759C352.28 195.522 355.191 180.555 352.205 169.94C349.49 160.206 345.947 156.614 340.898 155.821C335.849 155.028 333.656 158.661 336.337 163.582C339.018 168.503 345.472 175.031 347.054 186.025C347.732 190.553 348.248 194.485 348.248 194.485L352.205 195.759Z" fill="#222222"/>
<path d="M350.5 187.164C350.455 187.161 350.412 187.15 350.371 187.131C350.331 187.111 350.295 187.084 350.266 187.051C350.236 187.017 350.213 186.978 350.199 186.936C350.184 186.894 350.178 186.849 350.181 186.805C350.86 174.685 346.896 163.867 339.79 158.559C339.718 158.505 339.67 158.425 339.658 158.336C339.645 158.247 339.668 158.157 339.722 158.085C339.777 158.014 339.857 157.968 339.946 157.955C340.035 157.943 340.125 157.965 340.197 158.017C347.48 163.44 351.565 174.502 350.853 186.845C350.847 186.934 350.808 187.017 350.742 187.077C350.676 187.136 350.589 187.168 350.5 187.164Z" fill="white"/>
<path d="M360.016 203.554C359.629 200.768 361.231 196.593 365.038 195.603C368.846 194.613 370.542 192.431 369.171 190.045C367.801 187.659 368.119 185.469 371.574 184.48C375.029 183.49 378.056 181.768 376.067 178.122C374.621 175.485 374.302 173.777 377.845 168.584C380.784 164.273 378.381 161.745 374.703 162.22C371.024 162.694 368.751 167.073 366.45 167.805C364.149 168.537 363.62 164.633 360.586 166.381C357.552 168.13 357.735 172.611 357.64 175.736C357.545 178.86 357.342 179.565 354.6 179.186C351.858 178.806 349.17 179.254 349.231 185.876C349.279 191.556 352.313 198.592 352.313 198.592L360.016 203.554Z" fill="#7E57C2"/>
<path d="M355.205 199.318H355.171C355.08 199.307 354.997 199.262 354.94 199.191C354.882 199.12 354.856 199.029 354.865 198.938C356.779 181.863 371.452 167.459 375.28 164.538C375.352 164.483 375.443 164.459 375.533 164.471C375.623 164.483 375.704 164.53 375.759 164.602C375.814 164.674 375.838 164.765 375.826 164.854C375.813 164.944 375.766 165.025 375.694 165.08C371.914 167.961 357.431 182.175 355.544 199.013C355.534 199.096 355.494 199.173 355.432 199.229C355.369 199.285 355.289 199.317 355.205 199.318Z" fill="white"/>
<path d="M361.896 181.063C361.828 181.063 361.761 181.042 361.704 181.004C361.647 180.965 361.603 180.91 361.577 180.847C361.548 180.761 361.553 180.668 361.591 180.586C361.629 180.504 361.697 180.439 361.781 180.406C367.251 178.372 373.454 179.335 373.719 179.376C373.807 179.391 373.885 179.44 373.938 179.512C373.99 179.584 374.011 179.674 373.997 179.762C373.981 179.85 373.932 179.927 373.86 179.98C373.788 180.033 373.699 180.057 373.61 180.047C373.549 180.047 367.319 179.071 362.018 181.043C361.979 181.056 361.938 181.063 361.896 181.063Z" fill="white"/>
<path d="M357.024 191.326C356.977 191.325 356.93 191.315 356.887 191.295C356.843 191.275 356.805 191.246 356.773 191.211C354.498 188.565 352.956 185.37 352.301 181.945C352.294 181.901 352.296 181.856 352.307 181.812C352.317 181.769 352.337 181.728 352.363 181.692C352.39 181.657 352.423 181.626 352.461 181.603C352.499 181.58 352.542 181.565 352.586 181.558C352.63 181.552 352.675 181.554 352.718 181.564C352.762 181.575 352.802 181.594 352.838 181.62C352.874 181.647 352.905 181.68 352.928 181.718C352.951 181.757 352.966 181.799 352.973 181.843C353.622 185.134 355.105 188.203 357.282 190.757C357.325 190.806 357.352 190.867 357.361 190.932C357.37 190.997 357.361 191.063 357.334 191.123C357.307 191.182 357.263 191.233 357.209 191.269C357.154 191.305 357.09 191.325 357.024 191.326Z" fill="white"/>
<path d="M183.089 100.225V205.14L290.607 143.145L290.601 47.7668L210.657 93.8665L207.895 85.9155L183.089 100.225Z" fill="#7E57C2"/>
<path opacity="0.7" d="M183.089 100.225V205.14L290.607 143.145L290.601 47.7668L210.657 93.8665L207.895 85.9155L183.089 100.225Z" fill="#222222"/>
<path d="M183.089 205.14L188.6 109.762L296.118 47.7668L290.607 143.145L183.089 205.14Z" fill="#E0E0E0"/>
<path d="M183.088 205.14L191.354 111.355L298.873 49.353L290.606 143.145L183.088 205.14Z" fill="#7E57C2"/>
<path opacity="0.7" d="M183.088 205.14L191.354 111.355L298.873 49.353L290.606 143.145L183.088 205.14Z" fill="#222222"/>
<path d="M199.627 109.762V214.684L307.145 152.682V57.3039L227.195 103.404L224.44 95.4526L199.627 109.762Z" fill="#7E57C2"/>
<path opacity="0.5" d="M199.627 109.762V214.684L307.145 152.682V57.3039L227.195 103.404L224.44 95.4526L199.627 109.762Z" fill="#222222"/>
<path d="M199.627 214.684L205.138 119.299L312.656 57.3039L307.145 152.682L199.627 214.684Z" fill="#E0E0E0"/>
<path d="M199.627 214.684L207.893 120.892L315.412 58.8901L307.145 152.682L199.627 214.684Z" fill="#7E57C2"/>
<path opacity="0.5" d="M199.627 214.684L207.893 120.892L315.412 58.8901L307.145 152.682L199.627 214.684Z" fill="#222222"/>
<path d="M290.579 248.068C271.277 236.938 253.373 224.838 245.202 210.644L270.042 196.322L290.579 248.068Z" fill="#E0E0E0"/>
<path d="M218.922 120.892V225.808L326.441 163.813V68.4341L246.491 114.534L243.735 106.583L218.922 120.892Z" fill="#7E57C2"/>
<path opacity="0.2" d="M218.922 120.892V225.808L326.441 163.813V68.4341L246.491 114.534L243.735 106.583L218.922 120.892Z" fill="#222222"/>
<path d="M249.898 151.91C249.627 151.91 249.586 151.599 249.586 151.415V61.9409C249.608 61.5938 249.71 61.2565 249.884 60.9554C250.058 60.6544 250.3 60.3977 250.59 60.2057L328.192 15.4684C328.298 15.4022 328.42 15.3648 328.545 15.3599C328.817 15.3599 328.857 15.6717 328.857 15.8547V105.329C328.836 105.677 328.734 106.016 328.56 106.318C328.386 106.62 328.144 106.878 327.853 107.071L250.251 151.809C250.144 151.872 250.022 151.907 249.898 151.91Z" fill="white"/>
<path d="M328.504 15.6712C328.509 15.7207 328.509 15.7707 328.504 15.8203V105.295C328.482 105.583 328.395 105.863 328.251 106.114C328.106 106.365 327.907 106.581 327.669 106.745L250.067 151.483L249.932 151.544C249.923 151.494 249.923 151.444 249.932 151.395V61.92C249.955 61.6326 250.042 61.354 250.186 61.1043C250.331 60.8546 250.529 60.6401 250.766 60.4762L328.368 15.7389C328.411 15.709 328.459 15.6883 328.511 15.6779L328.504 15.6712ZM328.551 15.0001C328.367 15.0056 328.186 15.0594 328.029 15.156L250.427 59.8933C250.086 60.1171 249.802 60.4176 249.598 60.7708C249.394 61.1239 249.276 61.5198 249.253 61.9268V151.401C249.253 151.93 249.518 152.235 249.932 152.235C250.117 152.23 250.297 152.176 250.454 152.079L328.056 107.342C328.399 107.12 328.684 106.82 328.888 106.466C329.092 106.113 329.209 105.716 329.23 105.308V15.8339C329.23 15.3051 328.965 14.9933 328.551 15.0001Z" fill="#7E57C2"/>
<path opacity="0.7" d="M328.504 15.6712C328.509 15.7207 328.509 15.7707 328.504 15.8203V105.295C328.482 105.583 328.395 105.863 328.251 106.114C328.106 106.365 327.907 106.581 327.669 106.745L250.067 151.483L249.932 151.544C249.923 151.494 249.923 151.444 249.932 151.395V61.92C249.955 61.6326 250.042 61.354 250.186 61.1043C250.331 60.8546 250.529 60.6401 250.766 60.4762L328.368 15.7389C328.411 15.709 328.459 15.6883 328.511 15.6779L328.504 15.6712ZM328.551 15.0001C328.367 15.0056 328.186 15.0594 328.029 15.156L250.427 59.8933C250.086 60.1171 249.802 60.4176 249.598 60.7708C249.394 61.1239 249.276 61.5198 249.253 61.9268V151.401C249.253 151.93 249.518 152.235 249.932 152.235C250.117 152.23 250.297 152.176 250.454 152.079L328.056 107.342C328.399 107.12 328.684 106.82 328.888 106.466C329.092 106.113 329.209 105.716 329.23 105.308V15.8339C329.23 15.3051 328.965 14.9933 328.551 15.0001Z" fill="white"/>
<path d="M257.519 65.3364L285.088 49.4411V81.2317L257.519 97.127V65.3364Z" fill="#7E57C2"/>
<path opacity="0.8" d="M257.519 65.3364L285.088 49.4411V81.2317L257.519 97.127V65.3364Z" fill="white"/>
<path d="M280.955 57.3649V66.9225L280.086 67.4037V64.4822C280.086 62.869 278.776 62.3199 277.147 63.2554L265.467 69.9998C263.845 70.9353 262.528 73.0027 262.528 74.6159V77.5374L261.667 78.0526V68.5154L280.955 57.3649Z" fill="white"/>
<path d="M275.649 81.6993C274.237 82.5127 273.09 81.6586 273.09 79.781V64.4822L269.541 66.4073V81.8281C269.541 83.6989 268.394 85.8951 266.982 86.6882L264.417 88.1659V89.1826L278.201 81.2316V80.2216L275.649 81.6993Z" fill="white"/>
<path d="M290.579 47.8752C290.579 48.7564 291.373 49.0072 292.343 48.4514L319.165 32.9628C319.641 32.6934 320.048 32.3176 320.354 31.8648C320.66 31.4121 320.857 30.8947 320.93 30.3531C320.93 29.4787 320.136 29.2211 319.165 29.7838L292.364 45.2385C291.88 45.5073 291.466 45.8861 291.156 46.3442C290.846 46.8022 290.648 47.3267 290.579 47.8752Z" fill="#455A64"/>
<path d="M290.579 57.3649C290.579 58.2461 291.373 58.5037 292.343 57.9411L319.145 42.4864C319.621 42.217 320.028 41.8412 320.334 41.3884C320.64 40.9356 320.837 40.4182 320.909 39.8767C320.909 39.0023 320.115 38.7447 319.145 39.3073L292.343 54.762C291.868 55.0307 291.462 55.4055 291.156 55.857C290.85 56.3085 290.652 56.8246 290.579 57.3649Z" fill="#455A64"/>
<path d="M290.579 66.9225C290.579 67.8037 291.373 68.0612 292.343 67.4986L319.145 52.0439C319.62 51.7752 320.026 51.4005 320.332 50.9489C320.638 50.4974 320.836 49.9814 320.909 49.441C320.909 48.5598 320.115 48.3023 319.145 48.8649L292.343 64.3196C291.868 64.5883 291.462 64.9631 291.156 65.4146C290.85 65.8661 290.652 66.3822 290.579 66.9225Z" fill="#455A64"/>
<path d="M290.579 76.4597C290.579 77.3409 291.373 77.5985 292.343 77.0358L319.145 61.5811C319.62 61.3124 320.026 60.9377 320.332 60.4862C320.638 60.0346 320.836 59.5186 320.909 58.9783C320.909 58.0971 320.115 57.8395 319.145 58.4021L292.343 73.8568C291.868 74.1255 291.462 74.5003 291.156 74.9518C290.85 75.4033 290.652 75.9194 290.579 76.4597Z" fill="#455A64"/>
<path d="M257.519 105.078C257.519 105.959 258.306 106.217 259.284 105.654L319.165 71.0844C319.64 70.8165 320.047 70.442 320.354 69.9903C320.66 69.5386 320.857 69.0221 320.929 68.4815C320.929 67.6003 320.135 67.3495 319.165 67.9053L259.284 102.475C258.808 102.743 258.4 103.117 258.094 103.569C257.788 104.02 257.591 104.537 257.519 105.078Z" fill="#455A64"/>
<path d="M257.519 114.615C257.519 115.496 258.306 115.754 259.284 115.191L319.165 80.6622C319.641 80.3928 320.048 80.017 320.354 79.5643C320.66 79.1115 320.857 78.5941 320.929 78.0526C320.929 77.1781 320.135 76.9206 319.165 77.4832L259.284 112.012C258.808 112.28 258.4 112.654 258.094 113.106C257.788 113.558 257.591 114.074 257.519 114.615Z" fill="#455A64"/>
<path d="M257.519 124.159C257.519 125.033 258.306 125.291 259.284 124.728L319.165 90.1994C319.641 89.93 320.048 89.5542 320.354 89.1014C320.66 88.6486 320.857 88.1312 320.929 87.5897C320.929 86.7153 320.135 86.4577 319.165 87.0203L259.284 121.549C258.807 121.818 258.399 122.193 258.093 122.646C257.786 123.099 257.59 123.617 257.519 124.159Z" fill="#455A64"/>
<path d="M218.922 225.808L238.218 141.559L345.736 79.5573L326.441 163.813L218.922 225.808Z" fill="#7E57C2"/>
<path d="M245.229 148.155V210.644L270.042 196.335V133.852L245.229 148.155Z" fill="#7E57C2"/>
<path opacity="0.2" d="M245.229 148.155V210.644L270.042 196.335V133.852L245.229 148.155Z" fill="#222222"/>
<path d="M290.627 247.661C288.516 246.088 268.169 230.559 257.825 208.346C246.817 184.731 246.831 157.183 246.831 146.819V146.494L320.591 103.966C320.591 114.425 320.591 142.013 331.647 165.711C341.753 187.401 361.319 202.734 364.421 205.079L290.627 247.661Z" fill="white"/>
<path d="M320.252 104.576C320.252 115.476 320.462 142.535 331.342 165.88C341.108 186.825 359.677 201.887 363.811 205.066L290.647 247.254C287.79 245.106 268.21 229.834 258.138 208.231C247.143 184.683 247.143 157.19 247.143 146.84V146.711L320.225 104.57L320.252 104.576ZM320.904 103.397L246.465 146.324C246.465 156.078 246.261 184.419 257.493 208.516C268.549 232.166 290.58 248.068 290.58 248.068L365.039 205.134C365.039 205.134 342.981 189.231 331.96 165.582C320.72 141.485 320.931 113.144 320.931 103.39L320.904 103.397Z" fill="#7E57C2"/>
<path opacity="0.7" d="M320.252 104.576C320.252 115.476 320.462 142.535 331.342 165.88C341.108 186.825 359.677 201.887 363.811 205.066L290.647 247.254C287.79 245.106 268.21 229.834 258.138 208.231C247.143 184.683 247.143 157.19 247.143 146.84V146.711L320.225 104.57L320.252 104.576ZM320.904 103.397L246.465 146.324C246.465 156.078 246.261 184.419 257.493 208.516C268.549 232.166 290.58 248.068 290.58 248.068L365.039 205.134C365.039 205.134 342.981 189.231 331.96 165.582C320.72 141.485 320.931 113.144 320.931 103.39L320.904 103.397Z" fill="white"/>
<path d="M312.508 117.794L288.971 131.351C288.499 131.61 288.098 131.979 287.8 132.426C287.502 132.873 287.317 133.386 287.26 133.92C287.294 134.781 288.115 135.025 289.086 134.462L312.63 120.906C313.095 120.649 313.493 120.285 313.789 119.844C314.085 119.403 314.272 118.898 314.333 118.37C314.293 117.476 313.485 117.232 312.508 117.794Z" fill="#455A64"/>
<path d="M313.01 127.047L289.473 140.603C289.007 140.853 288.613 141.217 288.326 141.66C288.038 142.103 287.868 142.612 287.831 143.139C287.905 143.972 288.76 144.196 289.731 143.633L313.275 130.077C313.738 129.828 314.13 129.465 314.414 129.022C314.698 128.58 314.864 128.073 314.897 127.548C314.829 126.708 313.987 126.504 313.01 127.047Z" fill="#455A64"/>
<path d="M313.954 136.042L290.41 149.598C289.439 150.161 288.733 151.279 288.849 152.086C288.964 152.893 289.853 153.103 290.831 152.54L314.374 138.983C315.345 138.421 316.037 137.309 315.915 136.502C315.793 135.696 314.924 135.479 313.954 136.042Z" fill="#455A64"/>
<path d="M315.365 144.765L291.821 158.322C290.85 158.885 290.178 159.983 290.341 160.769C290.504 161.555 291.427 161.732 292.377 161.169L315.914 147.612C316.892 147.05 317.543 145.958 317.38 145.172C317.217 144.386 316.369 144.203 315.365 144.765Z" fill="#455A64"/>
<path d="M317.279 153.198L293.735 166.754C292.764 167.317 292.133 168.388 292.377 169.14C292.622 169.893 293.552 170.062 294.522 169.5L318.066 155.943C319.043 155.38 319.654 154.316 319.423 153.557C319.193 152.798 318.249 152.635 317.279 153.198Z" fill="#455A64"/>
<path d="M319.762 161.325L262.386 194.41C261.415 194.973 260.825 196.017 261.089 196.742C261.354 197.467 262.365 197.603 263.336 197.04L320.712 163.955C321.69 163.392 322.253 162.355 321.988 161.623C321.724 160.891 320.699 160.762 319.762 161.325Z" fill="#455A64"/>
<path d="M322.782 169.086L265.413 202.171C264.435 202.734 263.899 203.751 264.225 204.442C264.551 205.134 265.582 205.242 266.573 204.679L323.95 171.594C324.927 171.032 325.45 170.015 325.124 169.323C324.798 168.632 323.76 168.53 322.782 169.086Z" fill="#455A64"/>
<path d="M326.55 176.481L269.173 209.567C268.196 210.129 267.714 211.119 268.101 211.776C268.488 212.434 269.594 212.502 270.571 211.939L327.907 178.854C328.878 178.298 329.346 177.315 328.959 176.658C328.572 176 327.5 175.919 326.55 176.481Z" fill="#455A64"/>
<path d="M330.941 183.477L273.571 216.555C272.594 217.118 272.16 218.087 272.601 218.704C273.042 219.321 274.202 219.382 275.18 218.812L332.55 185.727C333.527 185.165 333.948 184.209 333.507 183.585C333.065 182.962 331.918 182.914 330.941 183.477Z" fill="#455A64"/>
<path d="M335.949 190.126L278.573 223.205C277.602 223.767 277.215 224.71 277.704 225.299C278.193 225.889 279.394 225.916 280.371 225.353L337.748 192.255C338.719 191.692 339.105 190.763 338.603 190.174C338.101 189.584 336.927 189.543 335.949 190.126Z" fill="#455A64"/>
<path d="M341.479 196.457L284.123 229.536C283.146 230.098 282.766 231.02 283.336 231.569C283.906 232.118 285.114 232.132 286.085 231.569L343.461 198.484C344.439 197.921 344.778 197.013 344.235 196.45C343.692 195.888 342.47 195.901 341.479 196.457Z" fill="#455A64"/>
<path d="M347.59 202.51L290.213 235.589C289.243 236.151 288.924 237.053 289.535 237.588C290.146 238.124 291.394 238.104 292.372 237.541L349.701 204.456C350.671 203.893 350.977 203.012 350.38 202.47C349.782 201.927 348.54 201.948 347.59 202.51Z" fill="#455A64"/>
<path d="M280.439 136.292L253.373 151.883C253.671 161.677 254.791 175.803 258.89 190.031L285.963 174.441C281.857 160.213 280.737 146.08 280.439 136.292Z" fill="#7E57C2"/>
<path opacity="0.8" d="M280.439 136.292L253.373 151.883C253.671 161.677 254.791 175.803 258.89 190.031L285.963 174.441C281.857 160.213 280.737 146.08 280.439 136.292Z" fill="white"/>
<path d="M264.408 149.727C264.445 149.095 264.346 148.462 264.119 147.871C263.892 147.279 263.542 146.743 263.091 146.297L253.373 151.896C253.454 154.485 253.59 157.38 253.827 160.498C255.092 160.643 256.37 160.407 257.499 159.82C261.32 158.071 264.408 153.537 264.408 149.727Z" fill="#7E57C2"/>
<path opacity="0.6" d="M264.408 149.727C264.445 149.095 264.346 148.462 264.119 147.871C263.892 147.279 263.542 146.743 263.091 146.297L253.373 151.896C253.454 154.485 253.59 157.38 253.827 160.498C255.092 160.643 256.37 160.407 257.499 159.82C261.32 158.071 264.408 153.537 264.408 149.727Z" fill="white"/>
<path d="M283.662 165.087C281.857 162.816 278.185 155.801 276.618 152.744C276.556 152.623 276.459 152.523 276.341 152.458C276.222 152.392 276.086 152.364 275.951 152.376C275.815 152.389 275.687 152.441 275.582 152.527C275.477 152.613 275.401 152.729 275.362 152.859C273.666 158.649 272.681 164.624 272.43 170.652C270.17 168.86 268.226 166.701 266.682 164.267C266.616 164.172 266.524 164.099 266.418 164.055C266.311 164.011 266.195 163.998 266.081 164.018C265.968 164.038 265.863 164.09 265.778 164.167C265.693 164.245 265.632 164.345 265.602 164.457C262.643 175.837 264.13 187.035 264.13 187.035L285.963 174.441C285.054 171.296 284.3 168.164 283.662 165.087Z" fill="#7E57C2"/>
<path opacity="0.6" d="M283.662 165.087C281.857 162.816 278.185 155.801 276.618 152.744C276.556 152.623 276.459 152.523 276.341 152.458C276.222 152.392 276.086 152.364 275.951 152.376C275.815 152.389 275.687 152.441 275.582 152.527C275.477 152.613 275.401 152.729 275.362 152.859C273.666 158.649 272.681 164.624 272.43 170.652C270.17 168.86 268.226 166.701 266.682 164.267C266.616 164.172 266.524 164.099 266.418 164.055C266.311 164.011 266.195 163.998 266.081 164.018C265.968 164.038 265.863 164.09 265.778 164.167C265.693 164.245 265.632 164.345 265.602 164.457C262.643 175.837 264.13 187.035 264.13 187.035L285.963 174.441C285.054 171.296 284.3 168.164 283.662 165.087Z" fill="white"/>
</svg>
