<svg width="20" height="20" viewBox="0 0 20 20" fill="none" xmlns="http://www.w3.org/2000/svg">
<path d="M10 0.25C7.4791 0.250046 5.05619 1.22647 3.23968 2.97439C1.42317 4.72231 0.35426 7.10586 0.257232 9.62489C0.160204 12.1439 1.0426 14.6026 2.71928 16.4851C4.39595 18.3676 6.73657 19.5275 9.25 19.7214V12.2501H7C6.80109 12.2501 6.61032 12.1711 6.46967 12.0304C6.32902 11.8898 6.25 11.699 6.25 11.5001C6.25 11.3012 6.32902 11.1104 6.46967 10.9698C6.61032 10.8291 6.80109 10.7501 7 10.7501H9.25V8.50009C9.25091 7.70472 9.56727 6.94218 10.1297 6.37977C10.6921 5.81736 11.4546 5.501 12.25 5.50009H13.75C13.9489 5.50009 14.1397 5.57911 14.2803 5.71976C14.421 5.86041 14.5 6.05118 14.5 6.25009C14.5 6.449 14.421 6.63977 14.2803 6.78042C14.1397 6.92107 13.9489 7.00009 13.75 7.00009H12.25C11.8523 7.00054 11.471 7.15872 11.1898 7.43993C10.9086 7.72114 10.7505 8.1024 10.75 8.50009V10.7501H13C13.1989 10.7501 13.3897 10.8291 13.5303 10.9698C13.671 11.1104 13.75 11.3012 13.75 11.5001C13.75 11.699 13.671 11.8898 13.5303 12.0304C13.3897 12.1711 13.1989 12.2501 13 12.2501H10.75V19.7214C13.2634 19.5275 15.604 18.3676 17.2807 16.4851C18.9574 14.6026 19.8398 12.1439 19.7427 9.62489C19.6457 7.10587 18.5768 4.72232 16.7603 2.9744C14.9438 1.22649 12.5209 0.250055 10 0.25Z" fill="#222222"/>
</svg>
