<svg width="40" height="40" viewBox="0 0 40 40" fill="none" xmlns="http://www.w3.org/2000/svg">
<path d="M20.0002 36.6667C29.2049 36.6667 36.6668 29.2048 36.6668 20C36.6668 10.7953 29.2049 3.33334 20.0002 3.33334C10.7954 3.33334 3.3335 10.7953 3.3335 20C3.3335 29.2048 10.7954 36.6667 20.0002 36.6667Z" stroke="#B3ACA2" stroke-width="2" stroke-linecap="round" stroke-linejoin="round"/>
<path d="M20.0002 26.6667C23.6821 26.6667 26.6668 23.6819 26.6668 20C26.6668 16.3181 23.6821 13.3333 20.0002 13.3333C16.3183 13.3333 13.3335 16.3181 13.3335 20C13.3335 23.6819 16.3183 26.6667 20.0002 26.6667Z" stroke="#B3ACA2" stroke-width="2" stroke-linecap="round" stroke-linejoin="round"/>
<path d="M8.2168 8.21661L15.2835 15.2833" stroke="#B3ACA2" stroke-width="2" stroke-linecap="round" stroke-linejoin="round"/>
<path d="M24.7168 24.7167L31.7835 31.7834" stroke="#B3ACA2" stroke-width="2" stroke-linecap="round" stroke-linejoin="round"/>
<path d="M24.7168 15.2833L31.7835 8.21661" stroke="#B3ACA2" stroke-width="2" stroke-linecap="round" stroke-linejoin="round"/>
<path d="M24.7168 15.2833L30.6001 9.39993" stroke="#B3ACA2" stroke-width="2" stroke-linecap="round" stroke-linejoin="round"/>
<path d="M8.2168 31.7834L15.2835 24.7167" stroke="#B3ACA2" stroke-width="2" stroke-linecap="round" stroke-linejoin="round"/>
</svg>
