<svg width="50" height="50" viewBox="0 0 50 50" fill="none" xmlns="http://www.w3.org/2000/svg">
<path d="M1 25C1 11.8023 11.8023 1 25 1C38.1977 1 49 11.8023 49 25C49 38.1977 38.1977 49 25 49C11.8023 49 1 38.1977 1 25ZM33.36 35.3573C34.7228 36.1959 36.5074 35.771 37.346 34.4082C38.1913 33.0346 37.7522 31.2351 36.3692 30.4053L28.221 25.5164C27.6186 25.155 27.25 24.504 27.25 23.8014V14.375C27.25 12.7872 25.9628 11.5 24.375 11.5C22.7872 11.5 21.5 12.7872 21.5 14.375V25.8236C21.5 27.2127 22.2206 28.5023 23.4036 29.2302L33.36 35.3573Z" stroke="#B3ACA2" stroke-width="2"/>
</svg>
