<svg width="130" height="26" viewBox="0 0 130 26" fill="none" xmlns="http://www.w3.org/2000/svg">
<path d="M41.7916 21.1446C41.1345 21.1801 40.4846 20.994 39.9467 20.6161C39.4904 20.2791 39.2301 19.7395 39.2507 19.1738V8.96746C39.2398 8.8799 39.2701 8.79223 39.3327 8.72984C39.3953 8.66745 39.4832 8.63732 39.5711 8.64817H41.427C41.6369 8.64817 41.7363 8.75827 41.7363 8.96746V18.3811C41.7363 18.7995 41.9241 19.0087 42.3108 19.0087C42.4747 19.0154 42.6386 18.9968 42.7969 18.9536C43.0178 18.9536 43.1393 19.0197 43.1504 19.2179L43.3161 20.5941C43.3322 20.6753 43.3122 20.7595 43.2614 20.8249C43.2106 20.8903 43.1338 20.9306 43.0509 20.9354C42.6444 21.0693 42.2196 21.1398 41.7916 21.1446Z" fill="#222222"/>
<path fill-rule="evenodd" clip-rule="evenodd" d="M45.6027 19.9665C47.5263 21.5505 50.3074 21.5505 52.231 19.9665V19.9555C53.8948 18.2262 53.8948 15.4971 52.231 13.7678C50.3043 12.1925 47.5295 12.1925 45.6027 13.7678C43.8967 15.4842 43.8967 18.25 45.6027 19.9665ZM50.5078 18.5131C49.6112 19.3226 48.2449 19.3226 47.3483 18.5131C46.5384 17.5851 46.5384 16.2042 47.3483 15.2761C48.2449 14.4667 49.6112 14.4667 50.5078 15.2761C51.3176 16.2042 51.3176 17.5851 50.5078 18.5131Z" fill="#222222"/>
<path fill-rule="evenodd" clip-rule="evenodd" d="M64.0073 13.1843C64.0073 12.9751 63.9079 12.865 63.698 12.865L61.8642 12.876C61.7781 12.8688 61.6934 12.9005 61.6334 12.9624C61.5734 13.0243 61.5446 13.1098 61.5548 13.1953V13.3714C60.8807 12.8575 60.0502 12.5894 59.2018 12.6117C58.0379 12.5704 56.9066 12.9991 56.0644 13.8008C54.4089 15.5078 54.4089 18.2155 56.0644 19.9225C56.9027 20.7314 58.0357 21.1648 59.2018 21.1226C60.0264 21.1459 60.8351 20.894 61.4996 20.4069V21.1005C61.5221 21.6107 61.3346 22.1078 60.9804 22.4768C60.5928 22.8294 60.0793 23.0119 59.5553 22.9833C59.1254 22.9919 58.7001 22.8935 58.318 22.697C58.0045 22.528 57.7645 22.2497 57.6442 21.9153C57.5833 21.7667 57.4406 21.6675 57.2796 21.662H55.4237C55.1254 21.662 55.1254 21.7611 55.1254 21.9813C55.2808 22.8835 55.8049 23.6809 56.5726 24.1834C57.462 24.758 58.5071 25.0462 59.5664 25.0091C60.7391 25.0606 61.8878 24.6672 62.7811 23.9081C63.596 23.1967 64.0464 22.1575 64.0073 21.0785V13.1843ZM60.9251 18.5131C60.5422 18.9426 59.9878 19.1805 59.4117 19.1627C58.8293 19.1795 58.2686 18.9423 57.8761 18.5131C57.4799 18.0597 57.2707 17.4736 57.2906 16.8726C57.2663 16.2657 57.4803 15.6733 57.8872 15.2211C58.2787 14.7907 58.8401 14.5533 59.4227 14.5715C59.9936 14.5527 60.5436 14.7865 60.9251 15.2101C61.6806 16.1824 61.6806 17.5408 60.9251 18.5131Z" fill="#222222"/>
<path fill-rule="evenodd" clip-rule="evenodd" d="M66.9125 19.9664C68.8392 21.5418 71.614 21.5418 73.5407 19.9664V19.9554C75.2045 18.2262 75.2045 15.497 73.5407 13.7678C71.6125 12.1967 68.8407 12.1967 66.9125 13.7678C65.2473 15.5007 65.2473 18.2335 66.9125 19.9664ZM70.2376 19.1187C69.6475 19.1368 69.0746 18.9187 68.6468 18.5131C67.8511 17.5799 67.8511 16.2094 68.6468 15.2762C69.0746 14.8706 69.6475 14.6525 70.2376 14.6706C70.824 14.6555 71.3923 14.8733 71.8174 15.2762C72.6131 16.2094 72.6131 17.5799 71.8174 18.5131C71.3923 18.916 70.824 19.1338 70.2376 19.1187Z" fill="#222222"/>
<path fill-rule="evenodd" clip-rule="evenodd" d="M76.6673 10.9933C77.2713 11.5202 78.1733 11.5202 78.7773 10.9933C79.0449 10.7416 79.1966 10.3911 79.1966 10.0244C79.1966 9.65771 79.0449 9.30722 78.7773 9.05553C78.1681 8.54269 77.2765 8.54269 76.6673 9.05553C76.3997 9.30722 76.248 9.65771 76.248 10.0244C76.248 10.3911 76.3997 10.7416 76.6673 10.9933ZM77.1643 20.6161C77.7037 20.9908 78.3525 21.1767 79.0092 21.1446C79.441 21.1406 79.8695 21.07 80.2796 20.9354C80.3625 20.9306 80.4393 20.8903 80.4901 20.8248C80.541 20.7594 80.5609 20.6753 80.5448 20.5941L80.3791 19.2178C80.368 19.0196 80.2465 18.9536 80.0256 18.9536C79.8634 18.9961 79.696 19.0146 79.5284 19.0086C79.1528 19.0086 78.965 18.7994 78.965 18.381V13.1843C78.965 12.9751 78.8656 12.865 78.6557 12.865H76.7998C76.7119 12.8541 76.624 12.8843 76.5614 12.9467C76.4988 13.009 76.4685 13.0967 76.4794 13.1843V19.1738C76.46 19.7367 76.7152 20.2742 77.1643 20.6161Z" fill="#222222"/>
<path fill-rule="evenodd" clip-rule="evenodd" d="M90.5315 13.7898C89.6833 12.9836 88.5433 12.5546 87.3721 12.6007C86.3494 12.5785 85.3626 12.9767 84.6434 13.7018C84.2641 12.9631 83.4732 12.5276 82.6439 12.6007C82.2373 12.5933 81.8329 12.6605 81.4508 12.7989C81.2908 12.8452 81.1849 12.9966 81.1967 13.1623V14.4615C81.1967 14.6376 81.3182 14.7257 81.5613 14.7257H81.9258C82.1055 14.6994 82.287 14.7593 82.4154 14.8873C82.5438 15.0153 82.604 15.1962 82.5776 15.3753V24.4036C82.5615 24.4893 82.5889 24.5773 82.6507 24.639C82.7126 24.7006 82.8009 24.7279 82.8869 24.7119H84.7428C84.9527 24.7119 85.0632 24.6128 85.0632 24.4036V20.4289C85.7341 20.9116 86.5448 21.1629 87.3721 21.1446C88.5455 21.1916 89.6872 20.758 90.5315 19.9445C92.1523 18.2109 92.1523 15.5234 90.5315 13.7898ZM87.1732 19.1622C86.5974 19.1622 86.0467 18.9278 85.6487 18.5132C85.2496 18.0441 85.0408 17.4433 85.0632 16.8286C85.0375 16.2135 85.2467 15.6116 85.6487 15.1441C86.0467 14.7295 86.5974 14.495 87.1732 14.495C87.7489 14.495 88.2996 14.7295 88.6977 15.1441C89.1157 15.6035 89.3342 16.2091 89.3053 16.8286C89.3306 17.4476 89.1126 18.052 88.6977 18.5132C88.2996 18.9278 87.7489 19.1622 87.1732 19.1622Z" fill="#222222"/>
<path d="M96.9609 21.1446C95.9692 21.1852 94.9858 20.9488 94.1218 20.462C93.4195 20.0404 92.9479 19.3232 92.8403 18.5132C92.8403 18.293 92.9177 18.1829 93.1607 18.1829H94.7846C94.9421 18.189 95.0829 18.2826 95.1492 18.4251C95.3812 19.0197 95.9888 19.3169 96.9609 19.3169C97.3 19.3324 97.6377 19.2643 97.9441 19.1187C98.1596 19.0218 98.304 18.8144 98.3197 18.5792C98.3197 18.293 98.143 18.0948 97.7895 17.9627C97.3702 17.8236 96.9367 17.7313 96.4969 17.6874C95.976 17.6287 95.4595 17.5367 94.9503 17.4122C94.4552 17.3005 94.005 17.0436 93.6578 16.6745C93.2445 16.1675 93.0609 15.5121 93.151 14.865C93.241 14.2179 93.5966 13.6371 94.1328 13.2614C94.9291 12.7558 95.8634 12.5096 96.8063 12.5567C97.7192 12.526 98.6224 12.751 99.4134 13.2063C100.059 13.5707 100.505 14.2057 100.629 14.9349C100.629 15.1551 100.529 15.2652 100.33 15.2652H98.6953C98.5544 15.2735 98.4228 15.1948 98.3639 15.067C98.2547 14.8062 98.049 14.5973 97.7895 14.4835C97.4967 14.3308 97.1697 14.255 96.8394 14.2633C96.5156 14.2457 96.1925 14.3101 95.9004 14.4505C95.6898 14.5314 95.5498 14.732 95.5469 14.9569C95.5614 15.266 95.7765 15.5295 96.0771 15.6065C96.5014 15.7659 96.9424 15.8767 97.3918 15.9368C97.9084 16.0046 98.421 16.1001 98.9273 16.2231C99.4224 16.3348 99.8726 16.5917 100.22 16.9608C100.595 17.3714 100.79 17.9145 100.761 18.4691C100.781 19.2434 100.39 19.9708 99.7338 20.3849C98.9084 20.913 97.9412 21.178 96.9609 21.1446Z" fill="#222222"/>
<path d="M112.438 20.5941C112.45 20.6731 112.431 20.7538 112.383 20.818C112.335 20.8822 112.263 20.9245 112.184 20.9354C111.78 21.0666 111.36 21.1371 110.935 21.1446C110.081 21.2327 109.243 20.8694 108.726 20.1867C107.946 20.8554 106.937 21.1984 105.909 21.1446C104.944 21.1889 104.005 20.825 103.324 20.1427C102.648 19.4282 102.293 18.4702 102.341 17.4892V13.1843C102.341 12.9751 102.44 12.865 102.65 12.865H104.506C104.716 12.865 104.815 12.9751 104.815 13.1843V17.1589C104.795 17.6541 104.965 18.1384 105.29 18.5132C105.619 18.8605 106.082 19.0493 106.561 19.0306C107.05 19.052 107.527 18.8776 107.886 18.5462C108.227 18.1967 108.407 17.7224 108.384 17.236V13.1843C108.384 12.9751 108.483 12.865 108.693 12.865H110.571C110.781 12.865 110.88 12.9751 110.88 13.1843V18.37C110.88 18.7994 111.068 19.0086 111.433 19.0086C111.604 19.0152 111.775 18.9967 111.941 18.9536C112.025 18.9299 112.116 18.9462 112.187 18.9977C112.258 19.0492 112.302 19.1303 112.305 19.2178L112.438 20.5941Z" fill="#222222"/>
<path d="M129.992 20.5941C130.012 20.674 129.995 20.7585 129.946 20.8245C129.896 20.8906 129.82 20.9313 129.738 20.9354C129.327 21.0685 128.899 21.1391 128.467 21.1446C127.81 21.1784 127.161 20.9924 126.622 20.6161C126.149 20.2888 125.872 19.7476 125.882 19.1738V16.5864C125.906 16.0927 125.74 15.6086 125.418 15.2322C125.104 14.8838 124.65 14.6939 124.181 14.7147C123.758 14.6988 123.351 14.8774 123.076 15.1992C122.785 15.5681 122.636 16.0292 122.657 16.4984V20.5611C122.657 20.7703 122.557 20.8804 122.347 20.8804H120.48C120.392 20.8912 120.304 20.8611 120.242 20.7987C120.179 20.7363 120.149 20.6487 120.16 20.5611V16.5864C120.184 16.0981 120.031 15.6175 119.729 15.2322C119.456 14.9046 119.051 14.7149 118.624 14.7147C118.169 14.6964 117.727 14.8726 117.409 15.1992C117.093 15.5563 116.931 16.0229 116.956 16.4984V20.5611C116.967 20.6487 116.937 20.7363 116.874 20.7987C116.812 20.8611 116.724 20.8912 116.636 20.8804H114.835C114.625 20.8804 114.526 20.7703 114.526 20.5611V15.3753C114.552 15.1963 114.492 15.0153 114.364 14.8874C114.235 14.7594 114.054 14.6995 113.874 14.7257H113.509C113.266 14.7257 113.145 14.6377 113.145 14.4615V13.1623C113.133 12.9967 113.239 12.8453 113.399 12.799C113.781 12.6605 114.186 12.5934 114.592 12.6008C115.389 12.5332 116.153 12.9271 116.559 13.6137C117.312 12.902 118.329 12.535 119.364 12.6008C120.374 12.5517 121.346 12.9852 121.983 13.7679C122.723 12.9659 123.785 12.5375 124.877 12.6008C125.852 12.5553 126.801 12.9187 127.495 13.6027C128.174 14.3158 128.529 15.2748 128.478 16.2561V18.3811C128.478 18.7995 128.666 19.0087 129.02 19.0087C129.191 19.0166 129.362 18.9981 129.528 18.9536C129.756 18.9536 129.878 19.0417 129.892 19.2179L129.992 20.5941Z" fill="#222222"/>
<path fill-rule="evenodd" clip-rule="evenodd" d="M0.452967 11.4337C2.13001 4.71569 8.18302 0 15.1291 0C22.0752 0 28.1282 4.71569 29.8052 11.4337H28.4796C26.2433 11.4009 24.0529 12.067 22.2159 13.3384C22.1098 13.4149 21.9992 13.4848 21.8844 13.5476H21.7298C21.6151 13.4848 21.5044 13.4149 21.3984 13.3384C17.6075 10.7979 12.6507 10.7979 8.85985 13.3384C8.75383 13.4149 8.64315 13.4848 8.52843 13.5476H8.37377C8.25906 13.4848 8.14838 13.4149 8.04236 13.3384C6.20537 12.067 4.01492 11.4009 1.77863 11.4337H0.452967ZM26.0934 18.337C26.7739 17.8088 27.6173 17.5325 28.4796 17.5553H30.2581V14.0211H28.4796C26.9608 14.0028 25.4768 14.4739 24.2485 15.3643C22.8297 16.4068 20.895 16.4068 19.4761 15.3643C16.8966 13.5747 13.472 13.5747 10.8925 15.3643C9.47365 16.4068 7.53896 16.4068 6.12012 15.3643C4.87665 14.4625 3.37137 13.9908 1.83383 14.0211H0V17.5553H1.77859C2.64083 17.5325 3.48426 17.8088 4.16478 18.337C6.7398 20.128 10.1623 20.128 12.7374 18.337C13.4188 17.8105 14.2616 17.5344 15.1236 17.5553C15.9861 17.5307 16.8301 17.8072 17.5097 18.337C20.0892 20.1267 23.5139 20.1267 26.0934 18.337ZM28.4796 23.8751C27.6173 23.8523 26.7739 24.1286 26.0934 24.6568C23.5139 26.4464 20.0892 26.4464 17.5097 24.6568C16.8301 24.127 15.9861 23.8505 15.1236 23.8751C14.2616 23.8542 13.4188 24.1303 12.7374 24.6568C10.1623 26.4478 6.7398 26.4478 4.16478 24.6568C3.48426 24.1286 2.64083 23.8523 1.77859 23.8751H0V20.3409H1.83383C3.37137 20.3106 4.87665 20.7823 6.12012 21.6841C7.53896 22.7266 9.47365 22.7266 10.8925 21.6841C13.472 19.8945 16.8966 19.8945 19.4761 21.6841C20.895 22.7266 22.8297 22.7266 24.2485 21.6841C25.4768 20.7937 26.9608 20.3226 28.4796 20.3409H30.2581V23.8751H28.4796Z" fill="#715CDD"/>
</svg>
