<svg width="329" height="265" viewBox="0 0 329 265" fill="none" xmlns="http://www.w3.org/2000/svg">
<path d="M0 5C0 2.23857 2.23858 0 5 0H329V270H5C2.23858 270 0 267.761 0 265V5Z" fill="#F2F2F2"/>
<path d="M316.5 220.801H12.4999V220.953H316.5V220.801Z" fill="#EBEBEB"/>
<path d="M286.039 230.584H272.858V230.736H286.039V230.584Z" fill="#EBEBEB"/>
<path d="M222.059 227.434H201.32V227.586H222.059V227.434Z" fill="#EBEBEB"/>
<path d="M280.701 224.941H253.627V225.093H280.701V224.941Z" fill="#EBEBEB"/>
<path d="M117.696 228.006H110.923V228.158H117.696V228.006Z" fill="#EBEBEB"/>
<path d="M105.506 228.006H82.1646V228.158H105.506V228.006Z" fill="#EBEBEB"/>
<path d="M69.658 225.44H52.8164V225.592H69.658V225.44Z" fill="#EBEBEB"/>
<path d="M156.596 193.684H39.2032C38.2825 193.684 37.3995 193.318 36.7484 192.667C36.0973 192.016 35.7316 191.133 35.7316 190.212V25.183C35.7396 24.2675 36.1089 23.3923 36.7591 22.7478C37.4093 22.1033 38.2877 21.7417 39.2032 21.7417H156.596C157.517 21.7417 158.4 22.1075 159.051 22.7585C159.702 23.4096 160.068 24.2926 160.068 25.2134V190.212C160.068 191.133 159.702 192.016 159.051 192.667C158.4 193.318 157.517 193.684 156.596 193.684ZM39.2032 21.8633C38.3233 21.8649 37.4799 22.2152 36.8577 22.8374C36.2354 23.4596 35.8852 24.303 35.8836 25.183V190.212C35.8852 191.092 36.2354 191.936 36.8577 192.558C37.4799 193.18 38.3233 193.531 39.2032 193.532H156.596C157.476 193.531 158.319 193.18 158.942 192.558C159.564 191.936 159.914 191.092 159.916 190.212V25.183C159.914 24.303 159.564 23.4596 158.942 22.8374C158.319 22.2152 157.476 21.8649 156.596 21.8633H39.2032Z" fill="#EBEBEB"/>
<path d="M288.113 193.684H170.708C169.787 193.683 168.905 193.316 168.255 192.666C167.604 192.015 167.238 191.133 167.236 190.212V25.183C167.246 24.268 167.615 23.3937 168.265 22.7495C168.915 22.1053 169.793 21.7432 170.708 21.7417H288.113C289.026 21.7449 289.901 22.1079 290.549 22.752C291.196 23.3962 291.564 24.2696 291.572 25.183V190.212C291.572 191.131 291.208 192.012 290.56 192.663C289.911 193.314 289.031 193.681 288.113 193.684ZM170.708 21.8633C169.828 21.8649 168.984 22.2152 168.362 22.8374C167.74 23.4596 167.39 24.303 167.388 25.183V190.212C167.39 191.092 167.74 191.936 168.362 192.558C168.984 193.18 169.828 193.531 170.708 193.532H288.113C288.992 193.531 289.836 193.18 290.458 192.558C291.08 191.936 291.431 191.092 291.432 190.212V25.183C291.431 24.303 291.08 23.4596 290.458 22.8374C289.836 22.2152 288.992 21.8649 288.113 21.8633H170.708Z" fill="#EBEBEB"/>
<path d="M249.851 173.049C249.626 173.049 249.395 173.049 249.164 173.049C244.3 173.444 240.324 178.095 240.014 183.828C239.941 185.09 240.047 186.355 240.33 187.586C241.408 192.532 241.926 197.584 241.874 202.646V217.427C241.842 217.903 241.998 218.373 242.308 218.735C242.618 219.098 243.058 219.324 243.534 219.366H276.159V173.049H249.851Z" fill="#F0F0F0"/>
<path d="M286.021 184.607C286.021 177.955 281.23 172.617 275.472 173.055C270.608 173.45 266.632 178.101 266.352 183.835C266.28 185.096 266.386 186.361 266.668 187.592C267.747 192.538 268.265 197.59 268.213 202.652V217.433C268.181 217.909 268.336 218.379 268.647 218.741C268.957 219.104 269.397 219.33 269.872 219.372H282.513C282.987 219.329 283.426 219.102 283.735 218.739C284.044 218.377 284.199 217.908 284.167 217.433V201.801C284.128 197.056 284.642 192.322 285.699 187.695C285.925 186.682 286.033 185.645 286.021 184.607Z" fill="#FAFAFA"/>
<path d="M262.577 193.186H228.139V219.39H262.577V193.186Z" fill="#F5F5F5"/>
<path d="M232.383 133.237H194.541C193.507 133.22 192.48 133.423 191.53 133.832C190.58 134.242 189.728 134.849 189.031 135.613C188.333 136.377 187.806 137.281 187.485 138.265C187.163 139.248 187.055 140.289 187.166 141.317L192.079 197.618H246.081L241.169 141.317C240.946 139.129 239.929 137.098 238.31 135.609C236.691 134.12 234.582 133.276 232.383 133.237Z" fill="#E6E6E6"/>
<path d="M237.217 133.237H203.169C202.147 133.215 201.132 133.412 200.192 133.814C199.252 134.216 198.408 134.814 197.718 135.567C197.027 136.321 196.505 137.214 196.187 138.185C195.869 139.157 195.762 140.185 195.873 141.202L200.798 197.618H250.836L245.911 141.202C245.689 139.039 244.682 137.034 243.079 135.566C241.476 134.097 239.39 133.269 237.217 133.237Z" fill="#F5F5F5"/>
<path d="M230.365 192.243H262.552C263.012 192.243 263.452 192.426 263.777 192.751C264.102 193.076 264.285 193.516 264.285 193.976V196.767C264.285 197.226 264.102 197.667 263.777 197.992C263.452 198.317 263.012 198.5 262.552 198.5H230.365C230.297 198.5 230.23 198.486 230.167 198.46C230.104 198.434 230.047 198.396 229.999 198.348C229.951 198.3 229.913 198.243 229.887 198.181C229.861 198.118 229.848 198.051 229.848 197.983V192.766C229.847 192.698 229.86 192.63 229.885 192.566C229.911 192.503 229.949 192.445 229.997 192.397C230.045 192.348 230.102 192.309 230.165 192.283C230.229 192.257 230.296 192.243 230.365 192.243Z" fill="#EBEBEB"/>
<path d="M194.401 219.39H276.658V219.5C276.658 219.845 276.521 220.176 276.277 220.42C276.033 220.664 275.702 220.801 275.357 220.801H195.709C195.363 220.801 195.033 220.664 194.789 220.42C194.545 220.176 194.407 219.845 194.407 219.5V219.39H194.401Z" fill="#E6E6E6"/>
<path d="M194.9 173.049C194.675 173.049 194.444 173.049 194.213 173.049C189.349 173.444 185.373 178.095 185.062 183.828C184.99 185.09 185.096 186.355 185.379 187.586C186.457 192.532 186.975 197.584 186.923 202.646V217.427C186.891 217.903 187.047 218.373 187.357 218.735C187.667 219.098 188.107 219.324 188.583 219.366H228.614V173.049H194.9Z" fill="#F0F0F0"/>
<path d="M238.469 184.607C238.469 177.955 233.678 172.617 227.92 173.055C223.056 173.45 219.08 178.101 218.77 183.835C218.697 185.096 218.804 186.361 219.086 187.592C220.165 192.538 220.683 197.59 220.63 202.652V217.433C220.598 217.909 220.754 218.379 221.065 218.741C221.375 219.104 221.815 219.33 222.29 219.372H234.931C235.405 219.329 235.843 219.102 236.153 218.739C236.462 218.377 236.617 217.908 236.584 217.433V201.801C236.547 197.056 237.059 192.323 238.111 187.695C238.352 186.684 238.472 185.647 238.469 184.607Z" fill="#FAFAFA"/>
<path d="M280.555 202.421H249.097V220.801H280.555V202.421Z" fill="#F0F0F0"/>
<path d="M280.762 201.473H248.903C248.191 201.473 247.614 202.05 247.614 202.762V206.434C247.614 207.146 248.191 207.723 248.903 207.723H280.762C281.474 207.723 282.051 207.146 282.051 206.434V202.762C282.051 202.05 281.474 201.473 280.762 201.473Z" fill="#E6E6E6"/>
<path d="M83.4596 138.539H75.434V169.65H83.4596V138.539Z" fill="#E6E6E6"/>
<path d="M136.757 169.65H78.5834L74.5585 133.237H132.732L136.757 169.65Z" fill="#F0F0F0"/>
<path d="M139.645 169.65H80.5898L76.5648 133.237H135.62L139.645 169.65Z" fill="#F5F5F5"/>
<path d="M82.578 166.78L79.1914 136.107H133.632L137.024 166.78H82.578Z" fill="white"/>
<path d="M91.7284 159.344L91.5886 158.098C90.7374 150.401 95.5406 143.542 101.785 143.542L101.925 144.758C102.776 152.456 97.9665 159.314 91.7284 159.314V159.344Z" fill="#F5F5F5"/>
<path d="M103.633 159.344L103.493 158.098C102.642 150.401 107.445 143.542 113.689 143.542L113.829 144.758C114.68 152.456 109.871 159.314 103.633 159.314V159.344Z" fill="#F5F5F5"/>
<path d="M115.538 159.344L115.398 158.098C114.547 150.401 119.356 143.542 125.594 143.542L125.734 144.758C126.585 152.456 121.776 159.314 115.538 159.314V159.344Z" fill="#F5F5F5"/>
<path d="M178.751 169.65H144.284V220.801H178.751V169.65Z" fill="#E6E6E6"/>
<path d="M175.28 220.801H178.745V210.939H171.644L175.28 220.801Z" fill="#F0F0F0"/>
<path d="M82.1524 169.65H47.6848V220.801H82.1524V169.65Z" fill="#E6E6E6"/>
<path d="M178.745 169.65H79.1245V214.751H178.745V169.65Z" fill="#F0F0F0"/>
<path d="M82.5901 220.801H79.1245V210.939H86.226L82.5901 220.801Z" fill="#F0F0F0"/>
<path d="M176.058 172.471H81.818V190.669H176.058V172.471Z" fill="#E6E6E6"/>
<path d="M135.225 178.125H122.651C119.95 178.126 117.277 177.575 114.795 176.508C112.313 175.441 110.075 173.879 108.217 171.918H149.659C147.801 173.879 145.563 175.441 143.081 176.508C140.599 177.575 137.926 178.126 135.225 178.125Z" fill="#F0F0F0"/>
<path d="M176.058 193.611H81.818V211.809H176.058V193.611Z" fill="#E6E6E6"/>
<path d="M135.225 199.278H122.651C119.95 199.278 117.277 198.728 114.795 197.66C112.313 196.593 110.075 195.031 108.217 193.07H149.659C147.801 195.031 145.563 196.593 143.081 197.66C140.599 198.728 137.926 199.278 135.225 199.278Z" fill="#F0F0F0"/>
<path d="M272.45 37.7017H50.6702V113.094H272.45V37.7017Z" fill="#E6E6E6"/>
<path d="M274.657 37.7017H51.6976V113.094H274.657V37.7017Z" fill="#F0F0F0"/>
<path d="M272.45 113.094H50.6702V117.198H272.45V113.094Z" fill="#E6E6E6"/>
<path d="M278.336 113.094H55.3761V117.198H278.336V113.094Z" fill="#F0F0F0"/>
<path d="M271.569 110.011V40.7964L54.7924 40.7964V110.011L271.569 110.011Z" fill="#FAFAFA"/>
<path d="M240.524 110.005L245.473 40.7903H254.034L249.085 110.005H240.524Z" fill="white"/>
<path d="M70.6976 110.005L75.6468 40.7903H84.2074L79.2644 110.005H70.6976Z" fill="white"/>
<path d="M56.2212 74.7533C56.1898 74.7541 56.1586 74.7485 56.1295 74.7369C56.1003 74.7253 56.0739 74.7079 56.0517 74.6857C56.0295 74.6635 56.0121 74.637 56.0004 74.6079C55.9888 74.5787 55.9833 74.5475 55.9841 74.5162V42.8029C55.9841 42.74 56.0091 42.6797 56.0535 42.6352C56.098 42.5907 56.1583 42.5657 56.2212 42.5657C56.2836 42.5673 56.343 42.5928 56.3872 42.6369C56.4313 42.681 56.4568 42.7405 56.4583 42.8029V74.5162C56.4583 74.579 56.4333 74.6394 56.3889 74.6838C56.3444 74.7283 56.2841 74.7533 56.2212 74.7533Z" fill="#F0F0F0"/>
<path d="M250.927 110.005L255.876 40.7903H259.208L254.265 110.005H250.927Z" fill="white"/>
<path d="M271.569 110.005V40.7903H271.174V110.005H271.569Z" fill="#E6E6E6"/>
<path opacity="0.5" d="M275.387 46.3961H53.6068L53.321 41.9942H275.101L275.387 46.3961Z" fill="#E0E0E0"/>
<path opacity="0.5" d="M275.387 53.6313H53.6068L53.321 49.2294H275.101L275.387 53.6313Z" fill="#E0E0E0"/>
<path opacity="0.5" d="M275.387 60.8665H53.6068L53.321 56.4646H275.101L275.387 60.8665Z" fill="#E0E0E0"/>
<path opacity="0.5" d="M275.387 68.1018H53.6068L53.321 63.6998H275.101L275.387 68.1018Z" fill="#E0E0E0"/>
<path opacity="0.5" d="M275.387 75.3369H53.6068L53.321 70.935H275.101L275.387 75.3369Z" fill="#E0E0E0"/>
<path opacity="0.5" d="M275.387 82.5661H53.6068L53.321 78.1702H275.101L275.387 82.5661Z" fill="#E0E0E0"/>
<path d="M164.5 248.258C229.606 248.258 282.385 245.177 282.385 241.376C282.385 237.575 229.606 234.493 164.5 234.493C99.3937 234.493 46.6147 237.575 46.6147 241.376C46.6147 245.177 99.3937 248.258 164.5 248.258Z" fill="#F5F5F5"/>
<path d="M110.789 54.7318H105.792V55.3398H110.789V54.7318Z" fill="#7E57C2"/>
<path d="M101.469 54.7318H84.3108V55.3398H101.469V54.7318Z" fill="#7E57C2"/>
<path d="M80.9486 150.437H203.339C203.983 150.447 204.621 150.32 205.212 150.064C205.803 149.808 206.333 149.43 206.766 148.954C207.2 148.478 207.527 147.915 207.727 147.303C207.926 146.691 207.993 146.043 207.923 145.403L200.481 61.8697C200.336 60.5094 199.7 59.2486 198.693 58.3223C197.686 57.396 196.377 56.8676 195.009 56.8355H72.6129C71.9691 56.8257 71.3305 56.9528 70.7396 57.2085C70.1487 57.4643 69.6189 57.8427 69.1854 58.3188C68.7519 58.7948 68.4246 59.3576 68.2251 59.9698C68.0257 60.582 67.9587 61.2297 68.0285 61.8697L75.4705 145.379C75.6083 146.745 76.2415 148.014 77.2507 148.946C78.2599 149.878 79.5752 150.408 80.9486 150.437Z" fill="#7E57C2"/>
<path d="M81.3437 150.437H203.728C204.372 150.448 205.011 150.321 205.603 150.066C206.194 149.811 206.724 149.432 207.158 148.956C207.592 148.48 207.919 147.916 208.118 147.304C208.317 146.691 208.383 146.043 208.312 145.403L200.877 61.8697C200.73 60.5099 200.094 59.2498 199.087 58.3237C198.081 57.3977 196.772 56.8688 195.405 56.8355H73.002C72.36 56.8292 71.724 56.959 71.1357 57.2162C70.5475 57.4734 70.0203 57.8522 69.589 58.3277C69.1577 58.8033 68.8319 59.3648 68.6332 59.9753C68.4344 60.5857 68.3672 61.2314 68.4359 61.8697L75.8778 145.379C76.0179 146.742 76.6501 148.008 77.6562 148.939C78.6624 149.87 79.9733 150.403 81.3437 150.437Z" fill="#7E57C2"/>
<path opacity="0.2" d="M81.3437 150.437H203.728C204.372 150.448 205.011 150.321 205.603 150.066C206.194 149.811 206.724 149.432 207.158 148.956C207.592 148.48 207.919 147.916 208.118 147.304C208.317 146.691 208.383 146.043 208.312 145.403L200.877 61.8697C200.73 60.5099 200.094 59.2498 199.087 58.3237C198.081 57.3977 196.772 56.8688 195.405 56.8355H73.002C72.36 56.8292 71.724 56.959 71.1357 57.2162C70.5475 57.4734 70.0203 57.8522 69.589 58.3277C69.1577 58.8033 68.8319 59.3648 68.6332 59.9753C68.4344 60.5857 68.3672 61.2314 68.4359 61.8697L75.8778 145.379C76.0179 146.742 76.6501 148.008 77.6562 148.939C78.6624 149.87 79.9733 150.403 81.3437 150.437Z" fill="black"/>
<path d="M195.617 59.377H73.2269C73.0931 59.377 72.9533 59.377 72.8195 59.377C69.6944 59.6323 70.4179 64.393 73.5735 64.393H196.171C199.326 64.393 199.211 59.6323 196.031 59.377C195.891 59.383 195.757 59.377 195.617 59.377Z" fill="#7E57C2"/>
<path d="M75.4097 63.3532C75.0202 63.3453 74.6469 63.1959 74.3594 62.933C74.0719 62.6701 73.8898 62.3116 73.8471 61.9244C73.8295 61.7347 73.8512 61.5434 73.9108 61.3624C73.9704 61.1814 74.0667 61.0147 74.1937 60.8726C74.3218 60.7328 74.4778 60.6216 74.6517 60.5462C74.8256 60.4708 75.0134 60.4328 75.203 60.4348C75.5931 60.4418 75.9671 60.5918 76.254 60.8563C76.5409 61.1208 76.7208 61.4814 76.7595 61.8697C76.7802 62.0583 76.7605 62.249 76.7019 62.4294C76.6432 62.6098 76.5469 62.7757 76.4192 62.916C76.2916 63.0563 76.1356 63.1678 75.9615 63.2432C75.7874 63.3186 75.5993 63.3561 75.4097 63.3532ZM75.203 61.0428C75.0984 61.0414 74.9946 61.0617 74.8983 61.1026C74.802 61.1434 74.7153 61.2038 74.6436 61.2799C74.5711 61.3623 74.5168 61.459 74.4844 61.5638C74.4519 61.6686 74.4419 61.779 74.4551 61.8879C74.4803 62.1251 74.5911 62.345 74.7669 62.5062C74.9427 62.6674 75.1712 62.7589 75.4097 62.7635C75.5143 62.7649 75.618 62.7446 75.7143 62.7037C75.8106 62.6629 75.8974 62.6025 75.9691 62.5264C76.0419 62.4442 76.0964 62.3475 76.1289 62.2427C76.1614 62.1378 76.1711 62.0273 76.1575 61.9184C76.1311 61.6817 76.0199 61.4626 75.8444 61.3016C75.6689 61.1406 75.441 61.0487 75.203 61.0428Z" fill="#FAFAFA"/>
<path d="M79.3313 63.3533C78.9425 63.3451 78.57 63.1956 78.2835 62.9326C77.997 62.6696 77.8162 62.3112 77.7748 61.9245C77.7551 61.7353 77.7756 61.5441 77.835 61.3635C77.8943 61.1828 77.9911 61.0167 78.1191 60.876C78.2472 60.7354 78.4035 60.6234 78.5778 60.5473C78.7521 60.4713 78.9405 60.433 79.1307 60.4349C79.5201 60.4445 79.8926 60.5954 80.179 60.8594C80.4654 61.1233 80.646 61.4825 80.6872 61.8698C80.7078 62.0587 80.6875 62.2499 80.6277 62.4304C80.5679 62.6108 80.47 62.7763 80.3406 62.9155C80.2125 63.0553 80.0565 63.1665 79.8826 63.2419C79.7087 63.3173 79.5209 63.3553 79.3313 63.3533ZM79.1307 61.0429C79.026 61.0407 78.922 61.0607 78.8256 61.1015C78.7292 61.1424 78.6425 61.2032 78.5713 61.28C78.4967 61.3612 78.4407 61.4576 78.4071 61.5626C78.3735 61.6676 78.3632 61.7786 78.3768 61.888C78.4032 62.1247 78.5144 62.3438 78.6899 62.5047C78.8654 62.6657 79.0933 62.7576 79.3313 62.7635C79.436 62.7657 79.54 62.7457 79.6364 62.7049C79.7328 62.664 79.8195 62.6032 79.8907 62.5264C79.966 62.4459 80.0221 62.3493 80.0547 62.244C80.0874 62.1387 80.0957 62.0274 80.0792 61.9184C80.0542 61.6822 79.9442 61.4632 79.7697 61.3022C79.5952 61.1411 79.3681 61.0489 79.1307 61.0429Z" fill="#FAFAFA"/>
<path d="M83.2589 63.3532C82.8694 63.3453 82.4962 63.1959 82.2087 62.933C81.9212 62.6701 81.7391 62.3116 81.6964 61.9244C81.6787 61.7347 81.7004 61.5434 81.7601 61.3624C81.8197 61.1814 81.916 61.0147 82.0429 60.8726C82.171 60.7328 82.3271 60.6216 82.501 60.5462C82.6748 60.4708 82.8627 60.4328 83.0522 60.4348C83.4426 60.443 83.8167 60.5932 84.1043 60.8573C84.392 61.1215 84.5734 61.4814 84.6148 61.8697C84.6323 62.0585 84.6105 62.2489 84.5509 62.4288C84.4912 62.6088 84.395 62.7745 84.2682 62.9155C84.1402 63.0552 83.9841 63.1664 83.8102 63.2418C83.6363 63.3173 83.4485 63.3552 83.2589 63.3532ZM83.0522 61.0428C82.9476 61.0414 82.8439 61.0617 82.7476 61.1026C82.6513 61.1434 82.5645 61.2038 82.4929 61.2799C82.4204 61.3623 82.3661 61.459 82.3336 61.5638C82.3011 61.6686 82.2912 61.779 82.3044 61.8879C82.3295 62.1251 82.4404 62.345 82.6161 62.5062C82.7919 62.6674 83.0205 62.7589 83.2589 62.7635C83.3635 62.7649 83.4673 62.7446 83.5636 62.7037C83.6599 62.6629 83.7466 62.6025 83.8183 62.5264C83.8911 62.4442 83.9456 62.3475 83.9781 62.2427C84.0106 62.1378 84.0204 62.0273 84.0068 61.9184C83.9799 61.6776 83.8651 61.4552 83.6845 61.2936C83.504 61.1321 83.2702 61.0428 83.0279 61.0428H83.0522Z" fill="#FAFAFA"/>
<path d="M83.2468 142.126H200.372C200.606 142.13 200.837 142.084 201.052 141.991C201.266 141.899 201.459 141.762 201.616 141.589C201.774 141.417 201.893 141.213 201.966 140.991C202.038 140.769 202.063 140.534 202.038 140.302L195.885 71.5977C195.833 71.1035 195.602 70.6453 195.236 70.3093C194.87 69.9734 194.394 69.7829 193.897 69.7737H76.802C76.5684 69.7698 76.3367 69.8156 76.1221 69.908C75.9076 70.0005 75.7152 70.1375 75.5577 70.31C75.4001 70.4825 75.2811 70.6865 75.2084 70.9085C75.1357 71.1305 75.111 71.3655 75.1361 71.5977L81.2586 140.302C81.3105 140.796 81.5412 141.254 81.9074 141.59C82.2736 141.926 82.7499 142.117 83.2468 142.126Z" fill="white"/>
<path d="M123.916 196.724C125.545 201.704 123.308 205.741 118.347 205.741H201.205C206.191 205.741 208.404 201.704 206.774 196.724H123.916Z" fill="#263238"/>
<path d="M88.433 74.8505C106.193 115.477 92.4579 156.11 105.877 196.724C107.512 201.704 113.373 205.741 118.347 205.741C123.32 205.741 125.545 201.704 123.916 196.724H197.758C184.333 156.098 198.068 115.477 180.308 74.8505H88.433Z" fill="#7E57C2"/>
<path opacity="0.8" d="M88.433 74.8505C106.193 115.477 92.4579 156.11 105.877 196.724C107.512 201.704 113.373 205.741 118.347 205.741C123.32 205.741 125.545 201.704 123.916 196.724H197.758C184.333 156.098 198.068 115.477 180.308 74.8505H88.433Z" fill="white"/>
<path d="M127.613 105.646H105.269C104.273 98.0531 102.561 90.5718 100.155 83.3018H122.499C124.905 90.5718 126.617 98.0531 127.613 105.646Z" fill="#7E57C2"/>
<path opacity="0.6" d="M187.798 190.51H137.942C135.881 182.513 134.524 174.351 133.887 166.117H183.743C184.38 174.351 185.737 182.513 187.798 190.51Z" fill="#7E57C2"/>
<g opacity="0.8">
<path opacity="0.8" d="M176.265 85.7945H126.409C126.153 84.9839 125.886 84.157 125.606 83.3139H175.462C175.742 84.1408 176.009 84.9677 176.265 85.7945Z" fill="#7E57C2"/>
<path opacity="0.8" d="M178.052 92.2698H128.196C127.99 91.4591 127.787 90.6322 127.588 89.7891H177.444C177.643 90.6038 177.846 91.4307 178.052 92.2698Z" fill="#7E57C2"/>
<path opacity="0.8" d="M168.233 98.7024H129.595C129.437 97.8755 129.272 97.0486 129.096 96.2217H167.741C167.911 97.0486 168.075 97.8755 168.233 98.7024Z" fill="#7E57C2"/>
</g>
<g opacity="0.2">
<path opacity="0.2" d="M181.481 113.708H131.625C131.577 113.167 131.528 112.62 131.473 112.072H181.329C181.384 112.62 181.433 113.167 181.481 113.708Z" fill="#7E57C2"/>
<path opacity="0.2" d="M181.822 117.964H131.966C131.929 117.417 131.887 116.869 131.844 116.328H181.7C181.743 116.869 181.785 117.417 181.822 117.964Z" fill="#7E57C2"/>
<path opacity="0.2" d="M168.233 122.214H132.221C132.221 121.667 132.166 121.125 132.13 120.578H168.148L168.233 122.214Z" fill="#7E57C2"/>
<path opacity="0.2" d="M182.272 126.464H132.416C132.416 125.923 132.373 125.375 132.349 124.828H182.205C182.229 125.375 182.254 125.923 182.272 126.464Z" fill="#7E57C2"/>
<path opacity="0.2" d="M182.418 130.72H132.562C132.562 130.172 132.531 129.625 132.513 129.084H182.369C182.387 129.625 182.406 130.172 182.418 130.72Z" fill="#7E57C2"/>
<path opacity="0.2" d="M144.059 134.97H132.677C132.677 134.422 132.677 133.881 132.635 133.334H144.016C144.035 133.881 144.047 134.429 144.059 134.97Z" fill="#7E57C2"/>
<path opacity="0.2" d="M182.624 139.226H132.768C132.768 138.678 132.768 138.131 132.738 137.59H182.594C182.606 138.131 182.612 138.678 182.624 139.226Z" fill="#7E57C2"/>
<path opacity="0.2" d="M182.74 143.476H132.884L132.848 141.84H182.704L182.74 143.476Z" fill="#7E57C2"/>
<path opacity="0.2" d="M182.819 147.725H132.963C132.963 147.184 132.963 146.637 132.92 146.09H182.776C182.789 146.637 182.801 147.184 182.819 147.725Z" fill="#7E57C2"/>
<path opacity="0.2" d="M182.947 151.981H133.091L133.036 150.346H182.892L182.947 151.981Z" fill="#7E57C2"/>
<path opacity="0.2" d="M183.111 156.231H133.255C133.255 155.69 133.206 155.143 133.188 154.596H183.044C183.062 155.143 183.087 155.69 183.111 156.231Z" fill="#7E57C2"/>
<path opacity="0.2" d="M154.523 160.487H133.492L133.401 158.852H154.444L154.523 160.487Z" fill="#7E57C2"/>
</g>
<path d="M236.432 87.3571C236.98 88.0198 237.442 88.6157 237.91 89.2602C238.378 89.9046 238.834 90.5309 239.278 91.1814C240.172 92.4765 241.017 93.7958 241.813 95.1638C242.61 96.5318 243.376 97.9242 244.051 99.3834C244.758 100.855 245.367 102.373 245.875 103.925L246.069 104.533L246.118 104.679L246.191 104.934C246.246 105.118 246.289 105.305 246.318 105.494C246.429 106.147 246.443 106.813 246.361 107.47C246.222 108.486 245.937 109.477 245.516 110.412C244.818 111.955 243.952 113.415 242.932 114.766C241.032 117.296 238.87 119.617 236.481 121.691L234.013 119.423C235.664 117.032 237.188 114.556 238.579 112.005C239.22 110.843 239.75 109.621 240.159 108.357C240.313 107.894 240.397 107.411 240.409 106.923C240.409 106.758 240.409 106.643 240.36 106.643C240.311 106.643 240.36 106.643 240.36 106.643C240.36 106.643 240.36 106.679 240.36 106.643L240.311 106.527L240.111 106.059C238.97 103.487 237.624 101.01 236.086 98.6538C235.32 97.4378 234.505 96.2218 233.654 95.0605C232.803 93.8992 231.945 92.671 231.137 91.5888L236.432 87.3571Z" fill="#FF8B7B"/>
<path d="M235.545 118.663L231.471 119.843L234.718 123.643C234.718 123.643 237.46 122.341 237.18 120.195L235.545 118.663Z" fill="#FF8B7B"/>
<path d="M228.553 123.108L232.243 126.05L234.718 123.643L231.471 119.843L228.553 123.108Z" fill="#FF8B7B"/>
<path d="M213.949 67.7613C213.949 68.1261 213.76 68.4179 213.523 68.4179C213.286 68.4179 213.097 68.1261 213.097 67.7613C213.097 67.3965 213.286 67.1107 213.523 67.1107C213.76 67.1107 213.949 67.4026 213.949 67.7613Z" fill="#263238"/>
<path d="M213.79 68.4179C213.36 69.5169 212.781 70.5519 212.07 71.4944C212.316 71.6706 212.597 71.7913 212.894 71.848C213.191 71.9047 213.497 71.896 213.79 71.8227V68.4179Z" fill="#A02724"/>
<path d="M215.225 65.767C215.181 65.7676 215.138 65.7525 215.104 65.7245C214.891 65.565 214.644 65.4573 214.382 65.4098C214.12 65.3624 213.851 65.3764 213.596 65.4509C213.544 65.4707 213.485 65.4691 213.434 65.4463C213.383 65.4236 213.343 65.3815 213.322 65.3293C213.304 65.2768 213.306 65.2193 213.329 65.1684C213.352 65.1176 213.393 65.0773 213.444 65.0557C213.764 64.9539 214.104 64.9307 214.435 64.9878C214.767 65.045 215.079 65.1808 215.347 65.384C215.37 65.3998 215.391 65.4202 215.406 65.444C215.421 65.4678 215.431 65.4945 215.436 65.5224C215.44 65.5503 215.439 65.5789 215.432 65.6063C215.425 65.6338 215.413 65.6595 215.396 65.6819C215.376 65.7083 215.35 65.7298 215.321 65.7446C215.291 65.7593 215.258 65.767 215.225 65.767Z" fill="#263238"/>
<path d="M225.574 71.9139C224.935 75.1849 224.297 81.1737 226.583 83.3504C226.583 83.3504 225.689 86.664 219.615 86.664C212.927 86.664 216.429 83.3504 216.429 83.3504C220.077 82.4809 219.974 79.7814 219.342 77.24L225.574 71.9139Z" fill="#FF8B7B"/>
<path d="M227.458 84.4873C227.939 83.4416 228.462 82.2377 227.373 81.8608C226.157 81.4473 219.609 81.0278 217.347 81.806C217.049 81.8887 216.77 82.0298 216.526 82.2211C216.283 82.4123 216.08 82.65 215.929 82.9203C215.778 83.1906 215.682 83.4882 215.647 83.7958C215.612 84.1034 215.638 84.4149 215.724 84.7123L227.458 84.4873Z" fill="#7E57C2"/>
<path d="M248.562 228.462C248.434 228.604 248.279 228.719 248.105 228.799C247.932 228.88 247.744 228.924 247.553 228.93C247.437 228.93 247.291 228.821 247.237 228.547C247.221 228.477 247.221 228.405 247.237 228.336C247.253 228.267 247.284 228.202 247.328 228.146C247.723 227.605 249.213 227.452 249.273 227.446C249.294 227.443 249.314 227.445 249.333 227.454C249.352 227.463 249.367 227.477 249.377 227.495C249.388 227.512 249.394 227.532 249.394 227.553C249.394 227.573 249.388 227.594 249.377 227.611C249.137 227.923 248.864 228.208 248.562 228.462ZM247.589 228.176L247.498 228.267C247.472 228.3 247.454 228.339 247.444 228.38C247.435 228.421 247.434 228.463 247.443 228.504C247.48 228.699 247.571 228.717 247.601 228.723C247.905 228.79 248.605 228.206 249.042 227.69C248.527 227.746 248.031 227.916 247.589 228.188V228.176Z" fill="#7E57C2"/>
<path d="M249.352 227.641H249.31C248.793 227.75 247.486 227.58 247.23 227.142C247.191 227.073 247.177 226.992 247.19 226.914C247.203 226.835 247.243 226.763 247.303 226.711C247.359 226.652 247.426 226.605 247.5 226.573C247.574 226.541 247.654 226.523 247.735 226.522C248.41 226.522 249.322 227.422 249.358 227.465C249.373 227.477 249.384 227.493 249.389 227.512C249.395 227.53 249.395 227.55 249.389 227.568C249.388 227.582 249.385 227.596 249.379 227.609C249.372 227.621 249.363 227.632 249.352 227.641ZM247.498 226.845L247.462 226.881C247.364 226.978 247.401 227.039 247.413 227.063C247.559 227.319 248.471 227.519 249.048 227.483C248.693 227.118 248.239 226.867 247.741 226.759C247.653 226.758 247.566 226.788 247.498 226.845Z" fill="#7E57C2"/>
<path d="M215.073 237.041C214.502 237.041 213.949 236.962 213.76 236.706C213.712 236.639 213.687 236.558 213.687 236.475C213.687 236.393 213.712 236.312 213.76 236.244C213.837 236.12 213.959 236.03 214.101 235.995C214.842 235.794 216.405 236.682 216.466 236.725C216.486 236.734 216.502 236.75 216.512 236.77C216.522 236.789 216.525 236.812 216.52 236.834C216.516 236.855 216.506 236.874 216.491 236.889C216.475 236.904 216.456 236.915 216.435 236.919C215.986 236.998 215.53 237.039 215.073 237.041ZM214.356 236.177C214.289 236.168 214.222 236.168 214.155 236.177C214.113 236.186 214.072 236.203 214.036 236.228C214.001 236.253 213.971 236.286 213.949 236.323C213.87 236.457 213.9 236.524 213.949 236.56C214.155 236.846 215.286 236.852 216.119 236.737C215.573 236.437 214.974 236.247 214.356 236.177Z" fill="#7E57C2"/>
<path d="M216.423 236.919H216.381C215.839 236.676 214.769 235.703 214.855 235.205C214.855 235.083 214.958 234.937 215.25 234.907C215.358 234.893 215.468 234.903 215.573 234.934C215.677 234.965 215.774 235.018 215.858 235.089C216.429 235.557 216.545 236.761 216.551 236.81C216.553 236.828 216.55 236.847 216.543 236.864C216.536 236.881 216.524 236.896 216.508 236.907C216.483 236.922 216.452 236.926 216.423 236.919ZM215.335 235.095H215.268C215.079 235.095 215.067 235.186 215.061 235.211C215.013 235.515 215.736 236.275 216.277 236.603C216.222 236.093 216.009 235.613 215.669 235.229C215.574 235.154 215.456 235.111 215.335 235.107V235.095Z" fill="#7E57C2"/>
<path d="M221.336 236.816H216.867L216.423 226.474H220.886L221.336 236.816Z" fill="#FF8B7B"/>
<path d="M253.864 226.34L249.541 227.465L244.756 218.029L249.079 216.898L253.864 226.34Z" fill="#FF8B7B"/>
<path d="M249.207 226.954L253.031 223.707C253.099 223.65 253.185 223.618 253.274 223.618C253.363 223.618 253.449 223.65 253.517 223.707L256.758 226.139C256.836 226.2 256.9 226.278 256.943 226.367C256.987 226.456 257.009 226.554 257.009 226.653C257.009 226.752 256.987 226.85 256.943 226.939C256.9 227.028 256.836 227.106 256.758 227.167C255.402 228.273 254.685 228.748 253.007 230.176C251.967 231.052 248.848 234.068 247.419 235.284C245.99 236.5 244.604 235.241 245.078 234.615C247.218 231.818 248.611 229.088 248.811 227.617C248.856 227.354 248.997 227.118 249.207 226.954Z" fill="#263238"/>
<path d="M216.897 236.299H221.761C221.85 236.299 221.936 236.329 222.006 236.385C222.075 236.44 222.124 236.517 222.144 236.603L223.026 240.573C223.047 240.669 223.046 240.768 223.024 240.864C223.001 240.959 222.957 241.048 222.895 241.124C222.833 241.2 222.755 241.261 222.666 241.303C222.577 241.344 222.48 241.365 222.382 241.364C220.624 241.364 218.077 241.236 215.87 241.236C213.28 241.236 212.155 241.376 209.121 241.376C207.297 241.376 206.78 239.521 207.546 239.351C211.036 238.591 212.787 238.506 215.809 236.645C216.132 236.43 216.509 236.31 216.897 236.299Z" fill="#263238"/>
<path d="M210.665 93.2729C209.182 95.8995 207.625 98.3862 205.959 100.867C204.294 103.348 202.53 105.731 200.597 108.096C200.36 108.394 200.104 108.704 199.855 108.972L199.484 109.409L199.296 109.628L198.98 109.956C198.247 110.705 197.392 111.322 196.45 111.78C194.94 112.51 193.345 113.049 191.702 113.386C188.688 113.997 185.613 114.256 182.539 114.158L182.211 110.82C184.919 110.124 187.588 109.283 190.206 108.303C191.378 107.866 192.502 107.312 193.562 106.649C193.919 106.421 194.237 106.138 194.505 105.81L195.022 105.105C195.222 104.825 195.429 104.551 195.63 104.26C197.241 101.973 198.791 99.5779 200.305 97.1581C201.819 94.7382 203.345 92.2941 204.798 89.8621L210.665 93.2729Z" fill="#FF8B7B"/>
<path d="M234.949 84.3658C239.138 85.3264 243.935 96.7386 243.935 96.7386L235.527 102.502C233.437 99.5021 231.581 96.3454 229.975 93.0602C227.495 87.8314 230.669 83.3808 234.949 84.3658Z" fill="#263238"/>
<path opacity="0.3" d="M231.951 91.6617L235.928 102.247L235.533 102.521C235.533 102.521 233.812 100.089 231.951 96.848V91.6617Z" fill="black"/>
<path d="M209.93 84.5907C209.93 84.5907 205.175 89.9593 209.662 123.199H233.55C233.715 119.551 231.41 101.639 234.949 84.3597C232.308 83.8512 229.638 83.5141 226.954 83.3504C223.572 83.1557 220.182 83.1557 216.8 83.3504C214.481 83.584 212.184 83.9987 209.93 84.5907Z" fill="#263238"/>
<path opacity="0.3" d="M212.581 94.2032C211.959 97.9752 210.329 101.509 207.862 104.43C207.765 102.29 207.729 100.368 207.735 98.6477L212.581 94.2032Z" fill="black"/>
<path d="M214.642 88.2144C215.25 92.44 206.896 103.244 206.896 103.244L198.548 97.4803C198.548 97.4803 200.864 91.528 204.78 87.6246C209.218 83.1497 213.997 83.6118 214.642 88.2144Z" fill="#263238"/>
<path d="M182.478 110.808L177.797 110.242L177.925 115.945C177.925 115.945 181.609 116.261 183.615 113.696L182.478 110.808Z" fill="#FF8B7B"/>
<path d="M173.127 111.635L174.951 116.249L177.925 115.945L177.797 110.242L173.127 111.635Z" fill="#FF8B7B"/>
<path opacity="0.2" d="M216.423 226.474L216.672 232.286H221.141L220.892 226.474H216.423Z" fill="black"/>
<path opacity="0.2" d="M249.079 216.904L244.756 218.029L247.407 223.257L251.547 221.768L249.079 216.904Z" fill="black"/>
<path d="M225.963 67.0012C225.695 71.4214 225.762 74.0297 223.531 76.2976C220.168 79.7145 214.709 77.6899 213.651 73.2576C212.702 69.2812 213.304 62.7148 217.639 60.9577C218.593 60.5659 219.631 60.4245 220.654 60.5469C221.678 60.6694 222.653 61.0516 223.487 61.6573C224.321 62.263 224.987 63.0719 225.42 64.0073C225.853 64.9426 226.04 65.9733 225.963 67.0012Z" fill="#FF8B7B"/>
<path d="M218.004 69.0624C215.663 68.5942 216.514 65.7853 217.092 64.9584C216.91 64.9038 216.746 64.8026 216.616 64.6649C216.485 64.5272 216.393 64.3578 216.348 64.1734C216.303 63.9891 216.307 63.7962 216.36 63.614C216.412 63.4317 216.512 63.2664 216.648 63.1344C215.669 63.1344 213.195 62.9641 213.335 60.0944C213.474 57.2246 215.298 57.5225 215.973 59.1824C216.271 58.2026 216.938 57.3768 217.833 56.8789C218.728 56.3811 219.781 56.2499 220.77 56.5132C223.306 57.1212 221.074 58.4345 221.074 58.4345C221.074 58.4345 226.607 57.3219 225.835 60.1613C228.231 60.295 231.714 62.5081 229.957 64.4173C231.003 66.4723 230.839 67.8768 229.52 68.424C229.064 70.8925 226.443 75.6227 224.449 75.6227C222.801 75.6166 218.113 73.3853 218.004 69.0624Z" fill="#263238"/>
<path d="M219.968 68.2051C219.768 69.2871 219.219 70.2739 218.405 71.014C217.323 71.9747 216.381 71.2025 216.35 69.8892C216.35 68.7036 216.849 66.7702 218.095 66.3081C219.342 65.846 220.187 66.8918 219.968 68.2051Z" fill="#FF8B7B"/>
<path d="M218.138 123.199C218.138 123.199 223.208 157.326 225.987 170.094C229.027 184.078 244.543 221.567 244.543 221.567L252.326 219.062C252.326 219.062 241.108 185.257 239.387 171.389C237.503 156.341 233.551 123.199 233.551 123.199H218.138Z" fill="#7E57C2"/>
<path d="M242.889 219.95C242.859 219.95 244.677 222.674 244.677 222.674L253.42 219.792L252.38 217.183L242.889 219.95Z" fill="#263238"/>
<path opacity="0.3" d="M221.342 135.359C227.203 136.508 226.583 158.365 225.878 169.607C224.187 161.661 221.713 146.37 220.022 135.517C220.431 135.315 220.897 135.26 221.342 135.359Z" fill="black"/>
<path d="M209.662 123.199C209.662 123.199 207.546 156.596 208.033 170.215C208.537 184.382 214.988 230.772 214.988 230.772H222.552C222.552 230.772 221.336 185.209 221.664 171.298C222.035 156.098 225.367 123.199 225.367 123.199H209.662Z" fill="#7E57C2"/>
<path d="M213.529 227.757C213.499 227.757 213.961 230.9 213.961 230.9H223.16L223.409 228.097L213.529 227.757Z" fill="#263238"/>
</svg>
