<svg width="329" height="265" viewBox="0 0 329 265" fill="none" xmlns="http://www.w3.org/2000/svg">
<path d="M0 5C0 2.23857 2.23858 0 5 0H329V270H5C2.23858 270 0 267.761 0 265V5Z" fill="#F2F2F2"/>
<path d="M316.5 223.269H12.4999V223.421H316.5V223.269Z" fill="#E0E0E0"/>
<path d="M61.0366 232.803H44.3956V232.955H61.0366V232.803Z" fill="#E0E0E0"/>
<path d="M70.3267 232.803H65.0432V232.955H70.3267V232.803Z" fill="#E0E0E0"/>
<path d="M164.5 230.705H152.729V230.857H164.5V230.705Z" fill="#E0E0E0"/>
<path d="M266.62 230.626H240.36V230.778H266.62V230.626Z" fill="#E0E0E0"/>
<path d="M275.886 230.626H272.037V230.778H275.886V230.626Z" fill="#E0E0E0"/>
<path d="M219.627 227.027H162.67V227.179H219.627V227.027Z" fill="#E0E0E0"/>
<path d="M156.596 196.153H39.1972C38.2775 196.151 37.396 195.785 36.7462 195.134C36.0965 194.483 35.7316 193.601 35.7316 192.681V27.6515C35.7396 26.7371 36.108 25.8627 36.7569 25.2184C37.4058 24.5741 38.2827 24.2118 39.1972 24.2102H156.596C157.517 24.2102 158.4 24.576 159.051 25.227C159.702 25.8781 160.068 26.7611 160.068 27.6819V192.681C160.068 193.602 159.702 194.485 159.051 195.136C158.4 195.787 157.517 196.153 156.596 196.153ZM39.1972 24.3318C38.3178 24.3334 37.475 24.6839 36.8537 25.3063C36.2325 25.9287 35.8836 26.7721 35.8836 27.6515V192.681C35.8836 193.56 36.2325 194.404 36.8537 195.026C37.475 195.649 38.3178 195.999 39.1972 196.001H156.596C157.476 195.999 158.319 195.649 158.942 195.027C159.564 194.404 159.914 193.561 159.916 192.681V27.6515C159.914 26.7715 159.564 25.9281 158.942 25.3059C158.319 24.6837 157.476 24.3334 156.596 24.3318H39.1972Z" fill="#E0E0E0"/>
<path d="M288.113 196.153H170.708C169.787 196.151 168.905 195.785 168.255 195.134C167.604 194.483 167.238 193.601 167.236 192.681V27.6515C167.246 26.7365 167.615 25.8622 168.265 25.218C168.915 24.5739 169.793 24.2118 170.708 24.2102H288.113C289.026 24.2134 289.901 24.5764 290.549 25.2205C291.196 25.8647 291.564 26.7381 291.572 27.6515V192.681C291.572 193.6 291.208 194.481 290.56 195.132C289.911 195.782 289.031 196.149 288.113 196.153ZM170.708 24.3318C169.828 24.3334 168.984 24.6837 168.362 25.3059C167.74 25.9281 167.39 26.7715 167.388 27.6515V192.681C167.39 193.561 167.74 194.404 168.362 195.027C168.984 195.649 169.828 195.999 170.708 196.001H288.113C288.992 195.999 289.836 195.649 290.458 195.027C291.08 194.404 291.431 193.561 291.432 192.681V27.6515C291.431 26.7715 291.08 25.9281 290.458 25.3059C289.836 24.6837 288.992 24.3334 288.113 24.3318H170.708Z" fill="#E0E0E0"/>
<path d="M202.33 21.7782C202.331 21.1143 202.596 20.4781 203.065 20.0087C203.535 19.5392 204.171 19.2748 204.835 19.2732H282.859C283.523 19.2748 284.159 19.5392 284.629 20.0087C285.098 20.4781 285.363 21.1143 285.364 21.7782V29.822H202.33V21.7782Z" fill="#E0E0E0"/>
<path d="M220.685 24.5385C220.684 24.9139 220.794 25.2813 221.002 25.594C221.21 25.9068 221.506 26.1508 221.852 26.2954C222.199 26.4399 222.58 26.4783 222.949 26.4058C223.317 26.3333 223.656 26.1531 223.921 25.888C224.187 25.623 224.369 25.285 224.442 24.9169C224.516 24.5487 224.479 24.167 224.335 23.82C224.192 23.473 223.949 23.1764 223.637 22.9677C223.325 22.759 222.958 22.6476 222.582 22.6476C222.08 22.6476 221.599 22.8466 221.243 23.201C220.887 23.5555 220.687 24.0364 220.685 24.5385Z" fill="white"/>
<path d="M213.973 24.5385C213.972 24.9139 214.082 25.2813 214.29 25.594C214.497 25.9068 214.793 26.1508 215.14 26.2954C215.486 26.4399 215.868 26.4783 216.236 26.4058C216.605 26.3333 216.943 26.1531 217.209 25.888C217.475 25.623 217.656 25.285 217.73 24.9169C217.804 24.5487 217.766 24.167 217.623 23.82C217.48 23.473 217.236 23.1764 216.924 22.9677C216.612 22.759 216.245 22.6476 215.87 22.6476C215.368 22.6476 214.886 22.8466 214.531 23.201C214.175 23.5555 213.975 24.0364 213.973 24.5385Z" fill="white"/>
<path d="M207.261 24.5385C207.259 24.9139 207.37 25.2813 207.577 25.594C207.785 25.9068 208.081 26.1508 208.427 26.2954C208.774 26.4399 209.156 26.4783 209.524 26.4058C209.892 26.3333 210.231 26.1531 210.497 25.888C210.763 25.623 210.944 25.285 211.018 24.9169C211.091 24.5487 211.054 24.167 210.911 23.82C210.767 23.473 210.524 23.1764 210.212 22.9677C209.9 22.759 209.533 22.6476 209.158 22.6476C208.656 22.6476 208.174 22.8466 207.818 23.201C207.463 23.5555 207.262 24.0364 207.261 24.5385Z" fill="white"/>
<path d="M282.859 84.1286H204.835C204.171 84.127 203.535 83.8626 203.065 83.3931C202.596 82.9237 202.331 82.2875 202.33 81.6236V29.822H285.364V81.6236C285.363 82.2875 285.098 82.9237 284.629 83.3931C284.159 83.8626 283.523 84.127 282.859 84.1286Z" fill="#F0F0F0"/>
<path d="M196.724 30.1442C196.726 29.4804 196.99 28.8442 197.459 28.3747C197.929 27.9053 198.565 27.6409 199.229 27.6393H277.272C277.936 27.6409 278.572 27.9053 279.041 28.3747C279.511 28.8442 279.775 29.4804 279.777 30.1442V38.1942H196.724V30.1442Z" fill="#F0F0F0"/>
<path d="M215.098 32.9228C215.096 33.2984 215.207 33.666 215.415 33.9789C215.623 34.2918 215.919 34.5359 216.266 34.6802C216.613 34.8245 216.995 34.8626 217.363 34.7896C217.732 34.7166 218.07 34.5358 218.336 34.2702C218.602 34.0045 218.782 33.666 218.855 33.2974C218.928 32.9289 218.89 32.547 218.746 32.2001C218.602 31.8532 218.358 31.557 218.045 31.349C217.732 31.1411 217.364 31.0307 216.989 31.0319C216.488 31.0335 216.008 31.2332 215.653 31.5875C215.299 31.9417 215.099 32.4218 215.098 32.9228Z" fill="#E0E0E0"/>
<path d="M208.385 32.9227C208.384 33.2982 208.494 33.6655 208.702 33.9783C208.91 34.291 209.206 34.5351 209.552 34.6796C209.899 34.8241 210.28 34.8626 210.649 34.7901C211.017 34.7176 211.356 34.5374 211.622 34.2723C211.887 34.0073 212.069 33.6693 212.142 33.3011C212.216 32.933 212.179 32.5513 212.035 32.2043C211.892 31.8573 211.649 31.5607 211.337 31.352C211.025 31.1433 210.658 31.0319 210.282 31.0319C209.78 31.0319 209.299 31.2309 208.943 31.5853C208.588 31.9397 208.387 32.4207 208.385 32.9227Z" fill="#E0E0E0"/>
<path d="M201.673 32.9227C201.672 33.2982 201.782 33.6655 201.99 33.9783C202.198 34.291 202.493 34.5351 202.84 34.6796C203.186 34.8241 203.568 34.8626 203.936 34.7901C204.305 34.7176 204.643 34.5374 204.909 34.2723C205.175 34.0073 205.356 33.6693 205.43 33.3011C205.504 32.933 205.467 32.5513 205.323 32.2043C205.18 31.8573 204.937 31.5607 204.625 31.352C204.312 31.1433 203.946 31.0319 203.57 31.0319C203.068 31.0319 202.586 31.2309 202.231 31.5853C201.875 31.9397 201.675 32.4207 201.673 32.9227Z" fill="#E0E0E0"/>
<path d="M277.272 92.513H199.241C198.577 92.5114 197.941 92.2469 197.472 91.7775C197.002 91.3081 196.738 90.6719 196.736 90.008V38.1942H279.777V89.9958C279.778 90.3256 279.713 90.6523 279.588 90.9572C279.463 91.2622 279.278 91.5395 279.046 91.7732C278.813 92.0069 278.537 92.1926 278.232 92.3195C277.928 92.4464 277.602 92.5122 277.272 92.513Z" fill="#FAFAFA"/>
<path d="M191.149 38.5285C191.149 38.1972 191.216 37.8693 191.344 37.5638C191.472 37.2583 191.659 36.9811 191.895 36.7482C192.13 36.5154 192.41 36.3315 192.717 36.2071C193.024 36.0827 193.353 36.0203 193.684 36.0236H271.684C272.348 36.0252 272.984 36.2896 273.454 36.759C273.923 37.2284 274.188 37.8647 274.189 38.5285V46.5906H191.149V38.5285Z" fill="#FAFAFA"/>
<path d="M209.492 41.3072C209.492 41.6818 209.603 42.0481 209.811 42.3598C210.019 42.6715 210.314 42.9146 210.66 43.0585C211.006 43.2025 211.387 43.2407 211.755 43.1685C212.122 43.0963 212.46 42.9168 212.726 42.6527C212.992 42.3887 213.173 42.0518 213.248 41.6846C213.322 41.3175 213.287 40.9364 213.145 40.5896C213.003 40.2428 212.762 39.9457 212.452 39.7358C212.141 39.5259 211.776 39.4126 211.401 39.4102C211.151 39.4086 210.903 39.4565 210.671 39.5511C210.44 39.6457 210.229 39.7852 210.052 39.9615C209.874 40.1378 209.734 40.3475 209.637 40.5784C209.541 40.8093 209.492 41.057 209.492 41.3072Z" fill="#F0F0F0"/>
<path d="M202.804 41.3072C202.804 41.6829 202.916 42.0501 203.125 42.3623C203.333 42.6745 203.63 42.9176 203.978 43.0609C204.325 43.2041 204.707 43.2409 205.075 43.1667C205.444 43.0925 205.782 42.9107 206.047 42.6441C206.311 42.3776 206.491 42.0385 206.563 41.6697C206.635 41.301 206.595 40.9192 206.45 40.5728C206.305 40.2263 206.059 39.9309 205.746 39.724C205.432 39.517 205.064 39.4078 204.689 39.4102C204.188 39.4134 203.708 39.6147 203.355 39.9701C203.002 40.3255 202.804 40.8062 202.804 41.3072Z" fill="#F0F0F0"/>
<path d="M197.976 43.2041C199.024 43.2041 199.873 42.3548 199.873 41.3071C199.873 40.2595 199.024 39.4102 197.976 39.4102C196.929 39.4102 196.079 40.2595 196.079 41.3071C196.079 42.3548 196.929 43.2041 197.976 43.2041Z" fill="#F0F0F0"/>
<path d="M271.684 100.897H193.684C193.02 100.896 192.384 100.631 191.914 100.162C191.445 99.6924 191.181 99.0562 191.179 98.3923V46.5907H274.189V98.3863C274.189 99.0512 273.926 99.6889 273.456 100.16C272.986 100.63 272.349 100.896 271.684 100.897Z" fill="#E0E0E0"/>
<path d="M60.611 68.5213C60.6157 67.8981 60.8649 67.3018 61.305 66.8606C61.7451 66.4194 62.3408 66.1686 62.9639 66.1622H180.569C181.198 66.1638 181.8 66.4142 182.244 66.8585C182.689 67.3029 182.939 67.905 182.941 68.5334V76.1821H60.611V68.5213Z" fill="#E0E0E0"/>
<path d="M79.8238 73.1116C79.4377 73.1116 79.0604 72.9972 78.7395 72.7827C78.4185 72.5682 78.1684 72.2634 78.0206 71.9068C77.8729 71.5502 77.8343 71.1578 77.9096 70.7792C77.9849 70.4006 78.1708 70.0528 78.4437 69.7799C78.7167 69.5069 79.0644 69.3211 79.443 69.2458C79.8216 69.1704 80.214 69.2091 80.5706 69.3568C80.9273 69.5045 81.2321 69.7547 81.4465 70.0756C81.661 70.3966 81.7754 70.7739 81.7754 71.1599C81.7754 71.6775 81.5698 72.174 81.2038 72.54C80.8378 72.906 80.3414 73.1116 79.8238 73.1116ZM79.8238 69.5183C79.4988 69.5171 79.1808 69.6124 78.9101 69.792C78.6393 69.9717 78.428 70.2276 78.3028 70.5275C78.1776 70.8273 78.1442 71.1576 78.2069 71.4764C78.2695 71.7953 78.4254 72.0884 78.6547 72.3186C78.8841 72.5487 79.1766 72.7057 79.4952 72.7695C79.8138 72.8334 80.1442 72.8012 80.4445 72.6771C80.7448 72.5531 81.0015 72.3427 81.1822 72.0726C81.3628 71.8025 81.4593 71.4849 81.4593 71.1599C81.4593 70.7256 81.2872 70.309 80.9806 70.0013C80.6741 69.6936 80.2581 69.5199 79.8238 69.5183Z" fill="white"/>
<path d="M73.458 73.1116C73.072 73.1116 72.6947 72.9972 72.3737 72.7827C72.0528 72.5682 71.8026 72.2634 71.6549 71.9068C71.5072 71.5502 71.4685 71.1578 71.5438 70.7792C71.6192 70.4006 71.805 70.0528 72.078 69.7799C72.3509 69.5069 72.6987 69.3211 73.0773 69.2458C73.4559 69.1704 73.8483 69.2091 74.2049 69.3568C74.5615 69.5045 74.8663 69.7547 75.0808 70.0756C75.2952 70.3966 75.4097 70.7739 75.4097 71.1599C75.4097 71.6775 75.2041 72.174 74.8381 72.54C74.4721 72.906 73.9756 73.1116 73.458 73.1116ZM73.458 69.5183C73.1334 69.5183 72.816 69.6146 72.546 69.795C72.276 69.9754 72.0656 70.2318 71.9414 70.5317C71.8171 70.8317 71.7846 71.1618 71.848 71.4802C71.9113 71.7986 72.0677 72.0911 72.2972 72.3207C72.5268 72.5503 72.8193 72.7066 73.1378 72.77C73.4562 72.8333 73.7863 72.8008 74.0862 72.6766C74.3862 72.5523 74.6426 72.3419 74.823 72.072C75.0034 71.802 75.0996 71.4846 75.0996 71.1599C75.0996 70.7246 74.9267 70.307 74.6188 69.9991C74.311 69.6913 73.8934 69.5183 73.458 69.5183Z" fill="white"/>
<path d="M67.0922 73.1116C66.7062 73.1116 66.3288 72.9972 66.0079 72.7827C65.6869 72.5682 65.4368 72.2634 65.2891 71.9068C65.1413 71.5502 65.1027 71.1578 65.178 70.7792C65.2533 70.4006 65.4392 70.0528 65.7121 69.7799C65.9851 69.5069 66.3328 69.3211 66.7114 69.2458C67.09 69.1704 67.4824 69.2091 67.8391 69.3568C68.1957 69.5045 68.5005 69.7547 68.7149 70.0756C68.9294 70.3966 69.0439 70.7739 69.0439 71.1599C69.0439 71.6775 68.8382 72.174 68.4722 72.54C68.1062 72.906 67.6098 73.1116 67.0922 73.1116ZM67.0922 69.5183C66.7675 69.5183 66.4501 69.6146 66.1802 69.795C65.9102 69.9754 65.6998 70.2318 65.5755 70.5317C65.4513 70.8317 65.4188 71.1618 65.4821 71.4802C65.5455 71.7986 65.7018 72.0911 65.9314 72.3207C66.161 72.5503 66.4535 72.7066 66.7719 72.77C67.0904 72.8333 67.4204 72.8008 67.7204 72.6766C68.0204 72.5523 68.2767 72.3419 68.4571 72.072C68.6375 71.802 68.7338 71.4846 68.7338 71.1599C68.7338 70.9444 68.6913 70.7309 68.6088 70.5317C68.5263 70.3325 68.4054 70.1516 68.253 69.9991C68.1005 69.8467 67.9196 69.7258 67.7204 69.6433C67.5212 69.5608 67.3078 69.5183 67.0922 69.5183Z" fill="white"/>
<path d="M180.569 139.73H62.964C62.334 139.729 61.7302 139.478 61.2847 139.032C60.8393 138.587 60.5883 137.983 60.5867 137.353V76.1699H182.916V137.371C182.912 137.993 182.663 138.589 182.224 139.03C181.786 139.471 181.192 139.722 180.569 139.73Z" fill="#F0F0F0"/>
<path d="M55.3092 84.6515C55.3108 84.0215 55.5618 83.4177 56.0073 82.9722C56.4527 82.5268 57.0565 82.2758 57.6865 82.2742H175.268C175.897 82.2758 176.5 82.527 176.945 82.9726C177.389 83.4183 177.639 84.022 177.639 84.6515V92.3062H55.3092V84.6515Z" fill="#FAFAFA"/>
<path d="M74.5159 89.2662C74.1299 89.2662 73.7525 89.1517 73.4316 88.9372C73.1106 88.7228 72.8605 88.418 72.7128 88.0614C72.5651 87.7047 72.5264 87.3123 72.6017 86.9337C72.677 86.5551 72.8629 86.2074 73.1358 85.9344C73.4088 85.6615 73.7565 85.4756 74.1351 85.4003C74.5137 85.325 74.9061 85.3636 75.2628 85.5114C75.6194 85.6591 75.9242 85.9092 76.1387 86.2302C76.3531 86.5511 76.4676 86.9285 76.4676 87.3145C76.4676 87.8321 76.262 88.3285 75.8959 88.6945C75.5299 89.0605 75.0335 89.2662 74.5159 89.2662ZM74.5159 85.6729C74.1912 85.6729 73.8738 85.7692 73.6039 85.9495C73.3339 86.1299 73.1235 86.3863 72.9992 86.6863C72.875 86.9862 72.8425 87.3163 72.9058 87.6347C72.9692 87.9532 73.1255 88.2457 73.3551 88.4753C73.5847 88.7048 73.8772 88.8612 74.1956 88.9245C74.5141 88.9879 74.8441 88.9554 75.1441 88.8311C75.4441 88.7069 75.7004 88.4965 75.8808 88.2265C76.0612 87.9565 76.1575 87.6392 76.1575 87.3145C76.1648 87.0943 76.1278 86.875 76.0486 86.6694C75.9694 86.4639 75.8496 86.2764 75.6965 86.1181C75.5433 85.9599 75.3598 85.834 75.157 85.7481C74.9542 85.6622 74.7362 85.618 74.5159 85.6182V85.6729Z" fill="#E0E0E0"/>
<path d="M68.1563 89.2662C67.7703 89.2662 67.3929 89.1517 67.072 88.9372C66.751 88.7228 66.5009 88.418 66.3532 88.0614C66.2054 87.7047 66.1668 87.3123 66.2421 86.9337C66.3174 86.5551 66.5033 86.2074 66.7762 85.9344C67.0492 85.6615 67.3969 85.4756 67.7755 85.4003C68.1541 85.325 68.5465 85.3636 68.9032 85.5114C69.2598 85.6591 69.5646 85.9092 69.779 86.2302C69.9935 86.5511 70.108 86.9285 70.108 87.3145C70.108 87.8321 69.9023 88.3285 69.5363 88.6945C69.1703 89.0605 68.6739 89.2662 68.1563 89.2662ZM68.1563 85.6729C67.8316 85.6729 67.5142 85.7692 67.2442 85.9495C66.9743 86.1299 66.7639 86.3863 66.6396 86.6863C66.5154 86.9862 66.4829 87.3163 66.5462 87.6347C66.6096 87.9532 66.7659 88.2457 66.9955 88.4753C67.2251 88.7048 67.5176 88.8612 67.836 88.9245C68.1545 88.9879 68.4845 88.9554 68.7845 88.8311C69.0844 88.7069 69.3408 88.4965 69.5212 88.2265C69.7016 87.9565 69.7979 87.6392 69.7979 87.3145C69.8052 87.0943 69.7682 86.875 69.689 86.6694C69.6098 86.4639 69.49 86.2764 69.3368 86.1181C69.1837 85.9599 69.0002 85.834 68.7974 85.7481C68.5946 85.6622 68.3765 85.618 68.1563 85.6182V85.6729Z" fill="#E0E0E0"/>
<path d="M61.7904 89.2662C61.4044 89.2662 61.0271 89.1517 60.7061 88.9372C60.3852 88.7228 60.135 88.418 59.9873 88.0614C59.8396 87.7047 59.8009 87.3123 59.8762 86.9337C59.9516 86.5551 60.1374 86.2074 60.4104 85.9344C60.6833 85.6615 61.0311 85.4756 61.4097 85.4003C61.7883 85.325 62.1807 85.3636 62.5373 85.5114C62.8939 85.6591 63.1987 85.9092 63.4132 86.2302C63.6276 86.5511 63.7421 86.9285 63.7421 87.3145C63.7421 87.8321 63.5365 88.3285 63.1705 88.6945C62.8045 89.0605 62.308 89.2662 61.7904 89.2662ZM61.7904 85.6729C61.4657 85.6729 61.1484 85.7692 60.8784 85.9495C60.6084 86.1299 60.398 86.3863 60.2738 86.6863C60.1495 86.9862 60.117 87.3163 60.1804 87.6347C60.2437 87.9532 60.4001 88.2457 60.6296 88.4753C60.8592 88.7048 61.1517 88.8612 61.4702 88.9245C61.7886 88.9879 62.1187 88.9554 62.4186 88.8311C62.7186 88.7069 62.975 88.4965 63.1554 88.2265C63.3357 87.9565 63.432 87.6392 63.432 87.3145C63.4394 87.0943 63.4023 86.875 63.3231 86.6694C63.2439 86.4639 63.1242 86.2764 62.971 86.1181C62.8178 85.9599 62.6344 85.834 62.4315 85.7481C62.2287 85.6622 62.0107 85.618 61.7904 85.6182V85.6729Z" fill="#E0E0E0"/>
<path d="M175.268 167.941H57.6865C57.0565 167.94 56.4527 167.689 56.0073 167.243C55.5618 166.798 55.3108 166.194 55.3092 165.564V92.3062H177.639V165.564C177.639 166.194 177.389 166.797 176.945 167.243C176.5 167.689 175.897 167.94 175.268 167.941Z" fill="#F0F0F0"/>
<path d="M95.4676 27.1529H52.6279C51.9721 27.1513 51.3436 26.89 50.8799 26.4263C50.4162 25.9626 50.1549 25.3341 50.1533 24.6783C50.1565 24.0236 50.4185 23.3967 50.882 22.9342C51.3456 22.4718 51.9731 22.2114 52.6279 22.2098H95.4797C96.1334 22.213 96.7595 22.4741 97.2217 22.9364C97.6839 23.3986 97.945 24.0246 97.9482 24.6783C97.9466 25.3352 97.6845 25.9646 97.2195 26.4285C96.7545 26.8924 96.1244 27.1529 95.4676 27.1529Z" fill="#E0E0E0"/>
<path d="M113.264 37.5132L52.7495 37.27C52.1001 37.2572 51.4815 36.9903 51.0268 36.5264C50.572 36.0626 50.3174 35.4389 50.3175 34.7893C50.3207 34.1341 50.5837 33.5069 51.0487 33.0452C51.5138 32.5836 52.1429 32.3253 52.7981 32.3269L113.306 32.5701C113.961 32.5749 114.587 32.8384 115.049 33.3031C115.51 33.7678 115.769 34.396 115.769 35.0508C115.767 35.3773 115.701 35.7002 115.574 36.0011C115.447 36.3019 115.262 36.5746 115.029 36.8035C114.796 37.0324 114.52 37.2129 114.217 37.3347C113.914 37.4565 113.59 37.5172 113.264 37.5132Z" fill="#F0F0F0"/>
<path d="M81.0519 48.9618H52.6279C51.9721 48.9602 51.3436 48.699 50.8799 48.2353C50.4162 47.7716 50.1549 47.1431 50.1533 46.4873C50.1565 45.8325 50.4185 45.2056 50.882 44.7432C51.3456 44.2808 51.9731 44.0204 52.6279 44.0188H81.0641C81.7188 44.0204 82.3464 44.2808 82.8099 44.7432C83.2735 45.2056 83.5354 45.8325 83.5386 46.4873C83.5378 46.813 83.4729 47.1355 83.3475 47.4361C83.2221 47.7368 83.0387 48.0098 82.8078 48.2396C82.5768 48.4694 82.3029 48.6514 82.0017 48.7753C81.7004 48.8993 81.3777 48.9626 81.0519 48.9618Z" fill="#E6E6E6"/>
<path d="M277.491 118.924H264.291C263.793 118.923 263.315 118.725 262.962 118.373C262.609 118.021 262.409 117.544 262.406 117.046C262.409 116.547 262.609 116.069 262.962 115.716C263.315 115.364 263.792 115.164 264.291 115.161H277.491C277.989 115.164 278.466 115.364 278.818 115.717C279.17 116.07 279.368 116.547 279.369 117.046C279.368 117.543 279.169 118.02 278.817 118.372C278.465 118.724 277.989 118.923 277.491 118.924Z" fill="#E0E0E0"/>
<path d="M283.759 123.199H264.285C263.247 123.199 262.406 124.04 262.406 125.077V125.084C262.406 126.121 263.247 126.962 264.285 126.962H283.759C284.797 126.962 285.638 126.121 285.638 125.084V125.077C285.638 124.04 284.797 123.199 283.759 123.199Z" fill="#F0F0F0"/>
<path d="M272.371 135.529H264.291C264.043 135.531 263.796 135.483 263.566 135.39C263.336 135.296 263.127 135.158 262.95 134.984C262.774 134.809 262.633 134.602 262.537 134.373C262.44 134.144 262.39 133.899 262.388 133.65C262.391 133.151 262.591 132.674 262.944 132.321C263.296 131.968 263.774 131.769 264.273 131.765H272.353C272.852 131.767 273.331 131.966 273.684 132.319C274.037 132.672 274.236 133.151 274.238 133.65C274.236 134.146 274.04 134.621 273.69 134.973C273.341 135.324 272.867 135.524 272.371 135.529Z" fill="#E6E6E6"/>
<path d="M277.928 143.561H264.291C263.793 143.559 263.315 143.361 262.962 143.009C262.609 142.657 262.409 142.18 262.406 141.682C262.409 141.183 262.609 140.705 262.962 140.353C263.315 140 263.792 139.8 264.291 139.797H277.928C278.427 139.8 278.904 140 279.256 140.353C279.607 140.706 279.806 141.184 279.807 141.682C279.806 142.18 279.607 142.657 279.255 143.009C278.903 143.361 278.426 143.559 277.928 143.561Z" fill="#F0F0F0"/>
<path d="M275.764 152.133H264.291C263.793 152.132 263.315 151.934 262.962 151.582C262.609 151.23 262.409 150.753 262.406 150.255C262.409 149.756 262.609 149.278 262.962 148.925C263.315 148.573 263.792 148.373 264.291 148.37H275.764C276.263 148.373 276.74 148.573 277.093 148.925C277.446 149.278 277.646 149.756 277.649 150.255C277.646 150.753 277.446 151.23 277.093 151.582C276.74 151.934 276.262 152.132 275.764 152.133Z" fill="#E6E6E6"/>
<path d="M232.262 128.841H193.027C192.528 128.839 192.051 128.64 191.698 128.287C191.346 127.933 191.149 127.455 191.149 126.956C191.15 126.458 191.349 125.981 191.701 125.629C192.053 125.277 192.53 125.079 193.027 125.077H232.262C232.759 125.079 233.236 125.277 233.588 125.629C233.94 125.981 234.139 126.458 234.14 126.956C234.14 127.455 233.943 127.933 233.59 128.287C233.238 128.64 232.76 128.839 232.262 128.841Z" fill="#E0E0E0"/>
<path d="M248.143 136.873H193.027C192.53 136.871 192.053 136.673 191.701 136.321C191.349 135.969 191.15 135.492 191.149 134.994C191.149 134.495 191.346 134.017 191.698 133.663C192.051 133.31 192.528 133.111 193.027 133.109H248.143C248.642 133.111 249.12 133.31 249.474 133.663C249.827 134.016 250.026 134.495 250.027 134.994C250.024 135.492 249.824 135.969 249.471 136.321C249.118 136.673 248.641 136.871 248.143 136.873Z" fill="#F0F0F0"/>
<path d="M219.293 145.445H193.027C192.528 145.444 192.051 145.245 191.698 144.891C191.346 144.538 191.149 144.059 191.149 143.561C191.15 143.063 191.349 142.586 191.701 142.234C192.053 141.882 192.53 141.683 193.027 141.682H219.293C219.791 141.683 220.269 141.882 220.622 142.234C220.975 142.585 221.175 143.062 221.178 143.561C221.176 144.06 220.977 144.538 220.624 144.892C220.271 145.245 219.792 145.444 219.293 145.445Z" fill="#E6E6E6"/>
<path d="M233.368 153.477H193.027C192.528 153.476 192.051 153.276 191.698 152.923C191.346 152.57 191.149 152.091 191.149 151.592C191.15 151.095 191.349 150.618 191.701 150.266C192.053 149.914 192.53 149.715 193.027 149.714H233.368C233.867 149.714 234.345 149.911 234.699 150.264C235.052 150.616 235.251 151.094 235.253 151.592C235.253 151.84 235.204 152.085 235.109 152.314C235.015 152.542 234.876 152.75 234.701 152.925C234.526 153.1 234.318 153.239 234.089 153.334C233.861 153.428 233.616 153.477 233.368 153.477Z" fill="#F0F0F0"/>
<path d="M227.811 162.05H193.027C192.528 162.048 192.051 161.849 191.698 161.496C191.346 161.142 191.149 160.664 191.149 160.165C191.15 159.667 191.349 159.19 191.701 158.838C192.053 158.486 192.53 158.288 193.027 158.286H227.811C228.309 158.288 228.786 158.486 229.138 158.838C229.49 159.19 229.688 159.667 229.69 160.165C229.69 160.664 229.492 161.142 229.14 161.496C228.788 161.849 228.31 162.048 227.811 162.05Z" fill="#E6E6E6"/>
<path d="M164.5 250.727C229.606 250.727 282.385 247.645 282.385 243.844C282.385 240.043 229.606 236.962 164.5 236.962C99.3937 236.962 46.6147 240.043 46.6147 243.844C46.6147 247.645 99.3937 250.727 164.5 250.727Z" fill="#F5F5F5"/>
<path opacity="0.7" d="M225.525 202.221H150.595C148.107 202.235 145.642 201.738 143.353 200.761C141.065 199.784 139.001 198.347 137.291 196.539C135.581 194.731 134.26 192.592 133.411 190.252C132.562 187.913 132.203 185.425 132.355 182.941L138.763 60.6354C139.292 50.0319 148.418 41.3557 159.028 41.3557H233.958C236.449 41.3369 238.917 41.8305 241.209 42.806C243.501 43.7815 245.569 45.2179 247.282 47.026C248.996 48.8342 250.319 50.9754 251.17 53.3166C252.021 55.6578 252.381 58.1491 252.228 60.6354L245.814 182.941C245.261 193.544 236.129 202.221 225.525 202.221Z" fill="#7E57C2"/>
<path d="M181.275 34.3091H176.611V34.9171H181.275V34.3091Z" fill="#7E57C2"/>
<path d="M172.629 34.3091H156.414V34.9171H172.629V34.3091Z" fill="#7E57C2"/>
<path d="M130.664 76.0138L130.42 80.6221L131.027 80.6542L131.271 76.0459L130.664 76.0138Z" fill="#7E57C2"/>
<path opacity="0.6" d="M221.214 197.916H146.26C143.772 197.931 141.308 197.434 139.02 196.457C136.731 195.48 134.668 194.044 132.958 192.237C131.248 190.43 129.927 188.29 129.078 185.952C128.228 183.614 127.868 181.126 128.02 178.642L134.434 56.3309C134.988 45.7273 144.12 37.0512 154.723 37.0512H229.647C232.138 37.0323 234.606 37.526 236.899 38.5014C239.191 39.4769 241.258 40.9133 242.971 42.7215C244.685 44.5296 246.008 46.6708 246.859 49.012C247.71 51.3533 248.07 53.8445 247.918 56.3309L241.509 178.642C240.95 189.24 231.818 197.916 221.214 197.916Z" fill="#7E57C2"/>
<path d="M160.299 180.606C142.484 180.606 126.093 173.669 114.139 161.077C102.186 148.485 96.0817 131.674 97.0181 113.823C97.6703 101.977 101.344 90.4941 107.688 80.4685C113.901 70.6415 122.383 62.4509 132.422 56.5862C132.459 56.571 132.5 56.571 132.537 56.5862C132.578 56.5977 132.612 56.6237 132.635 56.6592L138.769 68.3632C138.988 68.2416 139.207 68.12 139.432 68.0045L139.669 67.8707C139.707 67.8586 139.747 67.8586 139.785 67.8707C139.805 67.8766 139.823 67.8867 139.839 67.9004C139.855 67.914 139.867 67.9308 139.876 67.9498L141.554 71.1418C141.572 71.1766 141.575 71.2169 141.564 71.2542C141.552 71.2916 141.527 71.3232 141.493 71.3424C125.886 80.0672 115.617 96.3555 114.705 113.86C114.012 126.981 118.48 139.317 127.284 148.589C131.653 153.18 136.919 156.824 142.755 159.293C148.592 161.763 154.874 163.005 161.211 162.944C161.231 162.943 161.252 162.947 161.271 162.956C161.29 162.964 161.307 162.977 161.32 162.992C161.335 163.006 161.347 163.023 161.354 163.042C161.361 163.061 161.364 163.082 161.363 163.102L160.451 180.491C160.444 180.525 160.424 180.555 160.396 180.577C160.368 180.598 160.334 180.608 160.299 180.606ZM132.434 56.9328C111.987 68.9104 98.532 90.7011 97.316 113.836C96.3857 131.607 102.441 148.309 114.34 160.864C126.239 173.42 142.46 180.266 160.141 180.32L161.034 163.242C154.683 163.281 148.391 162.019 142.546 159.535C136.701 157.05 131.426 153.396 127.047 148.796C118.189 139.457 113.671 127.041 114.383 113.842C115.301 96.2826 125.57 79.9334 141.195 71.1418L139.663 68.2173L139.554 68.2781C139.292 68.4179 139.025 68.5578 138.769 68.7098C138.73 68.7253 138.687 68.7253 138.648 68.7098C138.609 68.698 138.577 68.6719 138.557 68.6368L132.434 56.9328Z" fill="#7E57C2"/>
<path d="M164.628 186.948C164.584 186.947 164.543 186.93 164.512 186.899C164.499 186.883 164.489 186.865 164.482 186.845C164.476 186.825 164.474 186.804 164.476 186.783L165.448 168.185C165.452 168.146 165.469 168.111 165.497 168.085C165.525 168.059 165.562 168.045 165.6 168.045C194.572 168.045 219.378 144.473 220.898 115.495C220.901 115.457 220.919 115.422 220.947 115.396C220.975 115.37 221.012 115.355 221.05 115.355H225.476C225.496 115.355 225.516 115.358 225.534 115.365C225.552 115.372 225.569 115.382 225.584 115.396C225.598 115.41 225.609 115.426 225.617 115.444C225.624 115.462 225.628 115.482 225.628 115.501C225.665 117.009 225.628 118.541 225.574 120.031H239.248C239.268 120.03 239.289 120.035 239.308 120.043C239.327 120.051 239.344 120.064 239.357 120.08C239.385 120.114 239.4 120.157 239.4 120.201C237.244 137.705 229.049 153.909 216.229 166.02C202.226 179.317 183.421 186.948 164.628 186.948ZM165.746 168.349L164.786 186.644C183.451 186.601 202.117 179.007 216.016 165.795C228.746 153.777 236.899 137.706 239.077 120.335H225.416C225.393 120.335 225.37 120.329 225.35 120.319C225.33 120.308 225.313 120.293 225.3 120.274C225.285 120.261 225.273 120.244 225.265 120.225C225.258 120.206 225.255 120.185 225.257 120.165C225.337 118.669 225.355 117.125 225.324 115.647H221.19C219.597 144.673 194.766 168.27 165.746 168.349Z" fill="#7E57C2"/>
<path d="M225.476 115.659C225.437 115.658 225.399 115.641 225.371 115.613C225.342 115.585 225.326 115.547 225.324 115.507C224.552 84.7852 199.788 60.7206 168.92 60.7206C158.755 60.7446 148.755 63.289 139.815 68.126C139.798 68.1365 139.779 68.1433 139.758 68.1459C139.738 68.1485 139.718 68.1469 139.698 68.1412C139.679 68.1355 139.661 68.1258 139.645 68.1127C139.63 68.0996 139.617 68.0834 139.608 68.0652C139.591 68.0295 139.587 67.9883 139.598 67.9499C139.61 67.9115 139.635 67.8789 139.669 67.8585C148.654 62.9976 158.705 60.4406 168.92 60.4166C183.732 60.2457 198.01 65.9428 208.635 76.2638C219.26 86.5848 225.369 100.691 225.628 115.501C225.629 115.521 225.626 115.541 225.619 115.56C225.612 115.579 225.602 115.596 225.588 115.611C225.575 115.625 225.558 115.637 225.54 115.646C225.522 115.654 225.502 115.659 225.482 115.659H225.476Z" fill="#7E57C2"/>
<path d="M246.458 120.335H239.248C239.207 120.335 239.169 120.319 239.14 120.291C239.112 120.262 239.096 120.223 239.096 120.183C239.096 120.143 239.112 120.104 239.14 120.076C239.169 120.047 239.207 120.031 239.248 120.031H246.313C247.058 106.132 244.062 92.287 237.636 79.9395C228.218 62.0217 212.149 48.9315 192.383 43.0704C171.358 36.8323 148.978 39.4224 129.345 50.3664L132.635 56.6288C132.652 56.6652 132.655 56.707 132.642 56.7454C132.63 56.7839 132.603 56.8161 132.568 56.8355C132.55 56.8449 132.53 56.8506 132.51 56.8523C132.49 56.8541 132.47 56.8517 132.45 56.8455C132.431 56.8393 132.413 56.8293 132.398 56.8161C132.383 56.8029 132.37 56.7867 132.361 56.7686L129.011 50.3785C129.002 50.3614 128.996 50.3426 128.994 50.3232C128.991 50.3037 128.993 50.284 128.999 50.2653C129.005 50.2466 129.014 50.2292 129.027 50.2142C129.039 50.1992 129.054 50.1868 129.072 50.1779C138.866 44.6619 149.678 41.1892 160.852 39.9696C171.473 38.7857 182.223 39.7408 192.468 42.7785C212.313 48.664 228.45 61.8089 237.904 79.7997C244.379 92.2374 247.386 106.189 246.61 120.189C246.609 120.228 246.592 120.265 246.564 120.293C246.536 120.32 246.498 120.335 246.458 120.335Z" fill="#7E57C2"/>
<path d="M138.709 68.7097H138.666C138.627 68.6979 138.595 68.6718 138.575 68.6367L132.361 56.7929C132.343 56.7566 132.339 56.7144 132.352 56.6757C132.364 56.6369 132.392 56.6047 132.428 56.5862C132.464 56.5676 132.506 56.5643 132.545 56.5768C132.584 56.5893 132.616 56.6168 132.635 56.6531L138.769 68.3571C138.988 68.2355 139.207 68.1139 139.432 67.9983L139.669 67.8646C139.687 67.8552 139.707 67.8494 139.727 67.8477C139.747 67.846 139.767 67.8483 139.787 67.8545C139.806 67.8608 139.824 67.8708 139.839 67.884C139.854 67.8972 139.867 67.9133 139.876 67.9315C139.885 67.9486 139.891 67.9674 139.893 67.9868C139.896 68.0063 139.894 68.0259 139.888 68.0447C139.882 68.0634 139.873 68.0808 139.86 68.0958C139.848 68.1108 139.833 68.1231 139.815 68.1321L139.572 68.2659C139.311 68.4057 139.043 68.5455 138.788 68.6975C138.763 68.7078 138.736 68.712 138.709 68.7097Z" fill="#7E57C2"/>
<g opacity="0.3">
<path opacity="0.3" d="M160.299 180.606C142.484 180.606 126.093 173.669 114.139 161.077C102.186 148.485 96.0817 131.674 97.0181 113.823C97.6703 101.977 101.344 90.4941 107.688 80.4685C113.901 70.6415 122.383 62.4509 132.422 56.5862C132.459 56.571 132.5 56.571 132.537 56.5862C132.578 56.5977 132.612 56.6237 132.635 56.6592L138.769 68.3632C138.988 68.2416 139.207 68.12 139.432 68.0045L139.669 67.8707C139.707 67.8586 139.747 67.8586 139.785 67.8707C139.805 67.8766 139.823 67.8867 139.839 67.9004C139.855 67.914 139.867 67.9308 139.876 67.9498L141.554 71.1418C141.572 71.1766 141.575 71.2169 141.564 71.2542C141.552 71.2916 141.527 71.3232 141.493 71.3424C125.886 80.0672 115.617 96.3555 114.705 113.86C114.012 126.981 118.48 139.317 127.284 148.589C131.653 153.18 136.919 156.824 142.755 159.293C148.592 161.763 154.874 163.005 161.211 162.944C161.231 162.943 161.252 162.947 161.271 162.956C161.29 162.964 161.307 162.977 161.32 162.992C161.335 163.006 161.347 163.023 161.354 163.042C161.361 163.061 161.364 163.082 161.363 163.102L160.451 180.491C160.444 180.525 160.424 180.555 160.396 180.577C160.368 180.598 160.334 180.608 160.299 180.606ZM132.434 56.9328C111.987 68.9104 98.532 90.7011 97.316 113.836C96.3857 131.607 102.441 148.309 114.34 160.864C126.239 173.42 142.46 180.266 160.141 180.32L161.034 163.242C154.683 163.281 148.391 162.019 142.546 159.535C136.701 157.05 131.426 153.396 127.047 148.796C118.189 139.457 113.671 127.041 114.383 113.842C115.301 96.2826 125.57 79.9334 141.195 71.1418L139.663 68.2173L139.554 68.2781C139.292 68.4179 139.025 68.5578 138.769 68.7098C138.73 68.7253 138.687 68.7253 138.648 68.7098C138.609 68.698 138.577 68.6719 138.557 68.6368L132.434 56.9328Z" fill="white"/>
<path opacity="0.3" d="M164.628 186.948C164.584 186.947 164.543 186.93 164.512 186.899C164.499 186.883 164.489 186.865 164.482 186.845C164.476 186.825 164.474 186.804 164.476 186.783L165.448 168.185C165.452 168.146 165.469 168.111 165.497 168.085C165.525 168.059 165.562 168.045 165.6 168.045C194.572 168.045 219.378 144.473 220.898 115.495C220.901 115.457 220.919 115.422 220.947 115.396C220.975 115.37 221.012 115.355 221.05 115.355H225.476C225.496 115.355 225.516 115.358 225.534 115.365C225.552 115.372 225.569 115.382 225.584 115.396C225.598 115.41 225.609 115.426 225.617 115.444C225.624 115.462 225.628 115.482 225.628 115.501C225.665 117.009 225.628 118.541 225.574 120.031H239.248C239.268 120.03 239.289 120.035 239.308 120.043C239.327 120.051 239.344 120.064 239.357 120.08C239.385 120.114 239.4 120.157 239.4 120.201C237.244 137.705 229.049 153.909 216.229 166.02C202.226 179.317 183.421 186.948 164.628 186.948ZM165.746 168.349L164.786 186.644C183.451 186.601 202.117 179.007 216.016 165.795C228.746 153.777 236.899 137.706 239.077 120.335H225.416C225.393 120.335 225.37 120.329 225.35 120.319C225.33 120.308 225.313 120.293 225.3 120.274C225.285 120.261 225.273 120.244 225.265 120.225C225.258 120.206 225.255 120.185 225.257 120.165C225.337 118.669 225.355 117.125 225.324 115.647H221.19C219.597 144.673 194.766 168.27 165.746 168.349Z" fill="white"/>
<path opacity="0.3" d="M225.476 115.659C225.437 115.658 225.399 115.641 225.371 115.613C225.342 115.585 225.326 115.547 225.324 115.507C224.552 84.7852 199.788 60.7206 168.92 60.7206C158.755 60.7446 148.755 63.289 139.815 68.126C139.798 68.1365 139.779 68.1433 139.758 68.1459C139.738 68.1485 139.718 68.1469 139.698 68.1412C139.679 68.1355 139.661 68.1258 139.645 68.1127C139.63 68.0996 139.617 68.0834 139.608 68.0652C139.591 68.0295 139.587 67.9883 139.598 67.9499C139.61 67.9115 139.635 67.8789 139.669 67.8585C148.654 62.9976 158.705 60.4406 168.92 60.4166C183.732 60.2457 198.01 65.9428 208.635 76.2638C219.26 86.5848 225.369 100.691 225.628 115.501C225.629 115.521 225.626 115.541 225.619 115.56C225.612 115.579 225.602 115.596 225.588 115.611C225.575 115.625 225.558 115.637 225.54 115.646C225.522 115.654 225.502 115.659 225.482 115.659H225.476Z" fill="white"/>
<path opacity="0.3" d="M246.458 120.335H239.248C239.207 120.335 239.169 120.319 239.14 120.291C239.112 120.262 239.096 120.223 239.096 120.183C239.096 120.143 239.112 120.104 239.14 120.076C239.169 120.047 239.207 120.031 239.248 120.031H246.313C247.058 106.132 244.062 92.287 237.636 79.9395C228.218 62.0217 212.149 48.9315 192.383 43.0704C171.358 36.8323 148.978 39.4224 129.345 50.3664L132.635 56.6288C132.652 56.6652 132.655 56.707 132.642 56.7454C132.63 56.7839 132.603 56.8161 132.568 56.8355C132.55 56.8449 132.53 56.8506 132.51 56.8523C132.49 56.8541 132.47 56.8517 132.45 56.8455C132.431 56.8393 132.413 56.8293 132.398 56.8161C132.383 56.8029 132.37 56.7867 132.361 56.7686L129.011 50.3785C129.002 50.3614 128.996 50.3426 128.994 50.3232C128.991 50.3037 128.993 50.284 128.999 50.2653C129.005 50.2466 129.014 50.2292 129.027 50.2142C129.039 50.1992 129.054 50.1868 129.072 50.1779C138.866 44.6619 149.678 41.1892 160.852 39.9696C171.473 38.7857 182.223 39.7408 192.468 42.7785C212.313 48.664 228.45 61.8089 237.904 79.7997C244.379 92.2374 247.386 106.189 246.61 120.189C246.609 120.228 246.592 120.265 246.564 120.293C246.536 120.32 246.498 120.335 246.458 120.335Z" fill="white"/>
<path opacity="0.3" d="M138.709 68.7097H138.666C138.627 68.6979 138.595 68.6718 138.575 68.6367L132.361 56.7929C132.343 56.7566 132.339 56.7144 132.352 56.6757C132.364 56.6369 132.392 56.6047 132.428 56.5862C132.464 56.5676 132.506 56.5643 132.545 56.5768C132.584 56.5893 132.616 56.6168 132.635 56.6531L138.769 68.3571C138.988 68.2355 139.207 68.1139 139.432 67.9983L139.669 67.8646C139.687 67.8552 139.707 67.8494 139.727 67.8477C139.747 67.846 139.767 67.8483 139.787 67.8545C139.806 67.8608 139.824 67.8708 139.839 67.884C139.854 67.8972 139.867 67.9133 139.876 67.9315C139.885 67.9486 139.891 67.9674 139.893 67.9868C139.896 68.0063 139.894 68.0259 139.888 68.0447C139.882 68.0634 139.873 68.0808 139.86 68.0958C139.848 68.1108 139.833 68.1231 139.815 68.1321L139.572 68.2659C139.311 68.4057 139.043 68.5455 138.788 68.6975C138.763 68.7078 138.736 68.712 138.709 68.7097Z" fill="white"/>
</g>
<path d="M165.005 155.35L164.397 166.519C140.751 166.519 122.578 147.342 123.819 123.703C124.652 107.859 133.991 94.0147 147.178 86.6154L152.261 96.2886C147.309 99.0351 143.13 102.987 140.112 107.778C137.093 112.569 135.333 118.045 134.994 123.697C134.1 141.177 147.531 155.35 165.005 155.35Z" fill="#7E57C2"/>
<path opacity="0.6" d="M165.005 155.35L164.397 166.519C140.751 166.519 122.578 147.342 123.819 123.703C124.652 107.859 133.991 94.0147 147.178 86.6154L152.261 96.2886C147.309 99.0351 143.13 102.987 140.112 107.778C137.093 112.569 135.333 118.045 134.994 123.697C134.1 141.177 147.531 155.35 165.005 155.35Z" fill="black"/>
<path d="M215.414 124.78C214.648 137.093 209.252 148.661 200.308 157.159C191.364 165.657 179.536 170.456 167.2 170.592L167.808 158.639C186.504 158.639 202.464 143.476 203.442 124.78H215.414Z" fill="#7E57C2"/>
<path opacity="0.3" d="M215.414 124.78C214.648 137.093 209.252 148.661 200.308 157.159C191.364 165.657 179.536 170.456 167.2 170.592L167.808 158.639C186.504 158.639 202.464 143.476 203.442 124.78H215.414Z" fill="black"/>
<path d="M219.785 127.789H206.264C207.37 106.613 191.112 89.4852 169.96 89.4852C163.144 89.4828 156.445 91.2488 150.516 94.6106L144.369 82.8944C169.741 68.6794 201.241 77.2522 214.18 101.876C218.341 109.854 220.277 118.805 219.785 127.789Z" fill="#FAFAFA"/>
<path d="M218.308 161.521H205.856L204.512 187.166H216.964L218.308 161.521Z" fill="#FAFAFA"/>
<path d="M236.08 153.045H223.628L221.841 187.166H234.292L236.08 153.045Z" fill="#7E57C2"/>
<path opacity="0.6" d="M236.08 153.045H223.628L221.841 187.166H234.292L236.08 153.045Z" fill="black"/>
<path d="M252.958 161.521H240.506L239.162 187.166H251.614L252.958 161.521Z" fill="#7E57C2"/>
<path opacity="0.3" d="M252.958 161.521H240.506L239.162 187.166H251.614L252.958 161.521Z" fill="black"/>
<path d="M251.499 189.349H204.397L204.427 188.766H251.529L251.499 189.349Z" fill="#263238"/>
<path opacity="0.8" d="M257.864 80.8454H203.57L205.175 50.1718H259.476L257.864 80.8454Z" fill="#FAFAFA"/>
<path d="M204.549 62.1251L203.57 80.8454H257.864L259.08 57.6016C250.07 57.6016 244.726 67.8585 233.581 67.8585C222.436 67.8585 219.378 62.1251 204.549 62.1251Z" fill="#7E57C2"/>
<path opacity="0.1" d="M204.549 62.1251L203.57 80.8454H257.864L259.08 57.6016C250.07 57.6016 244.726 67.8585 233.581 67.8585C222.436 67.8585 219.378 62.1251 204.549 62.1251Z" fill="black"/>
<path d="M204.081 71.0748C216.283 71.0748 220.667 64.3868 227.519 64.3868C234.371 64.3868 237.369 71.4214 245.905 71.4214C254.806 71.4214 258.673 65.8886 258.673 65.8886L257.889 80.8576H203.594L204.081 71.0748Z" fill="#7E57C2"/>
<path opacity="0.5" d="M204.081 71.0748C216.283 71.0748 220.667 64.3868 227.519 64.3868C234.371 64.3868 237.369 71.4214 245.905 71.4214C254.806 71.4214 258.673 65.8886 258.673 65.8886L257.889 80.8576H203.594L204.081 71.0748Z" fill="black"/>
<path d="M96.7018 94.6165C95.8993 95.6927 95.0055 96.8904 94.1969 98.0639C93.3882 99.2373 92.5735 100.435 91.8074 101.639C90.2749 103.982 88.9329 106.444 87.7946 109.002L87.594 109.464L87.4967 109.695C87.4531 109.79 87.4304 109.894 87.4298 109.999C87.4142 110.495 87.4695 110.99 87.594 111.47C87.9184 112.75 88.3601 113.998 88.9133 115.197C90.1177 117.824 91.4529 120.389 92.914 122.882L90.2813 124.962C88.06 122.745 86.0791 120.299 84.3716 117.666C83.4527 116.249 82.6903 114.736 82.0976 113.154C81.7463 112.206 81.5274 111.214 81.4471 110.206C81.402 109.562 81.4471 108.915 81.5809 108.284C81.6173 108.108 81.672 107.92 81.7268 107.743L81.824 107.445L82.0186 106.837C82.2679 106.041 82.5719 105.293 82.8637 104.533C83.1556 103.773 83.4717 103.043 83.8548 102.332C84.5236 100.879 85.2957 99.4988 86.08 98.1368C86.8644 96.7749 87.7156 95.4616 88.6033 94.1788C89.0471 93.5343 89.5031 92.902 89.9652 92.2696C90.4273 91.6373 90.8893 91.0536 91.4365 90.3727L96.7018 94.6165Z" fill="#E58A7B"/>
<path d="M91.9594 121.928L95.2244 122.487L92.3242 127.4C92.3242 127.4 90.0503 126.306 89.6368 124.184L91.9594 121.928Z" fill="#E58A7B"/>
<path d="M98.7508 124.244L96.1668 128.196L92.3242 127.4L95.2244 122.487L98.7508 124.244Z" fill="#E58A7B"/>
<path d="M113.537 70.7829C113.537 71.1416 113.726 71.4334 113.963 71.4334C114.2 71.4334 114.389 71.1416 114.389 70.7829C114.389 70.4242 114.2 70.1323 113.963 70.1323C113.726 70.1323 113.537 70.4181 113.537 70.7829Z" fill="#263238"/>
<path d="M113.695 71.4335C114.126 72.5346 114.705 73.5717 115.416 74.516C115.17 74.692 114.889 74.812 114.591 74.8677C114.294 74.9233 113.988 74.9133 113.695 74.8383V71.4335Z" fill="#DF5753"/>
<path d="M112.26 68.7887C112.227 68.7897 112.193 68.7817 112.163 68.7657C112.133 68.7497 112.108 68.7262 112.09 68.6975C112.073 68.6756 112.061 68.6504 112.054 68.6234C112.047 68.5964 112.046 68.5683 112.05 68.5409C112.055 68.5135 112.065 68.4873 112.08 68.464C112.096 68.4407 112.116 68.4209 112.139 68.4057C112.406 68.2011 112.719 68.0644 113.05 68.0072C113.381 67.95 113.722 67.9741 114.042 68.0774C114.093 68.0989 114.134 68.1396 114.155 68.1907C114.177 68.2418 114.178 68.2993 114.157 68.351C114.149 68.3771 114.135 68.4012 114.116 68.4217C114.098 68.4422 114.075 68.4586 114.05 68.47C114.025 68.4814 113.998 68.4876 113.97 68.488C113.943 68.4884 113.915 68.4832 113.89 68.4726C113.635 68.3947 113.365 68.3788 113.103 68.4264C112.841 68.474 112.593 68.5837 112.382 68.7462C112.348 68.7742 112.305 68.7893 112.26 68.7887Z" fill="#263238"/>
<path d="M101.906 74.9355C102.551 78.2066 103.189 84.1893 100.903 86.372C100.903 86.372 101.797 89.6856 107.871 89.6856C114.559 89.6856 111.057 86.372 111.057 86.372C107.409 85.5026 107.506 82.797 108.144 80.2616L101.906 74.9355Z" fill="#E58A7B"/>
<path d="M100.052 87.509C99.5715 86.4632 99.0487 85.2594 100.137 84.8824C101.353 84.469 107.901 84.0495 110.163 84.8216C110.461 84.9043 110.74 85.0454 110.984 85.2366C111.227 85.4279 111.43 85.6656 111.581 85.9359C111.732 86.2062 111.828 86.5037 111.863 86.8113C111.898 87.1189 111.872 87.4304 111.786 87.7279L100.052 87.509Z" fill="#7E57C2"/>
<path d="M85.9645 240.05C85.5721 240.048 85.1809 240.005 84.7972 239.923C84.7775 239.919 84.7593 239.91 84.7452 239.896C84.731 239.881 84.7216 239.863 84.7181 239.843C84.7141 239.823 84.716 239.802 84.7235 239.783C84.731 239.763 84.7439 239.746 84.7607 239.734C84.8154 239.698 86.0497 238.859 86.7002 239.004C86.77 239.019 86.8357 239.049 86.8925 239.092C86.9493 239.135 86.9958 239.19 87.0285 239.254C87.0806 239.328 87.1086 239.416 87.1086 239.506C87.1086 239.596 87.0806 239.685 87.0285 239.758C86.8794 239.875 86.7085 239.961 86.5259 240.011C86.3432 240.061 86.1524 240.075 85.9645 240.05ZM85.0951 239.771C85.7639 239.88 86.6759 239.88 86.8644 239.625C86.8644 239.625 86.9434 239.527 86.8644 239.357C86.8447 239.32 86.817 239.288 86.7834 239.262C86.7498 239.237 86.711 239.22 86.6698 239.211C86.0998 239.241 85.5515 239.44 85.0951 239.783V239.771Z" fill="#7E57C2"/>
<path d="M84.8519 239.941C84.8341 239.947 84.8149 239.947 84.7971 239.941C84.7803 239.931 84.7666 239.917 84.7579 239.9C84.7493 239.882 84.746 239.863 84.7485 239.844C84.7485 239.789 84.8579 238.5 85.3565 238.074C85.4189 238.023 85.4908 237.985 85.568 237.962C85.6453 237.939 85.7263 237.932 85.8064 237.941C85.8868 237.94 85.9647 237.968 86.0268 238.019C86.0889 238.07 86.1314 238.141 86.1469 238.22C86.2381 238.719 85.3443 239.692 84.8823 239.947L84.8519 239.941ZM85.7517 238.117C85.6626 238.118 85.5767 238.151 85.5085 238.208C85.1976 238.611 85.0135 239.098 84.9795 239.606C85.4416 239.26 86.0131 238.524 85.9584 238.226C85.9584 238.226 85.9584 238.135 85.8003 238.117H85.7517Z" fill="#7E57C2"/>
<path d="M112.783 240.05C112.324 240.051 111.866 240.008 111.415 239.923C111.394 239.92 111.374 239.91 111.358 239.895C111.343 239.879 111.333 239.859 111.33 239.837C111.327 239.816 111.33 239.795 111.338 239.775C111.347 239.756 111.361 239.74 111.379 239.728C111.446 239.692 113.008 238.804 113.75 239.004C113.82 239.02 113.886 239.05 113.944 239.093C114.002 239.136 114.049 239.191 114.085 239.254C114.133 239.321 114.159 239.402 114.159 239.485C114.159 239.568 114.133 239.649 114.085 239.716C113.908 239.983 113.355 240.05 112.783 240.05ZM111.756 239.771C112.595 239.886 113.72 239.868 113.926 239.588C113.926 239.552 113.975 239.491 113.926 239.357C113.904 239.32 113.874 239.287 113.839 239.262C113.803 239.237 113.762 239.22 113.72 239.211C113.209 239.09 112.212 239.54 111.756 239.783V239.771Z" fill="#7E57C2"/>
<path d="M111.434 239.941C111.414 239.947 111.393 239.947 111.373 239.941C111.358 239.93 111.346 239.915 111.338 239.898C111.331 239.881 111.328 239.862 111.33 239.843C111.37 239.21 111.613 238.607 112.023 238.123C112.105 238.049 112.202 237.995 112.307 237.963C112.412 237.932 112.523 237.924 112.631 237.94C112.923 237.971 113.008 238.117 113.027 238.238C113.106 238.743 112.042 239.71 111.501 239.947L111.434 239.941ZM112.522 238.117C112.387 238.115 112.256 238.165 112.157 238.257C111.815 238.639 111.602 239.12 111.549 239.631C112.096 239.302 112.826 238.542 112.765 238.238C112.765 238.238 112.765 238.141 112.558 238.117H112.522Z" fill="#7E57C2"/>
<path d="M106.521 239.831H110.99L111.434 229.489H106.965L106.521 239.831Z" fill="#E58A7B"/>
<path d="M79.7021 239.831H84.1709L86.4145 229.489H81.9518L79.7021 239.831Z" fill="#E58A7B"/>
<path d="M84.4871 239.315H79.4711C79.3815 239.315 79.2949 239.346 79.2253 239.403C79.1557 239.459 79.1073 239.537 79.088 239.625L78.2064 243.595C78.1863 243.692 78.1882 243.792 78.2121 243.887C78.2359 243.983 78.2811 244.072 78.3442 244.148C78.4073 244.224 78.4867 244.285 78.5766 244.326C78.6664 244.367 78.7643 244.387 78.8631 244.385C80.6141 244.355 81.4653 244.252 83.6723 244.252C85.0282 244.252 87.825 244.397 89.7037 244.397C91.5824 244.397 91.8196 242.573 91.0535 242.373C87.6122 241.619 86.3171 240.579 85.2106 239.594C85.0135 239.413 84.755 239.313 84.4871 239.315Z" fill="#263238"/>
<path d="M110.959 239.315H106.095C106.006 239.315 105.919 239.346 105.85 239.403C105.78 239.459 105.732 239.537 105.712 239.625L104.831 243.595C104.81 243.691 104.811 243.79 104.833 243.885C104.856 243.981 104.9 244.07 104.962 244.146C105.024 244.222 105.102 244.283 105.191 244.324C105.28 244.366 105.377 244.387 105.475 244.385C107.232 244.355 109.774 244.252 111.987 244.252C114.571 244.252 116.808 244.397 119.836 244.397C121.66 244.397 122.183 242.573 121.417 242.373C117.921 241.607 115.069 241.528 112.048 239.667C111.726 239.448 111.348 239.326 110.959 239.315Z" fill="#263238"/>
<path d="M116.863 88.9196C119.478 90.2085 122.195 91.5279 124.877 92.7621C127.558 93.9964 130.27 95.1941 132.963 96.2216L133.966 96.5804L134.222 96.6716H134.282C134.282 96.6716 134.282 96.6716 134.313 96.702C134.676 96.7396 135.044 96.696 135.389 96.5743C136.598 96.1709 137.754 95.6216 138.83 94.9388C141.288 93.3953 143.649 91.7039 145.901 89.8741L148.364 92.148C146.488 94.7437 144.305 97.1035 141.864 99.1765C140.525 100.333 139.026 101.292 137.414 102.022C136.357 102.5 135.211 102.749 134.051 102.752C133.684 102.745 133.318 102.706 132.957 102.636L132.665 102.569L132.464 102.514L132.173 102.435L131.005 102.113C127.996 101.212 125.04 100.14 122.153 98.9029C119.283 97.6869 116.523 96.3858 113.732 94.9084L116.863 88.9196Z" fill="#E58A7B"/>
<path d="M92.9079 87.3814C88.7187 88.342 83.9155 99.7542 83.9155 99.7542L92.3242 105.518C94.4173 102.519 96.2752 99.3618 97.8813 96.0758C100.362 90.853 97.1882 86.4025 92.9079 87.3814Z" fill="#263238"/>
<path d="M95.9053 94.6591L91.929 105.244L92.3242 105.518C92.3242 105.518 94.0448 103.086 95.9053 99.8453V94.6591Z" fill="#7E57C2"/>
<path opacity="0.8" d="M95.9053 94.6591L91.929 105.244L92.3242 105.518C92.3242 105.518 94.0448 103.086 95.9053 99.8453V94.6591Z" fill="black"/>
<path d="M117.927 87.6124C117.927 87.6124 122.682 92.9811 118.195 126.22H94.3002C94.136 122.572 96.4403 104.661 92.9078 87.3814C95.5484 86.8729 98.219 86.5358 100.903 86.3721C104.285 86.1774 107.675 86.1774 111.057 86.3721C113.376 86.6057 115.673 87.0204 117.927 87.6124Z" fill="#263238"/>
<path d="M120.019 97.8389L114.273 96.6229C114.358 96.7263 117.921 101.195 120.104 103.974C120.146 101.602 120.116 99.6021 120.019 97.8389Z" fill="#7E57C2"/>
<path opacity="0.8" d="M120.019 97.8389L114.273 96.6229C114.358 96.7263 117.921 101.195 120.104 103.974C120.146 101.602 120.116 99.6021 120.019 97.8389Z" fill="black"/>
<path d="M110.437 93.5586C111.75 97.6201 125.029 102.071 125.029 102.071L128.981 92.7013C125.648 90.6807 122.11 89.0216 118.426 87.7522C113.039 86.0377 108.989 89.102 110.437 93.5586Z" fill="#263238"/>
<path d="M145.524 90.4821L146.831 85.9525L152.03 88.3055C152.03 88.3055 150.881 91.8197 147.737 92.6588L145.524 90.4821Z" fill="#E58A7B"/>
<path d="M149.944 82.1769L153.477 85.6607L152.03 88.2812L146.831 85.9282L149.944 82.1769Z" fill="#E58A7B"/>
<path d="M111.434 229.495L111.203 234.821H106.734L106.965 229.495H111.434Z" fill="#CF6F64"/>
<path d="M81.9456 229.495H86.4144L85.2592 234.821H80.7904L81.9456 229.495Z" fill="#CF6F64"/>
<path d="M101.523 70.0169C101.791 74.4431 101.724 77.0453 103.955 79.3193C107.318 82.7362 112.777 80.7055 113.835 76.2793C114.784 72.3029 114.182 65.7365 109.847 63.9733C108.893 63.5815 107.855 63.4401 106.832 63.5626C105.808 63.685 104.833 64.0672 103.999 64.6729C103.165 65.2786 102.499 66.0875 102.066 67.0229C101.633 67.9583 101.446 68.9889 101.523 70.0169Z" fill="#E58A7B"/>
<path d="M110.12 67.0741C113.458 68.0591 116.255 63.3228 115.738 66.6728C115.221 70.0229 118.863 69.6581 118.863 69.6581C118.863 69.6581 116.006 68.5759 119.405 65.7548C123.557 62.3074 117.66 60.1916 115.076 62.0642C111.598 64.5935 110.917 60.1308 106.436 58.933C103.396 58.1304 99.6567 60.0396 99.5898 62.2344C99.5047 64.9157 97.2003 62.7573 97.0301 66.7458C96.9146 69.3481 100.015 77.9269 103.359 78.2188C108.394 78.6626 110.084 72.2786 110.12 67.0741Z" fill="#263238"/>
<path d="M107.494 71.3058C107.732 72.3863 108.322 73.3571 109.172 74.0661C110.297 74.9781 111.197 74.1634 111.172 72.8501C111.142 71.6645 110.528 69.7614 109.263 69.3602C107.998 68.9589 107.208 70.0107 107.494 71.3058Z" fill="#E58A7B"/>
<path d="M100.563 64.7273C100.017 63.8999 99.6867 62.9496 99.6007 61.9624C99.5147 60.9752 99.6761 59.9821 100.07 59.0729C100.07 59.0729 95.3156 62.654 100.563 64.7273Z" fill="#263238"/>
<path d="M96.7565 64.2895C97.2277 64.09 97.7418 64.0127 98.2509 64.0648C98.76 64.1169 99.2477 64.2966 99.6688 64.5874C99.6688 64.5874 98.319 61.8332 96.7565 64.2895Z" fill="#263238"/>
<path d="M109.719 126.22C109.719 126.22 104.648 160.354 101.876 173.17C98.8359 187.154 87.3508 233.824 87.3508 233.824H79.1549C79.1549 233.824 86.7306 188.273 88.4999 174.386C90.3847 159.338 94.3306 126.196 94.3306 126.196L109.719 126.22Z" fill="#7E57C2"/>
<path d="M88.6458 230.778C88.6823 230.778 87.8007 233.922 87.8007 233.922H78.5956L78.7658 231.119L88.6458 230.778Z" fill="#7E57C2"/>
<path opacity="0.2" d="M88.6458 230.778C88.6823 230.778 87.8007 233.922 87.8007 233.922H78.5956L78.7658 231.119L88.6458 230.778Z" fill="black"/>
<path d="M106.515 138.38C100.654 139.53 101.274 161.387 101.979 172.629C103.7 164.658 106.132 149.391 107.834 138.514C107.422 138.321 106.957 138.274 106.515 138.38Z" fill="#7E57C2"/>
<path opacity="0.2" d="M106.515 138.38C100.654 139.53 101.274 161.387 101.979 172.629C103.7 164.658 106.132 149.391 107.834 138.514C107.422 138.321 106.957 138.274 106.515 138.38Z" fill="black"/>
<path d="M118.195 126.22C118.195 126.22 118.803 159.612 118.322 173.237C117.818 187.404 112.85 233.794 112.85 233.794H105.305C105.305 233.794 105.025 188.23 104.697 174.319C104.332 159.15 102.502 126.22 102.502 126.22H118.195Z" fill="#7E57C2"/>
<path d="M111.294 228.358C111.273 228.355 111.255 228.345 111.241 228.33C111.228 228.314 111.221 228.294 111.221 228.273C112.558 215.432 115.702 184.37 116.085 173.231C116.492 161.819 116.121 136.331 116 128.786C116 128.777 116.002 128.767 116.005 128.758C116.009 128.749 116.014 128.741 116.021 128.735C116.028 128.728 116.036 128.722 116.045 128.719C116.054 128.715 116.063 128.713 116.073 128.713C116.093 128.713 116.112 128.721 116.127 128.734C116.141 128.748 116.15 128.766 116.152 128.786C116.273 136.325 116.644 161.819 116.237 173.237C115.842 184.382 112.698 215.451 111.373 228.292C111.372 228.301 111.369 228.31 111.365 228.319C111.361 228.328 111.355 228.335 111.347 228.341C111.34 228.348 111.331 228.352 111.322 228.355C111.313 228.358 111.303 228.359 111.294 228.358Z" fill="#7E57C2"/>
<path opacity="0.2" d="M111.294 228.358C111.273 228.355 111.255 228.345 111.241 228.33C111.228 228.314 111.221 228.294 111.221 228.273C112.558 215.432 115.702 184.37 116.085 173.231C116.492 161.819 116.121 136.331 116 128.786C116 128.777 116.002 128.767 116.005 128.758C116.009 128.749 116.014 128.741 116.021 128.735C116.028 128.728 116.036 128.722 116.045 128.719C116.054 128.715 116.063 128.713 116.073 128.713C116.093 128.713 116.112 128.721 116.127 128.734C116.141 128.748 116.15 128.766 116.152 128.786C116.273 136.325 116.644 161.819 116.237 173.237C115.842 184.382 112.698 215.451 111.373 228.292C111.372 228.301 111.369 228.31 111.365 228.319C111.361 228.328 111.355 228.335 111.347 228.341C111.34 228.348 111.331 228.352 111.322 228.355C111.313 228.358 111.303 228.359 111.294 228.358Z" fill="black"/>
<path d="M114.322 230.778C114.358 230.778 113.896 233.922 113.896 233.922H104.691L104.442 231.119L114.322 230.778Z" fill="#7E57C2"/>
<path opacity="0.2" d="M114.322 230.778C114.358 230.778 113.896 233.922 113.896 233.922H104.691L104.442 231.119L114.322 230.778Z" fill="black"/>
</svg>
